<?xml version="1.0" encoding="UTF-8"?>
<svg id="Layer_2" data-name="Layer 2" xmlns="http://www.w3.org/2000/svg" xmlns:xlink="http://www.w3.org/1999/xlink" viewBox="0 0 73.39 66.4">
  <defs>
    <style>
      .cls-1 {
        fill: #fff5e0;
      }

      .cls-2 {
        fill: #ffe090;
      }

      .cls-3 {
        fill: #303030;
      }

      .cls-4 {
        fill: #ff8d5c;
      }

      .cls-5 {
        filter: url(#drop-shadow-1);
      }

      .cls-6 {
        fill: #ffc408;
      }
    </style>
    <filter id="drop-shadow-1" filterUnits="userSpaceOnUse">
      <feOffset dx="-3.08" dy="3.08"/>
      <feGaussianBlur result="blur" stdDeviation="7.7"/>
      <feFlood flood-color="#000" flood-opacity=".35"/>
      <feComposite in2="blur" operator="in"/>
      <feComposite in="SourceGraphic"/>
    </filter>
  </defs>
  <g id="Do_it_yourself" data-name="Do it yourself">
    <g class="cls-5">
      <g>
        <g>
          <g>
            <path class="cls-1" d="m50.62,59.12V14.67L37.44,1.5H7.28C4.09,1.5,1.5,4.09,1.5,7.28v51.84c0,3.19,2.59,5.78,5.78,5.78h37.56c3.19,0,5.78-2.59,5.78-5.78Z"/>
            <path class="cls-3" d="m44.84,66.4H7.28c-4.01,0-7.28-3.26-7.28-7.28V7.28C0,3.26,3.26,0,7.28,0h30.16c.4,0,.78.16,1.06.44l13.17,13.17c.28.28.44.66.44,1.06v44.45c0,4.01-3.26,7.28-7.28,7.28ZM7.28,3c-2.36,0-4.28,1.92-4.28,4.28v51.84c0,2.36,1.92,4.28,4.28,4.28h37.56c2.36,0,4.28-1.92,4.28-4.28V15.29l-12.3-12.29H7.28Z"/>
          </g>
          <g>
            <polygon class="cls-4" points="50.62 14.67 37.44 1.5 37.44 14.67 50.62 14.67"/>
            <path class="cls-3" d="m50.62,16.17h-13.17c-.83,0-1.5-.67-1.5-1.5V1.5c0-.61.37-1.15.93-1.39.56-.23,1.21-.1,1.63.33l13.17,13.17c.43.43.56,1.07.33,1.63-.23.56-.78.93-1.39.93Zm-11.67-3h8.05l-8.05-8.05v8.05Z"/>
          </g>
        </g>
        <path class="cls-3" d="m30.05,16.17H11.37c-.83,0-1.5-.67-1.5-1.5s.67-1.5,1.5-1.5h18.68c.83,0,1.5.67,1.5,1.5s-.67,1.5-1.5,1.5Z"/>
        <path class="cls-3" d="m40.86,23.06H11.37c-.83,0-1.5-.67-1.5-1.5s.67-1.5,1.5-1.5h29.5c.83,0,1.5.67,1.5,1.5s-.67,1.5-1.5,1.5Z"/>
        <path class="cls-3" d="m40.86,29.94H11.37c-.83,0-1.5-.67-1.5-1.5s.67-1.5,1.5-1.5h29.5c.83,0,1.5.67,1.5,1.5s-.67,1.5-1.5,1.5Z"/>
        <path class="cls-3" d="m40.86,36.82H11.37c-.83,0-1.5-.67-1.5-1.5s.67-1.5,1.5-1.5h29.5c.83,0,1.5.67,1.5,1.5s-.67,1.5-1.5,1.5Z"/>
        <path class="cls-3" d="m29.06,43.7H10.8c-.51,0-.93-.67-.93-1.5s.42-1.5.93-1.5h18.26c.51,0,.93.67.93,1.5s-.42,1.5-.93,1.5Z"/>
        <path class="cls-3" d="m25.24,50.58h-14.63c-.41,0-.74-.67-.74-1.5s.33-1.5.74-1.5h14.63c.41,0,.74.67.74,1.5s-.33,1.5-.74,1.5Z"/>
        <path class="cls-3" d="m21.42,57.46h-11c-.31,0-.56-.67-.56-1.5s.25-1.5.56-1.5h11c.31,0,.56.67.56,1.5s-.25,1.5-.56,1.5Z"/>
      </g>
      <g>
        <g>
          <path class="cls-6" d="m39.76,49.49l-7.11-6.51L63.52,9.26c1.8-1.96,4.85-2.1,6.81-.3h0c1.96,1.8,2.1,4.85.3,6.81l-30.87,33.72Z"/>
          <path class="cls-3" d="m38.75,50.6l-7.11-6.51c-.61-.56-.65-1.51-.09-2.12L62.41,8.25c2.35-2.57,6.36-2.75,8.93-.39s2.75,6.36.39,8.93l-30.87,33.72c-.56.61-1.51.65-2.12.09Zm-3.98-7.71l4.9,4.48,29.86-32.62c1.24-1.35,1.14-3.46-.21-4.69s-3.46-1.14-4.69.21l-29.86,32.62Z"/>
        </g>
        <g>
          <rect class="cls-2" x="57.96" y="15.03" width="9.64" height="4.35" transform="translate(28.09 -37.87) rotate(42.47)"/>
          <path class="cls-3" d="m63.85,23.18l-7.11-6.51c-.61-.56-.65-1.51-.09-2.12l2.94-3.21c.56-.61,1.51-.65,2.12-.09l7.11,6.51c.61.56.65,1.51.09,2.12l-2.94,3.21c-.56.61-1.51.65-2.12.09Zm-3.98-7.71l4.9,4.48.91-1-4.9-4.48-.91,1Z"/>
        </g>
        <g>
          <polygon class="cls-6" points="29.89 53.13 33.14 51.38 31.36 49.75 29.89 53.13"/>
          <polygon class="cls-2" points="32.62 46.83 35.93 49.86 37.19 49.18 33.19 45.51 32.62 46.83"/>
          <path class="cls-3" d="m41.25,49.68c.06-.48-.12-.96-.48-1.29l-7.11-6.51c-.36-.33-.85-.46-1.33-.36-.47.1-.87.43-1.06.87l-5.86,13.54c-.25.59-.11,1.27.36,1.7s1.16.52,1.73.21l12.97-7.03c.43-.23.71-.65.77-1.14Zm-11.36,3.46l1.47-3.39,1.78,1.63-3.25,1.76Zm6.04-3.27l-3.31-3.03.57-1.32,4.01,3.67-1.27.69Z"/>
        </g>
      </g>
    </g>
  </g>
</svg>