<?xml version="1.0" encoding="UTF-8"?>
<svg id="Layer_2" data-name="Layer 2" xmlns="http://www.w3.org/2000/svg" viewBox="0 0 557.87 107.71">
  <defs>
    <style>
      .cls-1 {
        fill: none;
        stroke: #ee7a2e;
        stroke-miterlimit: 10;
        stroke-width: 3.07px;
      }

      .cls-2 {
        fill: #ee7a2e;
      }

      .cls-3 {
        fill: #ffd646;
      }

      .cls-4 {
        fill: #f9b52f;
      }
    </style>
  </defs>
  <g id="Area_perimeter" data-name="Area &amp;amp; perimeter">
    <g>
      <g>
        <path class="cls-3" d="m551.17,10.12s-5.09,5.23-4.84,10.58c0,0-1.13-.03-3.3-.06.05.73.14,1.46.26,2.18v.1c.03.44-.28.88-.73.99-.46.11-.88-.15-1-.58-.25-.89-.44-1.8-.59-2.72-4.92-.1-13.07-.25-23.9-.45-.13.19-.33.33-.57.4-.39.1-.76-.08-.93-.42-3.04-.05-6.29-.12-9.71-.17.04.91.16,1.83.3,2.72v.02c.08.47-.25.96-.74,1.09-.46.11-.89-.15-1.01-.58-.29-1.08-.52-2.18-.69-3.29-5.06-.09-10.53-.18-16.34-.3h-.02s-.31.14-.31.14c-.28.07-.54,0-.72-.15-2.14-.03-4.32-.06-6.55-.1,0,.4-.29.78-.72.89-.46.13-.91-.13-1.02-.57l-.09-.37c-3.14-.04-6.4-.1-9.72-.17.05,1.1.18,2.18.35,3.27v.12c.03.45-.28.87-.73.98-.47.11-.9-.15-1.03-.58-.34-1.24-.6-2.51-.76-3.81-5.17-.08-10.55-.18-16.11-.27-.11.29-.36.53-.69.61-.47.11-.91-.15-1.03-.57l-.02-.07c-2.08-.04-4.2-.07-6.33-.12l.03.31v.1c.03.45-.29.89-.76,1-.45.11-.91-.15-1.04-.59-.08-.29-.15-.57-.2-.86-3.18-.04-6.42-.09-9.72-.15.03,1.25.16,2.51.37,3.76v.02c.08.48-.25.97-.76,1.11-.46.11-.91-.15-1.02-.59-.39-1.42-.67-2.85-.85-4.31-2.72-.05-5.47-.11-8.26-.15-.13.16-.31.27-.5.31-.37.08-.71-.05-.92-.32-2.15-.03-4.31-.08-6.5-.1.1.5-.25.98-.76,1.09-.46.11-.92-.15-1.03-.59-.05-.19-.11-.35-.13-.54-2.1-.02-4.23-.05-6.37-.09.03.26.06.5.11.76v.02c.08.48-.25.98-.77,1.09-.48.13-.92-.15-1.05-.57-.13-.44-.24-.88-.32-1.33-3.2-.04-6.46-.1-9.74-.15.04,1.42.16,2.84.4,4.24v.1c.03.45-.29.9-.77,1.01-.48.11-.92-.15-1.05-.59-.44-1.58-.74-3.18-.93-4.8-2.68-.04-5.35-.08-8.05-.12-.07.36-.36.66-.75.76-.46.11-.93-.15-1.04-.59l-.05-.19c-2.14-.04-4.31-.07-6.47-.1l.06.42v.02c.08.48-.26.98-.77,1.1-.48.11-.93-.15-1.06-.57-.09-.32-.18-.65-.25-.97-2.11-.04-4.25-.08-6.4-.11.04.4.1.8.17,1.2l.02.02c.08.5-.27,1-.77,1.12-.48.11-.93-.15-1.06-.59-.16-.58-.31-1.18-.43-1.76-3.22-.05-6.49-.09-9.75-.15,0,1.57.15,3.15.41,4.69v.02c.08.48-.27.99-.78,1.1-.48.13-.93-.13-1.06-.58-.49-1.73-.8-3.49-1-5.27-2.69-.02-5.38-.07-8.08-.11v.07c.08.49-.25.99-.78,1.1-.49.11-.94-.15-1.07-.58-.07-.2-.11-.41-.16-.62-2.15-.04-4.3-.08-6.48-.09.03.28.06.54.12.82v.02c.08.5-.27,1.01-.78,1.12-.49.11-.94-.15-1.07-.6-.13-.46-.25-.93-.35-1.39-2.14-.04-4.28-.06-6.44-.08.06.52.15,1.06.23,1.6v.02c.1.48-.26.99-.78,1.11-.47.11-.94-.15-1.06-.58-.2-.72-.39-1.44-.52-2.19-3.26-.05-6.53-.09-9.82-.14,0,1.73.13,3.43.42,5.12v.12c.03.46-.3.89-.77,1-.49.11-.96-.15-1.08-.6-.54-1.85-.86-3.75-1.04-5.69-2.72-.02-5.47-.07-8.21-.11l.06.44v.02c.08.51-.26.99-.79,1.13-.49.11-.95-.15-1.08-.6-.09-.33-.18-.67-.26-1-2.18-.04-4.36-.06-6.54-.08.04.41.1.81.18,1.21v.02c.1.49-.26.99-.77,1.11-.49.11-.97-.15-1.08-.58-.18-.58-.32-1.19-.45-1.78-2.17-.04-4.31-.07-6.46-.09.07.67.16,1.34.27,1.99v.02c.08.51-.26,1.01-.79,1.13-.49.11-.95-.15-1.09-.6-.25-.85-.44-1.71-.6-2.57-3.27-.03-6.55-.08-9.84-.13-.01,1.84.11,3.69.43,5.51v.02c.08.49-.26,1-.79,1.12-.48.13-.96-.13-1.09-.58-.57-1.99-.92-4.02-1.09-6.08-2.78-.04-5.55-.08-8.33-.1.03.27.07.53.12.79v.12c.03.46-.3.9-.78,1.01-.5.11-.96-.15-1.1-.58-.14-.45-.26-.92-.34-1.38-2.2-.02-4.39-.04-6.58-.07.05.51.13,1.04.22,1.55v.02c.08.51-.26,1-.8,1.14-.48.11-.96-.15-1.1-.6-.21-.71-.38-1.43-.51-2.15-2.17,0-4.33-.04-6.48-.06.06.78.16,1.56.3,2.34v.02c.08.49-.26,1-.8,1.12-.5.11-.96-.15-1.1-.59-.28-.96-.5-1.93-.67-2.92-3.31-.03-6.61-.07-9.91-.12-.02,1.97.08,3.93.43,5.85v.02c.09.51-.26,1.02-.8,1.14-.5.12-.97-.15-1.11-.6-.61-2.11-.97-4.24-1.12-6.42-2.83-.04-5.64-.06-8.45-.1.04.37.1.73.15,1.1v.02c.09.51-.26,1.01-.8,1.14-.48.11-.97-.15-1.09-.61-.16-.56-.31-1.1-.41-1.66-2.21-.02-4.43-.05-6.62-.07.05.63.14,1.25.25,1.87v.02c.09.5-.27,1.01-.81,1.13-.5.11-.97-.15-1.11-.59-.23-.8-.43-1.61-.59-2.44-2.18-.03-4.36-.06-6.55-.07.07.88.19,1.75.34,2.62v.02c.11.51-.26,1.03-.79,1.14-.51.12-.98-.15-1.12-.61-.31-1.05-.55-2.12-.73-3.2-3.35-.03-6.68-.07-9.99-.09-.04,2.07.08,4.12.44,6.14l.02.02c.08.5-.29,1.01-.81,1.13-.51.12-.98-.15-1.12-.59-.64-2.19-1.01-4.45-1.16-6.73-2.86-.02-5.73-.06-8.58-.08.04.45.11.89.19,1.36v.11c.03.47-.31.93-.81,1.04-.51.12-.98-.15-1.12-.61-.19-.63-.36-1.26-.49-1.9-2.24-.02-4.44-.05-6.67-.06.06.7.17,1.4.29,2.09l.02.02c.09.52-.29,1.02-.82,1.15-.51.12-.99-.15-1.13-.61-.26-.88-.48-1.76-.63-2.67-2.21-.03-4.42-.04-6.61-.05.05.96.18,1.91.35,2.85v.02c.09.5-.27,1.01-.82,1.13-.49.11-.99-.16-1.11-.6-.33-1.13-.59-2.28-.79-3.44-3.37-.04-6.72-.06-10.06-.06-.05,2.14.07,4.26.44,6.35v.02c.11.52-.27,1.03-.82,1.16-.5.11-.99-.15-1.12-.61-.67-2.27-1.05-4.58-1.21-6.93-2.92-.04-5.8-.04-8.68-.07.05.51.13,1.01.22,1.51v.02c.09.5-.29,1.02-.82,1.16-.52.12-1-.16-1.14-.61-.21-.69-.39-1.38-.53-2.08-2.25-.03-4.5-.05-6.73-.04.06.74.16,1.5.3,2.25v.13c.03.47-.31.92-.83,1.03-.5.11-1-.16-1.12-.6-.27-.94-.5-1.88-.67-2.83-2.24-.03-4.45-.04-6.67-.05.06,1,.19,2.01.37,3v.02c.09.52-.27,1.02-.83,1.16-.52.12-1-.16-1.15-.62-.34-1.17-.62-2.36-.81-3.57-3.57-.02-7.1-.04-10.6-.05-.03,2.5.17,4.97.74,7.36v.02c.13.5-.23,1.04-.77,1.19-.52.13-1.02-.12-1.19-.57-.91-2.57-1.42-5.26-1.66-8.01-3.01-.01-5.97-.03-8.93-.03.12,1,.29,1.97.52,2.95v.02c.11.5-.23,1.04-.77,1.19-.52.14-1.03-.12-1.19-.58-.42-1.18-.77-2.39-1.01-3.61-2.24-.01-4.46,0-6.66-.03.1,1.37.32,2.72.63,4.07v.02c.13.5-.23,1.04-.77,1.2-.52.14-1.03-.12-1.19-.58-.54-1.54-.93-3.13-1.22-4.72-2.2,0-4.39,0-6.56,0,.1,1.74.32,3.46.72,5.15v.02c.13.5-.23,1.04-.78,1.2-.52.14-1.03-.12-1.2-.58-.66-1.88-1.11-3.81-1.41-5.79-3.32,0-6.6,0-9.82-.01-.17,3.1-.01,6.17.7,9.13v.02c.11.52-.23,1.04-.78,1.2-.53.14-1.04-.12-1.2-.56-1.12-3.16-1.65-6.45-1.83-9.8-3.07,0-6.1.01-9.08,0,.11,1.58.34,3.12.69,4.65v.02c.13.52-.22,1.04-.78,1.2-.51.13-1.04-.12-1.19-.56-.62-1.72-1.06-3.5-1.35-5.3-2.21,0-4.37.01-6.52,0,.06,1.94.29,3.84.72,5.71l.02.02c.11.52-.24,1.05-.8,1.21-.51.13-1.02-.12-1.19-.56-.74-2.06-1.23-4.19-1.51-6.36-2.17.01-4.31.02-6.4.02.02,2.28.23,4.55.76,6.76v.02c.11.53-.24,1.05-.79,1.21-.53.14-1.05-.12-1.21-.56-.86-2.38-1.37-4.87-1.64-7.4-2.8.01-5.52.03-8.18.06-.68,4.76-.83,9.52.24,14.05l.03.16c.03.48-.31.91-.82,1.04-.51.13-1.05-.12-1.2-.56-1.68-4.69-2.05-9.7-1.88-14.68-5.52.05-10.72.11-15.61.17-6.75,41.7-1.24,89.32-1.24,89.32,218.24,4.71,546.62-1.54,546.62-1.54,0,0-5.61-52.83.9-92.76ZM26.24,97.31c-2.45-.87-4.95-1.85-7.33-2.98-.09-.42-.27-.89-.58-1.45-10.06-4.79-2.34-16.76,4.75-21.55,13.05-8.81,31.82-12.1,46.65-14.94,51.98-9.94,104.31-11.86,154.83-11.61,74.81.37,148.16,1.05,218.18,11.69,20.95,3.18,43.49,6.23,62.21,14.98,4.74,2.21,10.52,4.81,13.55,9.21-.74,3.04-2.95,5.41-7.1,5.33-3.58-.07-6.39,1.73-8.17,4.19-151.33,13.35-311.29,10.09-476.98,7.13Zm503.71-.72c-5.04,2.36-13.83,2.43-12.77-4.63.61-4.01,7.18-6.31,7.77-10.93.5-3.92-1.97-6.99-3.86-10.03l-.84.11c-.39-1.82.14-4.04.71-5.88,16.14-5.98,25.97,23.39,8.99,31.35Z"/>
        <path class="cls-4" d="m136.92,15.1c-.87-4.05-.92-8.24-.59-12.39-1.78.02-3.53.04-5.27.08-.81,4.1-1.27,8.23-.87,12.27,2.23,0,4.48.02,6.73.04Z"/>
        <path class="cls-4" d="m50.87,14.8c-.59-3.54-.64-7.18-.46-10.78-1.79.04-3.52.07-5.19.1-.62,3.56-1.01,7.16-.88,10.68,2.15,0,4.32,0,6.52,0Z"/>
        <path class="cls-4" d="m441.85,18.87c2.14.05,4.25.08,6.33.12-1.48-5.4-1.28-11.19-.62-16.8-1.48-.01-2.96-.02-4.43-.04-.04.2-.09.38-.13.57-1.21,5.38-2,10.88-1.16,16.14Z"/>
        <path class="cls-4" d="m139.19,15.1c2.88.02,5.77.03,8.68.07-.27-3.71,0-7.48.46-11.18.07-.48.12-.96.21-1.43-2.93.03-5.83.08-8.69.12-.79,4.15-1.17,8.36-.66,12.43Z"/>
        <path class="cls-4" d="m62.57,14.78c-.15-2.81-.04-5.65.17-8.45.07-.84.16-1.68.25-2.52-3.05.04-5.98.1-8.82.15-.58,3.62-.92,7.27-.69,10.83,2.98,0,6.01,0,9.08,0Z"/>
        <path class="cls-4" d="m430.17,18.69c3.3.06,6.53.11,9.72.15-1.32-5.33-1.06-10.99-.38-16.46l.04-.25c-2.32-.03-4.62-.05-6.92-.07-.34,1.32-.67,2.61-.97,3.92-.96,4.2-1.65,8.5-1.49,12.7Z"/>
        <path class="cls-4" d="m419.9,17.72v.02c.05.29-.06.58-.26.78,2.79.04,5.54.1,8.26.15-.57-4.3-.3-8.73.25-13.04.15-1.21.32-2.42.53-3.61-2.63-.03-5.23-.05-7.83-.08-1.14,5.26-1.81,10.65-.95,15.79Z"/>
        <path class="cls-4" d="m108.2,14.92c3.5.01,7.03.03,10.6.05-.68-3.93-.6-8.01-.21-12.02-3.02.02-5.98.07-8.91.12-.14.64-.28,1.28-.4,1.94-.61,3.3-1.06,6.64-1.09,9.91Z"/>
        <path class="cls-4" d="m84.72,14.81c-.69-3.73-.76-7.57-.55-11.36-1.73.02-3.44.05-5.12.08-.67,3.76-1.09,7.58-.9,11.28,2.17,0,4.35,0,6.56,0Z"/>
        <path class="cls-4" d="m65.68,14.79c3.22.01,6.5.01,9.82.01-.55-3.68-.54-7.48-.3-11.2-2.72.04-5.35.08-7.91.14-.22.93-.4,1.86-.59,2.8-.51,2.74-.9,5.5-1.02,8.24Z"/>
        <path class="cls-4" d="m517.24,19.46v.1c.01.21-.04.42-.17.59,10.83.2,18.98.35,23.9.45-.8-4.67-.54-9.57.06-14.33.11-.85.23-1.71.36-2.55-2.54-.06-5.05-.11-7.59-.17-.99,4.9-1.54,9.86-.76,14.61v.02c.09.49-.24.98-.72,1.09-.46.11-.9-.14-1-.58-1.33-4.9-1.29-10.1-.76-15.2-1.49-.02-2.99-.06-4.47-.08-1.11,5.14-1.76,10.4-.93,15.41v.02c.07.47-.25.96-.74,1.07-.46.13-.88-.15-1.01-.56-1.4-5.16-1.28-10.66-.68-16-1.46-.03-2.93-.05-4.38-.08-1.21,5.4-1.98,10.92-1.1,16.2Z"/>
        <path class="cls-3" d="m556.33,11.05l-5.53-7.12c-1.9-.04-3.79-.09-5.71-.13-.25.94-.48,1.88-.69,2.83-1.04,4.66-1.76,9.41-1.37,14.01,2.17.03,3.3.06,3.3.06-.25-5.35,4.84-10.58,4.84-10.58-6.51,39.93-.9,92.76-.9,92.76l4.78-8.47,1.28-83.36Z"/>
        <path class="cls-4" d="m93.94,14.85c-.81-3.75-.96-7.67-.77-11.54-1.77.02-3.51.06-5.24.07-.64,3.83-.99,7.68-.65,11.43,2.2.02,4.42.01,6.66.03Z"/>
        <path class="cls-4" d="m41.58,14.81c-.49-3.5-.46-7.08-.23-10.61-1.77.04-3.49.07-5.12.09-.65,3.51-1.1,7.07-1.05,10.55,2.1,0,4.23-.01,6.4-.02Z"/>
        <path class="cls-4" d="m96.39,14.87c2.96,0,5.92.02,8.93.03-.29-3.36-.2-6.77.06-10.12.05-.56.09-1.09.16-1.65-2.97.03-5.89.08-8.75.11-.6,3.91-.86,7.82-.4,11.63Z"/>
        <path class="cls-4" d="m24.12,14.91c2.66-.03,5.38-.05,8.18-.06-.39-3.46-.32-7-.07-10.48-2.14.04-4.11.08-5.99.13-.58,2.32-1.1,4.64-1.54,6.96-.21,1.16-.4,2.3-.57,3.45Z"/>
        <path class="cls-4" d="m20.7,11.26c.19-2.23.44-4.44.76-6.65-9.52.2-14.65.32-14.65.32-.73,3.33-1.36,6.74-1.92,10.17,4.89-.06,10.09-.13,15.61-.17.03-1.23.11-2.45.2-3.67Z"/>
        <path class="cls-4" d="m487.79,18.66v.02c.05.37-.12.76-.42.95,5.81.12,11.28.21,16.34.3-.7-4.54-.43-9.28.15-13.86.12-1.02.28-2.04.44-3.06-2.55-.05-5.11-.1-7.66-.13-1.07,5.06-1.68,10.2-.86,15.14v.02c.08.47-.25.96-.75,1.08-.45.11-.89-.15-1.02-.56-1.39-5.06-1.31-10.47-.73-15.73-1.49-.02-2.97-.05-4.45-.08-1.19,5.32-1.9,10.74-1.04,15.91Z"/>
        <path class="cls-4" d="m479.77,19.32v.02s0,.19,0,.19c2.23.03,4.41.07,6.55.1-.14-.1-.24-.25-.3-.43-1.46-5.32-1.28-10.99-.65-16.5-1.46-.01-2.93-.04-4.39-.05l-.09.34c-1.22,5.43-2.01,11.03-1.12,16.34Z"/>
        <path class="cls-4" d="m468.21,19.31c3.33.07,6.58.13,9.72.17-1.43-5.44-1.18-11.26-.49-16.85v-.03c-2.27-.03-4.56-.07-6.84-.1-.32,1.24-.63,2.47-.92,3.71-.98,4.36-1.69,8.8-1.47,13.11Z"/>
        <path class="cls-4" d="m127.88,15.03c-.79-3.99-.78-8.12-.43-12.21-1.75.02-3.48.04-5.21.07-.84,4.04-1.32,8.1-1.04,12.08,2.22.01,4.44.03,6.67.05Z"/>
        <path class="cls-4" d="m449.97,18.52v.02c.03.17.02.33-.05.48,5.56.09,10.94.18,16.11.27-.64-4.42-.35-8.98.18-13.44.14-1.13.31-2.26.5-3.4-2.58-.05-5.14-.08-7.72-.1-1.13,5.2-1.78,10.48-.94,15.52v.02c.08.49-.25.99-.75,1.1-.47.11-.9-.15-1.03-.58-1.43-5.18-1.32-10.72-.71-16.1-1.49,0-3.01-.03-4.5-.06-1.21,5.42-1.99,10.99-1.09,16.29Z"/>
        <path class="cls-4" d="m505.85,19.97c3.42.05,6.67.12,9.71.17l-.08-.16c-1.48-5.41-1.26-11.19-.58-16.79-2.28-.03-4.54-.08-6.81-.11-.29,1.11-.57,2.23-.82,3.35-1.01,4.49-1.72,9.08-1.42,13.55Z"/>
        <path class="cls-4" d="m411.72,18.37v.03c2.19.03,4.35.07,6.5.1l-.12-.25c-1.47-5.26-1.33-10.89-.73-16.36-1.51,0-3.03-.02-4.52-.03-1.25,5.51-2.04,11.13-1.13,16.49Z"/>
        <path class="cls-4" d="m273.32,16.43c3.29.05,6.58.1,9.84.13-.95-4.89-.69-10.01-.08-14.98-2.47,0-4.9,0-7.33.03-.31,1.15-.6,2.31-.87,3.47-.88,3.76-1.53,7.57-1.56,11.35Z"/>
        <path class="cls-4" d="m285.38,16.6c2.15.03,4.3.05,6.46.09-1.08-4.92-.89-10.1-.33-15.13-1.57,0-3.13.01-4.68,0l-.05.18c-1.14,4.94-1.89,9.98-1.41,14.85Z"/>
        <path class="cls-4" d="m262.44,16.31c2.78.02,5.56.06,8.33.1-.32-3.88-.05-7.85.43-11.71.13-1.04.28-2.07.45-3.1-2.77,0-5.53.03-8.27.03-1.04,4.89-1.65,9.88-.94,14.67Z"/>
        <path class="cls-4" d="m293.96,16.72c2.18.02,4.36.04,6.54.08-1.22-4.93-1.11-10.17-.55-15.24-1.59,0-3.19,0-4.78,0-1.12,5.06-1.84,10.19-1.2,15.16Z"/>
        <path class="cls-4" d="m325.18,17.14c2.16.02,4.3.04,6.44.08-1.18-5.09-.97-10.45-.35-15.67-1.55,0-3.09-.02-4.62-.01l-.1.46c-1.14,5.04-1.92,10.17-1.36,15.15Z"/>
        <path class="cls-4" d="m253.77,16.21c2.19.02,4.38.05,6.58.07-1.13-4.74-1.05-9.74-.55-14.62-1.62.01-3.25.03-4.86.04-1.08,4.85-1.75,9.76-1.17,14.52Z"/>
        <path class="cls-4" d="m302.57,16.82c2.75.04,5.49.08,8.21.11-.37-3.96-.11-8.03.38-11.98.14-1.14.3-2.26.5-3.39-2.72-.01-5.43-.01-8.13,0-1.11,5.1-1.76,10.3-.96,15.28Z"/>
        <path class="cls-4" d="m313.24,16.96c3.29.04,6.55.09,9.82.14-1.05-5.04-.78-10.33-.14-15.47v-.09c-2.4,0-4.81,0-7.19,0-.34,1.25-.66,2.5-.94,3.76-.88,3.88-1.53,7.8-1.55,11.66Z"/>
        <path class="cls-4" d="m213.09,15.75c2.2.03,4.41.05,6.62.07-1.06-4.51-1.02-9.26-.56-13.92-1.66,0-3.33.01-4.97.03-.99,4.62-1.59,9.27-1.09,13.82Z"/>
        <path class="cls-4" d="m210.83,15.73c-.89-4.48-.79-9.18-.31-13.77-1.65.01-3.3.03-4.93.04-1,4.55-1.67,9.17-1.31,13.67,2.18,0,4.37.04,6.55.07Z"/>
        <path class="cls-4" d="m245.1,16.11c2.16.03,4.31.06,6.48.06-1-4.71-.84-9.65-.3-14.46-1.61,0-3.22,0-4.81.01-1.09,4.78-1.82,9.65-1.37,14.38Z"/>
        <path class="cls-4" d="m169.61,15.34c-.83-4.25-.78-8.67-.37-13.01-1.71.02-3.38.05-5.07.06-.93,4.3-1.51,8.66-1.17,12.9,2.19.01,4.4.02,6.61.05Z"/>
        <path class="cls-4" d="m150.58,15.2c3.34,0,6.69.03,10.06.06-.72-4.19-.6-8.56-.15-12.84-2.65.04-5.27.07-7.87.1-.16.62-.32,1.22-.45,1.84-.82,3.6-1.46,7.25-1.58,10.83Z"/>
        <path class="cls-4" d="m232.92,15.95c3.29.05,6.6.09,9.91.12-.87-4.68-.65-9.56-.09-14.32-2.51,0-4.99.03-7.47.04-.28,1.01-.53,2.03-.77,3.04-.85,3.68-1.49,7.42-1.57,11.12Z"/>
        <path class="cls-4" d="m403.42,18.27c2.14.03,4.27.07,6.37.09-1.41-5.33-1.18-11.01-.51-16.51-1.48-.01-2.98-.02-4.46-.02-.06.22-.12.45-.16.67-1.2,5.25-1.96,10.62-1.24,15.77Z"/>
        <path class="cls-4" d="m381.27,17.56v.02s-.02.35-.02.35c2.7.04,5.38.08,8.05.12-.48-4.18-.2-8.46.32-12.66.15-1.21.34-2.43.55-3.65-2.66-.03-5.3-.05-7.94-.06-1.15,5.31-1.84,10.71-.97,15.88Z"/>
        <path class="cls-4" d="m372.95,17.81c2.16.03,4.33.07,6.47.1-1.46-5.24-1.33-10.84-.71-16.25-1.53,0-3.06,0-4.59-.01-1.22,5.38-2,10.89-1.17,16.16Z"/>
        <path class="cls-4" d="m364.53,17.69c2.15.04,4.28.07,6.4.11-1.28-5.22-1.06-10.78-.42-16.15-1.52-.01-3.02-.02-4.53-.02-.06.2-.1.42-.15.62-1.16,5.15-1.92,10.4-1.3,15.44Z"/>
        <path class="cls-4" d="m178.54,15.42c-.95-4.28-.93-8.75-.53-13.18-1.72.02-3.43.04-5.13.04-.9,4.38-1.44,8.79-1.01,13.08,2.22,0,4.43.04,6.67.06Z"/>
        <path class="cls-4" d="m180.78,15.43c2.85.02,5.71.06,8.58.08-.29-3.75-.02-7.56.44-11.27.09-.7.19-1.4.3-2.1-2.86.03-5.7.05-8.53.07-.88,4.42-1.36,8.89-.79,13.22Z"/>
        <path class="cls-4" d="m391.66,18.1c3.28.05,6.54.11,9.74.15-1.21-5.22-.96-10.76-.28-16.1l.05-.34c-2.34-.01-4.67-.03-7-.05-.34,1.32-.69,2.67-1,4-.94,4.1-1.62,8.26-1.52,12.34Z"/>
        <path class="cls-4" d="m191.99,15.54c3.31.02,6.65.06,9.99.09-.78-4.47-.62-9.08-.13-13.61-2.58.03-5.13.04-7.66.08-.22.82-.42,1.66-.62,2.48-.83,3.63-1.48,7.31-1.58,10.95Z"/>
        <path class="cls-4" d="m333.7,17.25c2.17.02,4.32.06,6.48.09-1.32-5.1-1.2-10.52-.61-15.8-1.57,0-3.12,0-4.67,0-1.18,5.25-1.95,10.59-1.2,15.71Z"/>
        <path class="cls-4" d="m342.18,17.37c2.69.04,5.39.08,8.08.11-.41-4.07-.14-8.24.38-12.3.16-1.2.33-2.41.52-3.6-2.69-.01-5.36-.01-8.03,0-1.16,5.28-1.83,10.65-.94,15.8Z"/>
        <path class="cls-4" d="m221.86,15.84c2.81.04,5.63.06,8.45.1-.3-3.8-.03-7.69.44-11.47.12-.9.24-1.78.38-2.66-2.82.03-5.63.05-8.41.05-.97,4.68-1.5,9.41-.87,13.98Z"/>
        <path class="cls-4" d="m352.7,17.51c3.27.06,6.53.1,9.75.15-1.1-5.14-.83-10.54-.2-15.77l.04-.27c-2.35-.02-4.71-.03-7.06-.03-.37,1.32-.7,2.63-.99,3.95-.92,3.96-1.58,8-1.54,11.98Z"/>
        <path class="cls-3" d="m511.39,85.99c4.16.08,6.36-2.28,7.1-5.33-3.04-4.4-8.82-7-13.55-9.21-18.72-8.75-41.25-11.8-62.21-14.98-70.02-10.64-143.37-11.32-218.18-11.69-50.52-.25-102.85,1.67-154.83,11.61-14.83,2.84-33.61,6.13-46.65,14.94-7.09,4.79-14.81,16.76-4.75,21.55.31.56.49,1.04.58,1.45,2.38,1.14,4.88,2.11,7.33,2.98,165.69,2.96,325.65,6.21,476.98-7.13,1.78-2.46,4.6-4.26,8.17-4.19Z"/>
        <path class="cls-3" d="m520.96,65.24c-.57,1.84-1.11,4.05-.71,5.88l.84-.11c1.89,3.04,4.37,6.11,3.86,10.03-.59,4.62-7.16,6.92-7.77,10.93-1.06,7.06,7.72,6.99,12.77,4.63,16.98-7.96,7.15-37.33-8.99-31.35Z"/>
        <path class="cls-2" d="m20.5,14.93c-.16,4.98.2,10,1.88,14.68.15.45.68.7,1.2.56.51-.14.85-.57.82-1.04l-.03-.16c-1.07-4.54-.92-9.29-.24-14.05.17-1.15.36-2.29.57-3.45.44-2.32.96-4.65,1.54-6.96-1.7.03-3.3.06-4.78.1-.33,2.21-.58,4.42-.76,6.65-.09,1.22-.17,2.44-.2,3.67Z"/>
        <path class="cls-2" d="m62.57,14.78c.18,3.34.71,6.64,1.83,9.8.16.44.67.7,1.2.56.54-.16.89-.68.78-1.2v-.02c-.71-2.96-.87-6.03-.7-9.13.11-2.75.51-5.51,1.02-8.24.18-.94.36-1.87.59-2.8-1.46,0-2.89.04-4.29.07-.09.84-.18,1.68-.25,2.52-.21,2.8-.32,5.64-.17,8.45Z"/>
        <path class="cls-2" d="m32.3,14.85c.27,2.53.78,5.01,1.64,7.4.17.44.68.7,1.21.56.55-.16.9-.68.79-1.21v-.02c-.53-2.2-.75-4.48-.76-6.76-.05-3.48.4-7.04,1.05-10.55-1.37.05-2.71.07-3.99.09-.25,3.48-.32,7.02.07,10.48Z"/>
        <path class="cls-2" d="m41.58,14.81c.29,2.17.77,4.3,1.51,6.36.17.44.68.7,1.19.56.57-.16.91-.68.8-1.21l-.02-.02c-.43-1.88-.66-3.77-.72-5.71-.13-3.52.25-7.13.88-10.68-1.33.02-2.63.06-3.88.08-.23,3.53-.25,7.11.23,10.61Z"/>
        <path class="cls-2" d="m50.87,14.8c.29,1.8.73,3.58,1.35,5.3.15.45.68.7,1.19.56.57-.16.91-.68.78-1.2v-.02c-.35-1.53-.58-3.08-.69-4.65-.23-3.56.11-7.21.69-10.83-1.29.02-2.54.05-3.77.06-.18,3.59-.13,7.24.46,10.78Z"/>
        <path class="cls-2" d="m105.32,14.91c.24,2.74.75,5.44,1.66,8.01.16.46.67.71,1.19.57.54-.16.9-.69.77-1.19v-.02c-.57-2.39-.77-4.86-.74-7.36.03-3.27.48-6.61,1.09-9.91.12-.66.26-1.3.4-1.94-1.39.01-2.77.03-4.14.06-.07.56-.11,1.1-.16,1.65-.26,3.35-.35,6.76-.06,10.12Z"/>
        <path class="cls-2" d="m75.5,14.8c.29,1.98.74,3.91,1.41,5.79.17.46.67.71,1.2.58.54-.16.91-.7.78-1.2v-.02c-.4-1.69-.62-3.41-.72-5.15-.2-3.7.23-7.51.9-11.28-1.3.02-2.6.04-3.86.08-.24,3.72-.25,7.52.3,11.2Z"/>
        <path class="cls-2" d="m84.72,14.81c.29,1.59.68,3.18,1.22,4.72.16.46.67.71,1.19.58.54-.16.9-.7.78-1.2v-.02c-.32-1.34-.53-2.7-.63-4.07-.34-3.75,0-7.6.65-11.43-1.26.02-2.51.05-3.75.07-.21,3.78-.14,7.62.55,11.36Z"/>
        <path class="cls-2" d="m93.94,14.85c.25,1.22.59,2.43,1.01,3.61.16.46.67.71,1.19.58.54-.16.88-.69.77-1.19v-.02c-.23-.98-.41-1.96-.53-2.95-.46-3.81-.19-7.72.4-11.63-1.23.03-2.43.04-3.62.07-.19,3.87-.04,7.79.77,11.54Z"/>
        <path class="cls-2" d="m147.87,15.17c.15,2.35.54,4.66,1.21,6.93.12.46.62.73,1.12.61.55-.12.93-.64.82-1.16v-.02c-.37-2.09-.49-4.21-.44-6.35.12-3.59.77-7.24,1.58-10.83.14-.62.3-1.22.45-1.84-1.37.01-2.72.03-4.07.04-.09.47-.14.95-.21,1.43-.47,3.7-.73,7.47-.46,11.18Z"/>
        <path class="cls-2" d="m118.79,14.97c.19,1.21.47,2.4.81,3.57.14.46.63.73,1.15.62.56-.14.92-.64.83-1.16v-.02c-.17-.99-.31-2-.37-3-.29-3.98.2-8.05,1.04-12.08-1.23.01-2.45.03-3.66.06-.39,4-.47,8.08.21,12.02Z"/>
        <path class="cls-2" d="m127.88,15.03c.17.95.4,1.89.67,2.83.12.44.62.71,1.12.6.52-.12.86-.56.83-1.03v-.13c-.15-.75-.25-1.51-.31-2.25-.41-4.03.06-8.16.87-12.27-1.22.01-2.41.02-3.61.04-.35,4.09-.36,8.22.43,12.21Z"/>
        <path class="cls-2" d="m136.92,15.1c.14.7.31,1.39.53,2.08.14.46.62.73,1.14.61.53-.14.91-.66.82-1.16v-.02c-.09-.5-.17-1-.22-1.51-.5-4.07-.12-8.28.66-12.43-1.18,0-2.36.02-3.52.03-.32,4.15-.28,8.35.59,12.39Z"/>
        <path class="cls-2" d="m189.36,15.51c.15,2.28.52,4.54,1.16,6.73.14.44.61.71,1.12.59.53-.12.9-.63.81-1.13l-.02-.02c-.36-2.02-.48-4.07-.44-6.14.1-3.64.75-7.32,1.58-10.95.2-.82.4-1.66.62-2.48-1.37,0-2.74.01-4.1.03-.11.7-.21,1.4-.3,2.1-.46,3.72-.72,7.52-.44,11.27Z"/>
        <path class="cls-2" d="m160.64,15.26c.2,1.16.46,2.31.79,3.44.12.44.62.71,1.11.6.55-.12.91-.64.82-1.13v-.02c-.17-.94-.3-1.89-.35-2.85-.34-4.24.24-8.6,1.17-12.9-1.23.02-2.46.01-3.69.03-.45,4.28-.57,8.64.15,12.84Z"/>
        <path class="cls-2" d="m169.61,15.34c.15.91.37,1.79.63,2.67.14.46.62.73,1.13.61.53-.14.9-.63.82-1.15l-.02-.02c-.12-.69-.23-1.39-.29-2.09-.43-4.29.1-8.7,1.01-13.08-1.21.03-2.43.03-3.64.04-.41,4.34-.46,8.77.37,13.01Z"/>
        <path class="cls-2" d="m178.54,15.42c.13.64.3,1.27.49,1.9.14.46.61.73,1.12.61.51-.12.85-.57.82-1.04v-.11c-.09-.46-.15-.91-.2-1.36-.57-4.32-.09-8.79.79-13.22l-3.56.03c-.4,4.42-.42,8.89.53,13.18Z"/>
        <path class="cls-2" d="m230.32,15.94c.16,2.18.52,4.31,1.12,6.42.14.45.6.72,1.11.6.54-.12.89-.63.8-1.14v-.02c-.35-1.92-.46-3.89-.43-5.85.08-3.7.72-7.43,1.57-11.12.24-1.02.49-2.04.77-3.04-1.37.02-2.75.02-4.12.02-.14.88-.26,1.76-.38,2.66-.47,3.79-.75,7.67-.44,11.47Z"/>
        <path class="cls-2" d="m201.98,15.64c.17,1.08.42,2.16.73,3.2.14.45.61.72,1.12.61.53-.12.89-.63.79-1.14v-.02c-.14-.87-.27-1.74-.34-2.62-.36-4.5.31-9.12,1.31-13.67-1.25,0-2.5.02-3.74.02-.49,4.53-.65,9.14.13,13.61Z"/>
        <path class="cls-2" d="m210.83,15.73c.16.83.36,1.64.59,2.44.14.44.61.7,1.11.59.54-.12.89-.63.81-1.13v-.02c-.11-.62-.2-1.24-.26-1.87-.5-4.55.1-9.2,1.09-13.82-1.23.02-2.44.02-3.65.03-.48,4.59-.58,9.29.31,13.77Z"/>
        <path class="cls-2" d="m219.71,15.83c.11.56.25,1.11.41,1.66.12.45.61.72,1.09.61.54-.14.89-.63.81-1.14v-.02c-.06-.37-.12-.73-.16-1.1-.63-4.56-.1-9.3.87-13.98-1.21.02-2.4.03-3.59.04-.46,4.66-.5,9.41.56,13.92Z"/>
        <path class="cls-2" d="m270.78,16.42c.17,2.06.52,4.09,1.09,6.08.14.45.61.71,1.09.58.53-.12.88-.63.79-1.12v-.02c-.32-1.82-.44-3.67-.43-5.51.04-3.78.69-7.6,1.56-11.35.27-1.16.56-2.32.87-3.47-1.37,0-2.75,0-4.11,0-.17,1.02-.32,2.06-.45,3.1-.48,3.85-.75,7.82-.43,11.71Z"/>
        <path class="cls-2" d="m242.83,16.08c.17.99.39,1.97.67,2.92.14.43.6.7,1.1.59.54-.12.88-.63.8-1.12v-.02c-.14-.77-.24-1.55-.3-2.34-.45-4.73.28-9.6,1.37-14.38-1.26,0-2.49.03-3.73.03-.57,4.76-.79,9.64.09,14.32Z"/>
        <path class="cls-2" d="m251.58,16.17c.13.72.3,1.44.51,2.15.14.45.62.72,1.1.6.53-.14.88-.63.8-1.14v-.02c-.08-.51-.17-1.04-.22-1.55-.58-4.76.09-9.67,1.17-14.52-1.23,0-2.45,0-3.67.02-.54,4.81-.71,9.75.3,14.46Z"/>
        <path class="cls-2" d="m260.35,16.28c.08.46.2.93.34,1.38.14.43.6.7,1.1.58.48-.11.81-.55.78-1.01v-.12c-.06-.26-.09-.53-.12-.79-.71-4.79-.1-9.78.94-14.67-1.19.02-2.39.01-3.58.01-.5,4.88-.58,9.88.55,14.62Z"/>
        <path class="cls-2" d="m310.78,16.92c.18,1.94.5,3.83,1.04,5.69.12.45.59.71,1.08.6.47-.11.8-.54.77-1v-.12c-.3-1.69-.43-3.4-.42-5.12.02-3.86.67-7.78,1.55-11.66.28-1.26.6-2.51.94-3.76-1.36-.02-2.72-.01-4.08,0-.2,1.13-.36,2.25-.5,3.39-.49,3.96-.75,8.03-.38,11.98Z"/>
        <path class="cls-2" d="m283.17,16.56c.16.86.35,1.73.6,2.57.14.45.59.71,1.09.6.53-.12.87-.62.79-1.13v-.02c-.11-.65-.2-1.32-.27-1.99-.48-4.87.27-9.91,1.41-14.85l.05-.18c-1.26,0-2.5.01-3.74.02-.61,4.97-.87,10.09.08,14.98Z"/>
        <path class="cls-2" d="m291.84,16.69c.12.59.27,1.2.45,1.78.12.43.59.7,1.08.58.51-.12.87-.62.77-1.11v-.02c-.08-.4-.14-.8-.18-1.21-.63-4.97.09-10.11,1.2-15.16-1.22,0-2.44,0-3.66,0-.56,5.03-.75,10.21.33,15.13Z"/>
        <path class="cls-2" d="m300.5,16.8c.07.33.16.67.26,1,.13.45.59.71,1.08.6.53-.14.87-.62.79-1.13v-.02s-.06-.44-.06-.44c-.8-4.98-.15-10.17.96-15.28-1.2,0-2.38,0-3.57.02-.56,5.08-.67,10.31.55,15.24Z"/>
        <path class="cls-2" d="m350.26,17.47c.2,1.78.51,3.54,1,5.27.13.44.58.71,1.06.58.5-.12.86-.62.78-1.1v-.02c-.26-1.54-.4-3.11-.41-4.69-.04-3.97.62-8.01,1.54-11.98.29-1.33.62-2.64.99-3.95-1.36,0-2.72,0-4.06,0-.19,1.19-.37,2.4-.52,3.6-.52,4.06-.79,8.23-.38,12.3Z"/>
        <path class="cls-2" d="m323.06,17.1c.13.75.32,1.47.52,2.19.11.43.59.69,1.06.58.52-.12.88-.62.78-1.11v-.02c-.08-.54-.17-1.08-.23-1.6-.55-4.97.22-10.11,1.36-15.15l.1-.46c-1.24,0-2.49,0-3.71,0v.09c-.66,5.14-.93,10.43.12,15.47Z"/>
        <path class="cls-2" d="m331.62,17.22c.1.47.21.93.35,1.39.13.44.58.71,1.07.6.5-.12.86-.62.78-1.12v-.02c-.05-.28-.08-.54-.12-.82-.74-5.12.02-10.46,1.2-15.71-1.22,0-2.43,0-3.63,0-.62,5.22-.83,10.58.35,15.67Z"/>
        <path class="cls-2" d="m340.18,17.35c.05.21.09.41.16.62.13.43.58.69,1.07.58.52-.12.86-.62.78-1.1v-.07c-.89-5.15-.22-10.52.94-15.8-1.18-.02-2.37-.02-3.55-.02-.6,5.28-.72,10.7.61,15.8Z"/>
        <path class="cls-2" d="m389.31,18.05c.19,1.63.49,3.22.93,4.8.13.44.57.7,1.05.59.48-.11.8-.56.77-1.01v-.1c-.24-1.39-.36-2.82-.4-4.24-.1-4.08.58-8.24,1.52-12.34.31-1.34.65-2.68,1-4-1.34,0-2.67-.01-4,0-.21,1.22-.4,2.44-.55,3.65-.52,4.19-.81,8.48-.32,12.66Z"/>
        <path class="cls-2" d="m362.45,17.66c.12.59.28,1.18.43,1.76.13.44.58.71,1.06.59.5-.11.85-.62.77-1.12l-.02-.02c-.07-.4-.13-.8-.17-1.2-.62-5.04.14-10.29,1.3-15.44.04-.2.09-.42.15-.62-1.23-.01-2.46-.02-3.69-.02l-.04.27c-.63,5.23-.9,10.63.2,15.77Z"/>
        <path class="cls-2" d="m370.93,17.8c.07.33.16.65.25.97.13.42.58.69,1.06.57.52-.12.85-.62.77-1.1v-.02s-.06-.42-.06-.42c-.83-5.27-.05-10.78,1.17-16.16-1.21-.01-2.4-.01-3.61,0-.64,5.37-.86,10.93.42,16.15Z"/>
        <path class="cls-2" d="m379.42,17.92l.05.19c.11.44.58.7,1.04.59.39-.1.68-.4.75-.76l.02-.35v-.02c-.88-5.17-.18-10.57.97-15.88-1.17,0-2.36,0-3.53-.01-.62,5.41-.75,11.01.71,16.25Z"/>
        <path class="cls-2" d="m427.9,18.67c.18,1.46.46,2.89.85,4.31.11.44.57.7,1.02.59.51-.13.84-.63.76-1.11v-.02c-.2-1.25-.34-2.51-.37-3.76-.16-4.21.53-8.5,1.49-12.7.31-1.31.63-2.61.97-3.92-1.31-.02-2.64-.03-3.95-.04-.21,1.2-.38,2.4-.53,3.61-.55,4.31-.82,8.75-.25,13.04Z"/>
        <path class="cls-2" d="m401.4,18.24c.08.45.19.89.32,1.33.13.42.57.7,1.05.57.51-.12.84-.61.77-1.09v-.02c-.05-.26-.08-.5-.11-.76-.73-5.15.04-10.53,1.24-15.77.04-.22.1-.45.16-.67-1.21-.01-2.43-.02-3.65-.03l-.05.34c-.68,5.35-.93,10.89.28,16.1Z"/>
        <path class="cls-2" d="m409.79,18.36c.03.19.09.36.13.54.11.44.57.7,1.03.59.51-.12.86-.6.76-1.09v-.03c-.91-5.37-.13-10.98,1.13-16.49-1.19,0-2.37-.01-3.56-.02-.67,5.5-.9,11.18.51,16.51Z"/>
        <path class="cls-2" d="m418.1,18.26l.12.25c.21.27.55.4.92.32.19-.04.37-.15.5-.31.2-.2.31-.49.26-.78v-.02c-.86-5.14-.19-10.52.95-15.79-1.17,0-2.33-.01-3.49-.03-.6,5.46-.74,11.1.73,16.36Z"/>
        <path class="cls-2" d="m466.04,19.28c.17,1.3.42,2.57.76,3.81.13.44.56.69,1.03.58.45-.11.76-.53.74-.98v-.12c-.18-1.09-.3-2.17-.36-3.27-.21-4.31.5-8.76,1.47-13.11.29-1.23.6-2.47.92-3.71-1.3-.02-2.59-.03-3.89-.04-.19,1.13-.36,2.27-.5,3.4-.53,4.46-.82,9.03-.18,13.44Z"/>
        <path class="cls-2" d="m439.89,18.84c.05.29.12.58.2.86.13.44.58.69,1.04.59.47-.11.78-.55.76-1v-.1s-.04-.31-.04-.31c-.84-5.26-.06-10.76,1.16-16.14.04-.2.09-.38.13-.57-1.2-.01-2.4-.02-3.58-.03l-.04.25c-.68,5.47-.95,11.14.38,16.46Z"/>
        <path class="cls-2" d="m448.18,18.99l.02.07c.13.42.56.68,1.03.57.33-.08.58-.32.69-.61.06-.15.07-.3.05-.48v-.02c-.9-5.3-.12-10.86,1.09-16.29-1.18,0-2.34-.01-3.51-.04-.66,5.6-.86,11.39.62,16.8Z"/>
        <path class="cls-2" d="m456.28,18.4c.13.44.56.69,1.03.58.5-.12.83-.61.75-1.1v-.02c-.85-5.04-.19-10.32.94-15.52-1.14-.02-2.28-.03-3.43-.05-.61,5.38-.73,10.93.71,16.1Z"/>
        <path class="cls-2" d="m503.7,19.93c.17,1.12.4,2.21.69,3.29.12.43.55.69,1.01.58.5-.13.82-.62.74-1.09v-.02c-.15-.9-.26-1.81-.3-2.72-.3-4.46.41-9.06,1.42-13.55.26-1.12.53-2.24.82-3.35-1.26-.03-2.54-.05-3.81-.07-.16,1.02-.32,2.04-.44,3.06-.58,4.58-.85,9.32-.15,13.86Z"/>
        <path class="cls-2" d="m477.93,19.48l.09.37c.11.44.56.69,1.02.57.43-.11.73-.49.72-.89v-.19s0-.02,0-.02c-.89-5.31-.1-10.9,1.12-16.34l.09-.34c-1.17-.03-2.36-.04-3.54-.05v.03c-.69,5.6-.94,11.42.49,16.85Z"/>
        <path class="cls-2" d="m486.02,19.19c.06.18.16.33.3.43.18.15.45.22.72.15l.31-.14h.02c.3-.2.48-.58.42-.95v-.02c-.86-5.17-.15-10.59,1.04-15.91-1.15-.01-2.3-.03-3.45-.06-.64,5.51-.81,11.18.65,16.5Z"/>
        <path class="cls-2" d="m494,18.55c.12.42.57.67,1.02.56.5-.11.82-.6.75-1.08v-.02c-.81-4.94-.21-10.08.86-15.14-1.11-.04-2.24-.05-3.35-.05-.58,5.26-.66,10.66.73,15.73Z"/>
        <path class="cls-2" d="m540.96,20.61c.15.92.34,1.83.59,2.72.12.43.55.69,1,.58.46-.11.76-.54.74-.99v-.1c-.12-.72-.21-1.45-.26-2.18-.39-4.6.33-9.35,1.37-14.01.21-.95.44-1.89.69-2.83-1.23-.02-2.46-.05-3.71-.07-.13.84-.24,1.69-.36,2.55-.6,4.76-.86,9.66-.06,14.33Z"/>
        <path class="cls-2" d="m515.48,19.98l.08.16c.17.34.54.52.93.42.24-.06.44-.21.57-.4.13-.17.19-.39.18-.59v-.1c-.88-5.28-.11-10.8,1.1-16.2-1.16-.03-2.29-.04-3.43-.08-.68,5.6-.9,11.38.58,16.79Z"/>
        <path class="cls-2" d="m523.39,19.34c.12.41.55.69,1.01.56.49-.11.81-.6.74-1.07v-.02c-.82-5-.18-10.26.93-15.41-1.12-.03-2.24-.05-3.36-.07-.61,5.34-.72,10.84.68,16Z"/>
        <path class="cls-2" d="m531.3,18.69c.11.43.55.69,1,.58.47-.11.81-.6.72-1.09v-.02c-.77-4.75-.22-9.71.76-14.61-1.08-.02-2.16-.04-3.24-.06-.53,5.1-.57,10.3.76,15.2Z"/>
      </g>
      <path class="cls-1" d="m550.8,3.93c-1.9-.04-3.79-.09-5.71-.13-1.23-.02-2.46-.05-3.71-.07-2.54-.06-5.05-.11-7.59-.17-1.08-.02-2.16-.04-3.24-.06-1.49-.02-2.99-.06-4.47-.08-1.12-.03-2.24-.05-3.36-.07-1.46-.03-2.93-.05-4.38-.08-1.16-.03-2.29-.04-3.43-.08-2.28-.03-4.54-.08-6.81-.11-1.26-.03-2.54-.05-3.81-.07-2.55-.05-5.11-.1-7.66-.13-1.11-.04-2.24-.05-3.35-.05-1.49-.02-2.97-.05-4.45-.08-1.15-.01-2.3-.03-3.45-.06-1.46-.01-2.93-.04-4.39-.05-1.17-.03-2.36-.04-3.54-.05-2.27-.03-4.56-.07-6.84-.1-1.3-.02-2.59-.03-3.89-.04-2.58-.05-5.14-.08-7.72-.1-1.14-.02-2.28-.03-3.43-.05-1.49,0-3.01-.03-4.5-.06-1.18,0-2.34-.01-3.51-.04-1.48-.01-2.96-.02-4.43-.04-1.2-.01-2.4-.02-3.58-.03-2.32-.03-4.62-.05-6.92-.07-1.31-.02-2.64-.03-3.95-.04-2.63-.03-5.23-.05-7.83-.08-1.17,0-2.33-.01-3.49-.03-1.51,0-3.03-.02-4.52-.03-1.19,0-2.37-.01-3.56-.02-1.48-.01-2.98-.02-4.46-.02-1.21-.01-2.43-.02-3.65-.03-2.34-.01-4.67-.03-7-.05-1.34,0-2.67-.01-4,0-2.66-.03-5.3-.05-7.94-.06-1.17,0-2.36,0-3.53-.01-1.53,0-3.06,0-4.59-.01-1.21-.01-2.4-.01-3.61,0-1.52-.01-3.02-.02-4.53-.02-1.23-.01-2.46-.02-3.69-.02-2.35-.02-4.71-.03-7.06-.03-1.36,0-2.72,0-4.06,0-2.69-.01-5.36-.01-8.03,0-1.18-.02-2.37-.02-3.55-.02-1.57,0-3.12,0-4.67,0-1.22,0-2.43,0-3.63,0-1.55,0-3.09-.02-4.62-.01-1.24,0-2.49,0-3.71,0-2.42,0-4.82,0-7.2,0-1.36-.02-2.72-.01-4.08,0-2.72-.01-5.43-.01-8.13,0-1.2,0-2.38,0-3.57.02-1.59,0-3.19,0-4.78,0-1.22,0-2.44,0-3.66,0-1.57,0-3.13.01-4.68,0-1.26,0-2.5.01-3.74.02-2.47,0-4.9,0-7.33.03-1.37,0-2.75,0-4.11,0-2.77,0-5.53.03-8.27.03-1.19.02-2.39.01-3.58.01-1.62.01-3.25.03-4.86.04-1.23,0-2.45,0-3.67.02-1.61,0-3.22,0-4.81.01-1.26,0-2.49.03-3.73.03-2.51,0-4.99.03-7.48.04-1.37.02-2.75.02-4.12.02-2.82.03-5.63.05-8.41.05-1.21.02-2.4.03-3.59.04-1.66,0-3.33.01-4.97.03-1.23.02-2.44.02-3.65.03-1.65.01-3.3.03-4.93.04-1.25,0-2.5.02-3.74.02-2.58.03-5.13.04-7.66.08-1.37,0-2.74.01-4.1.03-2.86.03-5.7.05-8.53.07l-3.56.03c-1.72.02-3.43.04-5.13.04-1.21.03-2.43.03-3.64.04-1.71.02-3.38.05-5.07.06-1.23.02-2.46.01-3.69.03-2.65.04-5.27.07-7.87.1-1.37.01-2.72.03-4.07.04-2.93.03-5.83.08-8.69.12-1.18,0-2.36.02-3.52.03-1.78.02-3.53.04-5.27.08-1.22.01-2.41.02-3.61.04-1.75.02-3.48.04-5.21.07-1.23.01-2.45.03-3.66.06-3.02.02-5.98.07-8.91.12-1.39.01-2.77.03-4.14.06-2.97.03-5.89.08-8.75.11-1.23.03-2.43.04-3.62.07-1.77.02-3.51.06-5.24.07-1.26.02-2.51.05-3.75.07-1.73.02-3.44.05-5.12.08-1.3.02-2.6.04-3.86.08-2.72.04-5.35.08-7.91.14-1.46,0-2.89.04-4.29.07-3.05.04-5.98.1-8.82.15-1.29.02-2.54.05-3.77.06-1.79.04-3.52.07-5.19.1-1.33.02-2.63.06-3.88.08-1.77.04-3.49.07-5.12.09-1.37.05-2.71.07-3.99.09-2.14.04-4.11.08-5.99.13-1.7.03-3.3.06-4.78.1-9.52.2-14.65.32-14.65.32-.73,3.33-1.36,6.74-1.92,10.17-6.75,41.7-1.24,89.32-1.24,89.32,218.24,4.71,546.62-1.54,546.62-1.54l4.78-8.47,1.28-83.36-5.53-7.12Z"/>
    </g>
  </g>
</svg>