<?xml version="1.0" encoding="UTF-8"?>
<svg xmlns="http://www.w3.org/2000/svg" xmlns:xlink="http://www.w3.org/1999/xlink" viewBox="0 0 276.66 767.67">
  <defs>
    <style>
      .cls-1 {
        fill: url(#linear-gradient-3);
      }

      .cls-1, .cls-2, .cls-3, .cls-4, .cls-5, .cls-6, .cls-7, .cls-8, .cls-9, .cls-10, .cls-11, .cls-12, .cls-13, .cls-14, .cls-15, .cls-16, .cls-17, .cls-18 {
        mix-blend-mode: multiply;
      }

      .cls-19 {
        fill: #4f230c;
      }

      .cls-20 {
        fill: #fff;
      }

      .cls-2 {
        fill: #999;
      }

      .cls-21 {
        filter: url(#luminosity-noclip-7);
      }

      .cls-22 {
        fill: #f2a57f;
      }

      .cls-23 {
        fill: #ce7754;
      }

      .cls-3 {
        fill: url(#linear-gradient-2);
        opacity: .8;
      }

      .cls-4 {
        fill: url(#linear-gradient);
      }

      .cls-24 {
        fill: #51a1b0;
      }

      .cls-25 {
        fill: #fd827e;
      }

      .cls-26 {
        filter: url(#luminosity-noclip-5);
      }

      .cls-27 {
        fill: #f5f5f5;
      }

      .cls-5, .cls-7, .cls-10, .cls-14 {
        opacity: .6;
      }

      .cls-5, .cls-28 {
        fill: #c7c7c7;
      }

      .cls-29 {
        fill: #3b0a07;
      }

      .cls-30 {
        mask: url(#mask-2);
      }

      .cls-31 {
        fill: #3467b3;
      }

      .cls-6 {
        fill: url(#radial-gradient-4);
      }

      .cls-6, .cls-9 {
        opacity: .5;
      }

      .cls-32 {
        isolation: isolate;
      }

      .cls-33 {
        mask: url(#mask-3);
      }

      .cls-34 {
        fill: #f7b0ad;
      }

      .cls-7 {
        fill: url(#linear-gradient-4);
      }

      .cls-35 {
        fill: #cfb18e;
      }

      .cls-8 {
        fill: url(#radial-gradient);
      }

      .cls-36 {
        fill: #ff5ccd;
      }

      .cls-37 {
        fill: #0d0200;
      }

      .cls-38 {
        clip-path: url(#clippath-1);
      }

      .cls-39, .cls-12 {
        fill: #e6e6e6;
      }

      .cls-40 {
        fill: #7a357a;
      }

      .cls-41 {
        mask: url(#mask-5);
      }

      .cls-42 {
        fill: #42210b;
      }

      .cls-43 {
        fill: #3667b0;
      }

      .cls-44 {
        fill: #fdc18f;
      }

      .cls-45 {
        fill: #30558f;
      }

      .cls-46 {
        fill: #8f431d;
      }

      .cls-47 {
        fill: #9e2021;
      }

      .cls-48 {
        fill: #8dcbd9;
      }

      .cls-49 {
        fill: #ff94c3;
        mix-blend-mode: screen;
      }

      .cls-50 {
        mask: url(#mask-4);
      }

      .cls-51 {
        clip-path: url(#clippath);
      }

      .cls-52 {
        fill: none;
      }

      .cls-53 {
        fill: #701611;
      }

      .cls-54 {
        mask: url(#mask-6);
      }

      .cls-55 {
        fill: #4d210b;
      }

      .cls-56 {
        fill: #964197;
      }

      .cls-9 {
        fill: url(#radial-gradient-2);
      }

      .cls-57 {
        fill: #6b1a18;
      }

      .cls-11 {
        fill: #82c0cc;
      }

      .cls-11, .cls-13 {
        opacity: .4;
      }

      .cls-58 {
        fill: #751717;
      }

      .cls-59 {
        filter: url(#luminosity-noclip);
      }

      .cls-60 {
        mask: url(#mask-1);
      }

      .cls-61 {
        mask: url(#mask);
      }

      .cls-13 {
        fill: #3c507b;
      }

      .cls-62 {
        mask: url(#mask-7);
      }

      .cls-14 {
        fill: #d15ca3;
      }

      .cls-63 {
        fill: #882318;
      }

      .cls-15 {
        fill: url(#radial-gradient-3);
      }

      .cls-64 {
        fill: #666;
      }

      .cls-65 {
        fill: #f2f2f2;
      }

      .cls-66 {
        fill: #e342b2;
      }

      .cls-67, .cls-17 {
        fill: #703517;
      }

      .cls-68 {
        filter: url(#luminosity-noclip-3);
      }

      .cls-17 {
        opacity: .3;
      }

      .cls-69 {
        fill: #002949;
        opacity: .15;
      }

      .cls-18 {
        fill: #ccc;
      }
    </style>
    <filter id="luminosity-noclip" x="134.17" y="127.37" width="45.86" height="46.99" color-interpolation-filters="sRGB" filterUnits="userSpaceOnUse">
      <feFlood flood-color="#fff" result="bg"/>
      <feBlend in="SourceGraphic" in2="bg"/>
    </filter>
    <filter id="luminosity-noclip-2" x="134.17" y="-8318.3" width="45.86" height="32766" color-interpolation-filters="sRGB" filterUnits="userSpaceOnUse">
      <feFlood flood-color="#fff" result="bg"/>
      <feBlend in="SourceGraphic" in2="bg"/>
    </filter>
    <mask id="mask-1" x="134.17" y="-8318.3" width="45.86" height="32766" maskUnits="userSpaceOnUse"/>
    <radialGradient id="radial-gradient" cx="4024.79" cy="392.28" fx="4024.79" fy="392.28" r="22.92" gradientTransform="translate(-3857.27 651.68) rotate(-12.81) scale(1 1.02) skewX(-.6)" gradientUnits="userSpaceOnUse">
      <stop offset="0" stop-color="#fff"/>
      <stop offset=".08" stop-color="#f6f6f6"/>
      <stop offset=".22" stop-color="#ddd"/>
      <stop offset=".4" stop-color="#b5b5b5"/>
      <stop offset=".6" stop-color="#7e7e7e"/>
      <stop offset=".83" stop-color="#393939"/>
      <stop offset="1" stop-color="#000"/>
    </radialGradient>
    <mask id="mask" x="134.17" y="127.37" width="45.86" height="46.99" maskUnits="userSpaceOnUse">
      <g class="cls-59">
        <g class="cls-60">
          <ellipse class="cls-8" cx="157.1" cy="150.87" rx="22.92" ry="23.49"/>
        </g>
      </g>
    </mask>
    <radialGradient id="radial-gradient-2" cx="4024.79" cy="392.28" fx="4024.79" fy="392.28" r="22.92" gradientTransform="translate(-3857.27 651.68) rotate(-12.81) scale(1 1.02) skewX(-.6)" gradientUnits="userSpaceOnUse">
      <stop offset="0" stop-color="#f69d76"/>
      <stop offset=".13" stop-color="#f6a37e"/>
      <stop offset=".35" stop-color="#f8b497"/>
      <stop offset=".63" stop-color="#fad1be"/>
      <stop offset=".95" stop-color="#fef8f5"/>
      <stop offset="1" stop-color="#fff"/>
    </radialGradient>
    <clipPath id="clippath">
      <path class="cls-52" d="m76.39,181.47c2.18-2.32,4.15-4.83,5.92-7.5,2.51-3.8,4.57-7.8,5.73-12.25,1.09-4.2,1.4-8.65.67-12.94-.74-4.36-2.53-8.68-5.34-12.08-2.78-3.37-6.85-5.31-10.59-7.31-2.78-1.49-5.77-2.59-8.81-3.39-1.65-.43-3.34-.78-5.04-.82-.69-.02-1.45,0-2.16.17-.16,7.83-3.7,10.72-5.04,17.89-1.87,9.93.22,27.06,24.66,38.24Z"/>
    </clipPath>
    <filter id="luminosity-noclip-3" x="42.21" y="128.08" width="45.86" height="64.36" color-interpolation-filters="sRGB" filterUnits="userSpaceOnUse">
      <feFlood flood-color="#fff" result="bg"/>
      <feBlend in="SourceGraphic" in2="bg"/>
    </filter>
    <filter id="luminosity-noclip-4" x="42.21" y="-8318.3" width="45.86" height="32766" color-interpolation-filters="sRGB" filterUnits="userSpaceOnUse">
      <feFlood flood-color="#fff" result="bg"/>
      <feBlend in="SourceGraphic" in2="bg"/>
    </filter>
    <mask id="mask-3" x="42.21" y="-8318.3" width="45.86" height="32766" maskUnits="userSpaceOnUse"/>
    <radialGradient id="radial-gradient-3" cx="3934.87" cy="373.04" fx="3934.87" fy="373.04" r="22.92" xlink:href="#radial-gradient"/>
    <mask id="mask-2" x="42.21" y="128.08" width="45.86" height="64.36" maskUnits="userSpaceOnUse">
      <g class="cls-68">
        <g class="cls-33">
          <ellipse class="cls-15" cx="65.14" cy="151.57" rx="22.92" ry="23.49"/>
        </g>
      </g>
    </mask>
    <radialGradient id="radial-gradient-4" cx="3931.48" cy="378.96" fx="3931.48" fy="378.96" r="27.61" xlink:href="#radial-gradient-2"/>
    <filter id="luminosity-noclip-5" x="193.44" y="116.48" width="17.8" height="23.2" color-interpolation-filters="sRGB" filterUnits="userSpaceOnUse">
      <feFlood flood-color="#fff" result="bg"/>
      <feBlend in="SourceGraphic" in2="bg"/>
    </filter>
    <filter id="luminosity-noclip-6" x="193.44" y="-8318.3" width="17.8" height="32766" color-interpolation-filters="sRGB" filterUnits="userSpaceOnUse">
      <feFlood flood-color="#fff" result="bg"/>
      <feBlend in="SourceGraphic" in2="bg"/>
    </filter>
    <mask id="mask-5" x="193.44" y="-8318.3" width="17.8" height="32766" maskUnits="userSpaceOnUse"/>
    <linearGradient id="linear-gradient" x1="6698.32" y1="-2232.43" x2="6695.81" y2="-2210.4" gradientTransform="translate(-6852.02 338.98) rotate(16.67)" gradientUnits="userSpaceOnUse">
      <stop offset="0" stop-color="#fff"/>
      <stop offset=".96" stop-color="#000"/>
    </linearGradient>
    <mask id="mask-4" x="193.44" y="116.48" width="17.8" height="23.2" maskUnits="userSpaceOnUse">
      <g class="cls-26">
        <g class="cls-41">
          <path class="cls-4" d="m195.1,124.82c.64-3.52,2.72-7.07,6.07-8.08,4.14-1.25,8.68,2.16,9.75,6.44,1.08,4.29-.67,8.9-3.47,12.27-2.57,3.09-6.94,5.46-10.43,3.53-2.67-1.47-3.71-4.93-3.57-8.03.14-3.1,1.65-6.13,1.65-6.13Z"/>
        </g>
      </g>
    </mask>
    <linearGradient id="linear-gradient-2" x1="6698.32" y1="-2232.43" x2="6695.81" y2="-2210.4" gradientTransform="translate(-6852.02 338.98) rotate(16.67)" gradientUnits="userSpaceOnUse">
      <stop offset="0" stop-color="#f69d76"/>
      <stop offset=".96" stop-color="#fff"/>
    </linearGradient>
    <filter id="luminosity-noclip-7" x="96.13" y="124.49" width="23.73" height="25.66" color-interpolation-filters="sRGB" filterUnits="userSpaceOnUse">
      <feFlood flood-color="#fff" result="bg"/>
      <feBlend in="SourceGraphic" in2="bg"/>
    </filter>
    <filter id="luminosity-noclip-8" x="96.13" y="-8318.3" width="23.73" height="32766" color-interpolation-filters="sRGB" filterUnits="userSpaceOnUse">
      <feFlood flood-color="#fff" result="bg"/>
      <feBlend in="SourceGraphic" in2="bg"/>
    </filter>
    <mask id="mask-7" x="96.13" y="-8318.3" width="23.73" height="32766" maskUnits="userSpaceOnUse"/>
    <linearGradient id="linear-gradient-3" x1="9379.24" y1="-2748.81" x2="9367.84" y2="-2741.32" gradientTransform="translate(-9580.63 -1124.85) rotate(23.75)" gradientUnits="userSpaceOnUse">
      <stop offset=".04" stop-color="#000"/>
      <stop offset="1" stop-color="#fff"/>
    </linearGradient>
    <mask id="mask-6" x="96.13" y="124.49" width="23.73" height="25.66" maskUnits="userSpaceOnUse">
      <g class="cls-21">
        <g class="cls-62">
          <path class="cls-1" d="m106.49,124.49s.3,10.15-9.27,14.47c0,0-3.38,2.06,1.74,6.07,5.12,4.01,14.97,5.12,14.97,5.12,0,0,17.4-15.65-7.45-25.66Z"/>
        </g>
      </g>
    </mask>
    <linearGradient id="linear-gradient-4" x1="9379.24" y1="-2748.81" x2="9367.84" y2="-2741.32" gradientTransform="translate(-9580.63 -1124.85) rotate(23.75)" gradientUnits="userSpaceOnUse">
      <stop offset=".04" stop-color="#fff"/>
      <stop offset="1" stop-color="#f69d76"/>
    </linearGradient>
    <clipPath id="clippath-1">
      <path class="cls-58" d="m95.6,160.39s12.48,5.2,32.24-.85c0,0-.23,13.99-14.58,15.27-1.05.09-6.81.29-9.92-2.13-3.11-2.43-4.28-8.54-7.74-12.29Z"/>
    </clipPath>
  </defs>
  <g class="cls-32">
    <g id="Layer_2" data-name="Layer 2">
      <g id="girl">
        <g>
          <ellipse class="cls-69" cx="155.63" cy="740.47" rx="121.03" ry="27.2"/>
          <g>
            <g>
              <g>
                <g>
                  <path class="cls-44" d="m82.11,530.16s.32,7.69,1.29,14.15c.97,6.46-2.26,21.31-3.56,27.44-1.29,6.13-.3,23.62,4.52,50.68,8.07,45.31,3.01,64.03-6.78,79.95-1.87,3.05-8.39,12.81-1.29,16.68,7.1,3.87,19.91,2.15,28.62.22,8.72-1.94,15.99-10.82,16.03-15.06.11-10.87-6.24-36.91-2.69-59.51s11.94-50.04,10.98-63.27c-.97-13.24-8.72-25.83-8.72-37.45s4.52-17.53.65-23.13c-3.87-5.6-40.03-8.72-39.06,9.3Z"/>
                  <path class="cls-22" d="m80.23,569.91c2.22,1.57,4.56,2.97,7,4.18,12.89,6.41,27.61,7.51,41.87,6.05-1.35-12.76-8.58-24.91-8.58-36.15s4.52-17.53.65-23.13c-3.87-5.6-40.03-8.72-39.06,9.3,0,0,.32,7.69,1.29,14.15.88,5.89-1.72,18.72-3.17,25.6Z"/>
                </g>
                <path class="cls-39" d="m117.36,653.42c-1,.33-2.02.62-3.04.88-3.96.99-8.1,1.46-12.18,1.18-2.71-.19-5.43-.71-8.06-1.36-1.91-.47-3.97-1.07-5.97-1.86,1.44,24.82-3.22,38.26-10.52,50.13-1.87,3.05-8.39,12.81-1.29,16.68,7.1,3.87,19.91,2.15,28.62.22,8.72-1.94,15.99-10.82,16.03-15.06.09-9.49-4.74-30.56-3.6-50.79Z"/>
              </g>
              <g>
                <path class="cls-42" d="m117.79,714.27c-4.32,1.73-5.62,4.1-6.69,9.72-1.08,5.62-4.97,14.47-17.93,16.2-12.96,1.73-25.44-.32-31.31-2.81-1.7-.72-6.44-3.38-8.28-5.69-2.4,10.49,4.36,15.75,8.28,17.41,5.88,2.49,18.36,4.54,31.31,2.81,12.96-1.73,16.85-10.58,17.93-16.2,1.08-5.61,2.38-7.99,6.69-9.72,4.32-1.73,5.62-9.07,5.62-17.06,0-1.82-.14-3.56-.36-5.14-.63,5.15-2.17,9.25-5.25,10.49Z"/>
                <path class="cls-35" d="m117.79,712.29c-4.32,1.73-5.62,4.1-6.69,9.72-1.08,5.62-4.97,14.47-17.93,16.2-12.96,1.73-25.44-.32-31.31-2.81-1.7-.72-6.44-3.38-8.28-5.69-2.4,10.49,4.36,15.75,8.28,17.41,5.88,2.49,18.36,4.54,31.31,2.81,12.96-1.73,16.85-10.58,17.93-16.2,1.08-5.62,2.38-7.99,6.69-9.72,4.32-1.73,5.62-9.07,5.62-17.06,0-1.82-.14-3.56-.36-5.14-.63,5.15-2.17,9.25-5.25,10.49Z"/>
                <path class="cls-27" d="m118,714.32c-4.32,1.73-5.62,4.1-6.69,9.72-1.08,5.62-4.97,14.47-17.93,16.2-12.96,1.73-25.44-.32-31.31-2.81-3.11-1.31-7.62-4.31-8.33-10.95-1.47,7.45,4.73,12.79,8.33,14.31,5.88,2.49,18.36,4.54,31.31,2.81,12.96-1.73,16.85-10.58,17.93-16.2,1.08-5.62,2.43-8.49,6.74-10.22,4.32-1.73,5.29-7.52,5.29-15.51,0-.48-.33-2.17-.35-2.64-.2,7.22-1.02,13.71-4.99,15.3Z"/>
                <path class="cls-40" d="m119.52,686.8s-.23,3.55-1.04,6.9c0,0,0,0,0,.01-1.01,8.02-13.54,18.38-19.06,19.96-7.42,2.13-21.25,1.31-22.51-3.35-1.58-5.84,7.21-18.6,9.66-22.02-.25.11-.63.11-.89.25-1.54.69-3.3,3.5-3.75,4.84-.7,2.11-8.69,16.95-20.06,24.07-16.2,10.16-4.75,19.59,0,21.6,5.88,2.49,18.36,4.54,31.31,2.81,12.96-1.73,16.85-10.58,17.93-16.2,1.08-5.62,2.38-7.99,6.69-9.72,4.32-1.73,5.62-9.07,5.62-17.06s-2.59-14.47-3.89-12.09Z"/>
                <path class="cls-40" d="m84.09,688.59c-1.29.32-1.93,3.08-4.15,7.67-.22.46.09,1.03.6,1.01,9.27-.21,23.75,1.59,28.56,9.96,1.54,3.48,1.89,3.96,2.87,3.55.79-.33,3.45-3.89,4.72-5.71.43-.61.54-1.39.31-2.11-3.72-11.69-21.4-19.11-32.92-14.38Z"/>
              </g>
            </g>
            <g>
              <g>
                <g>
                  <path class="cls-44" d="m158.62,525.91s6.46,11.62,3.87,27.12c-2.58,15.5,2.45,39.66,14.42,64.46,13.35,27.65,9.48,64.53,8.18,76.94-.82,7.81,5.71,12.59,12.54,18.72,6.83,6.13,11.67,16.14,22,13.56,10.33-2.58,20.88-6.03,15.39-14.1-5.49-8.07-16.96-25.24-20.01-41.32-3.01-15.89-4.09-51.11-2.47-65.96,1.61-14.85,2.26-35.83-8.07-52.62-10.33-16.79-7.1-14.85-9.36-25.5-2.26-10.65-30.05-23.48-36.48-1.29Z"/>
                  <path class="cls-22" d="m162.49,553.02c-1.11,6.63-.8,14.86.83,24.04,2.32-.25,4.62-.63,6.89-1.13,8.7-1.9,17.14-5.28,24.75-9.93,4.22-2.58,8.29-5.62,11.75-9.22-.69-1.38-1.43-2.75-2.26-4.09-10.33-16.79-7.1-14.85-9.36-25.5-2.26-10.65-30.05-23.48-36.48-1.29,0,0,6.46,11.62,3.87,27.12Z"/>
                </g>
                <path class="cls-39" d="m235.02,712.6c-5.49-8.07-16.96-25.24-20.01-41.32-1.09-5.76-1.93-14.08-2.48-23.03-5.5,2.38-11.47,3.18-17.51,2.98-3.16-.11-6.38-.45-9.41-1.37,2.16,18.97.31,36.69-.52,44.56-.82,7.81,5.71,12.59,12.54,18.72,6.83,6.13,11.67,16.14,22,13.56,10.33-2.58,20.88-6.03,15.39-14.1Z"/>
              </g>
              <g>
                <path class="cls-42" d="m187.67,714.27c4.32,1.73,5.62,4.1,6.69,9.72,1.08,5.62,4.97,14.47,17.93,16.2,12.96,1.73,25.44-.32,31.31-2.81,1.7-.72,6.44-3.38,8.28-5.69,2.4,10.49-4.36,15.75-8.28,17.41-5.88,2.49-18.36,4.54-31.31,2.81-12.96-1.73-16.85-10.58-17.93-16.2-1.08-5.61-2.38-7.99-6.69-9.72-4.32-1.73-5.62-9.07-5.62-17.06,0-1.82.14-3.56.36-5.14.63,5.15,2.17,9.25,5.25,10.49Z"/>
                <path class="cls-35" d="m187.67,712.29c4.32,1.73,5.62,4.1,6.69,9.72,1.08,5.62,4.97,14.47,17.93,16.2,12.96,1.73,25.44-.32,31.31-2.81,1.7-.72,6.44-3.38,8.28-5.69,2.4,10.49-4.36,15.75-8.28,17.41-5.88,2.49-18.36,4.54-31.31,2.81-12.96-1.73-16.85-10.58-17.93-16.2-1.08-5.62-2.38-7.99-6.69-9.72-4.32-1.73-5.62-9.07-5.62-17.06,0-1.82.14-3.56.36-5.14.63,5.15,2.17,9.25,5.25,10.49Z"/>
                <path class="cls-27" d="m187.45,714.32c4.32,1.73,5.62,4.1,6.69,9.72,1.08,5.62,4.97,14.47,17.93,16.2,12.96,1.73,25.44-.32,31.31-2.81,3.11-1.31,7.62-4.31,8.33-10.95,1.47,7.45-4.73,12.79-8.33,14.31-5.88,2.49-18.36,4.54-31.31,2.81-12.96-1.73-16.85-10.58-17.93-16.2-1.08-5.62-2.43-8.49-6.74-10.22-4.32-1.73-5.29-7.52-5.29-15.51,0-.48.33-2.17.35-2.64.2,7.22,1.02,13.71,4.99,15.3Z"/>
                <path class="cls-40" d="m185.94,686.8s.23,3.55,1.04,6.9c0,0,0,0,0,.01,1.01,8.02,13.54,18.38,19.06,19.96,7.42,2.13,21.25,1.31,22.51-3.35,1.58-5.84-7.21-18.6-9.66-22.02.25.11.63.11.89.25,1.54.69,3.3,3.5,3.75,4.84.7,2.11,8.69,16.95,20.06,24.07,16.2,10.16,4.75,19.59,0,21.6-5.88,2.49-18.36,4.54-31.31,2.81-12.96-1.73-16.85-10.58-17.93-16.2-1.08-5.62-2.38-7.99-6.69-9.72-4.32-1.73-5.62-9.07-5.62-17.06s2.59-14.47,3.89-12.09Z"/>
                <path class="cls-40" d="m221.37,688.59c1.29.32,1.93,3.08,4.15,7.67.22.46-.09,1.03-.6,1.01-9.27-.21-23.75,1.59-28.56,9.96-1.54,3.48-1.89,3.96-2.87,3.55-.79-.33-3.45-3.89-4.72-5.71-.43-.61-.54-1.39-.31-2.11,3.72-11.69,21.4-19.11,32.92-14.38Z"/>
              </g>
            </g>
          </g>
          <path class="cls-44" d="m216.24,293.74s11.62,31.37,14.04,33.63c2.42,2.26,23.4,7.1,27.44,6.13s10.45-5.13,9.16-11.75c-1.29-6.62-14.81-46.05-18.52-49.76-3.71-3.7-34.7,12.32-32.12,21.74Z"/>
          <path class="cls-22" d="m222.34,309.68c.51-.12,1.01-.24,1.51-.38,3.83-1.02,7.54-2.45,10.93-4.51,3.71-2.25,6.92-5.21,9.62-8.61,3.66-4.61,6.43-9.85,8.4-15.39-1.88-4.51-3.48-7.84-4.44-8.79-3.71-3.7-34.7,12.32-32.12,21.74,0,0,2.9,7.82,6.1,15.94Z"/>
          <path class="cls-44" d="m24.32,253.27s-11.41,41.45-12.01,64.95c-.44,17.33,37.4-8.23,37.4-8.23,0,0,9.42-45.47,8.95-48.43-.47-2.97-30.04-16.48-34.35-8.3Z"/>
          <path class="cls-22" d="m23.43,285.67c3.04,2.88,6.63,5.09,10.07,7.44,6.36,4.35,12.26,9.24,17.07,15.31.45.57.88,1.15,1.31,1.73,2.75-13.62,7.12-35.83,6.8-37.87-.47-2.97-30.04-16.48-34.35-8.3,0,0-2,7.28-4.38,17.46.96,1.53,2.12,2.95,3.48,4.23Z"/>
          <path class="cls-37" d="m87.4,198.43s-4.6-2.54-7.77-1.69c-3.17.85-5.38,3.03-3.55,4.96,1.83,1.93,10.91-.61,11.32-3.27Z"/>
          <path class="cls-37" d="m211.27,206.24s-3.11-4.7-5.55-2.1c-2.45,2.6-1.59,4.25,1.43,4.72,3.01.47,5.67.64,4.12-2.62Z"/>
          <path class="cls-48" d="m213.44,209.26c-4.19,10.34-7.05,92.93-7.05,92.93,0,0-79.39,9.15-125.67,5.33-7.23-.6-13.66-1.51-18.84-2.83-8.29-2.11-13.43-5.23-13.66-9.73-.08-1.49-.1-3.12-.08-4.85.11-7.96,1.19-18.26,2.85-28.99,4.13-26.64,11.73-55.87,16.27-58.03.68-.32,1.53-.64,2.53-.96.03,0,.05,0,.05,0,3.21-1.02,7.85-2,12.47-2.83,8.3-1.49,16.58-2.53,16.58-2.53,18.39-2.87,36.48-2.38,50.03-.76,13.56,1.61,45.35,1.45,64.51,13.27Z"/>
          <g>
            <path class="cls-57" d="m104.71,191.2s39.11-3.22,65.18,3.69c-3.31,13.37-7.39,8.63-13.31,7.77-5.92-.86-43.69-1.72-47.67-.43-3.98,1.29-4.95-9.16-4.2-11.04Z"/>
            <path class="cls-44" d="m113.42,174.04s7.1,22.27-8.95,23.7c0,0,13.84,27.33,32.62,26.94,20.93-.44,33.51-24.67,33.51-24.67,0,0-17.15-1.85-11.31-24.67,0,0-12.25-7.4-45.87-1.29Z"/>
            <path class="cls-22" d="m158.11,182.75c-1.12.14-2.19.26-3.19.38-13.01,1.58-23.48,4.19-39.97,2.41-.27,5.69-2.54,11.49-10.48,12.2,0,0,.12.23.34.64,23.37,4.64,35.38,1.22,51.08-.68,2.19-.27,4.71-.56,7.49-.93-2.96-2.44-5.62-6.68-5.27-14.03Z"/>
            <g>
              <path class="cls-20" d="m106.71,194.65c-.34-1.23-.54-3.54,2.8-3.83,0,0-3.67-.14-6.05.62,0,0-.01,0-.02,0-4.73,1.32-15.18,7.45-15.11,8.6,1.16,19.26,15.25,45.13,19.02,44.77,10.64-1,27.94-21.04,27.94-21.04,0,0-20.91-8.32-28.59-29.13Z"/>
              <path class="cls-20" d="m170.37,195.08h0c-1.85-.99-5.5-1.43-5.5-1.43,1.88.31,2.27,2.73,1.74,3.91-9.76,20.09-31.62,26.21-31.62,26.21,0,0,15.1,21.74,25.57,23.86,3.71.75,20.45-23.49,23.63-42.52.19-1.11-9.15-8.04-13.82-10.03Z"/>
            </g>
            <g class="cls-10">
              <path class="cls-28" d="m170.37,195.08h0c-1.85-.99-5.5-1.43-5.5-1.43.2.03.37.1.53.18-1.72-.37-3.47-.69-5.26-.99.92,1.65,2.05,2.95,3.24,3.93,2.48-.33,5.17-.72,8.03-1.2-.37-.18-.72-.35-1.05-.49Z"/>
              <path class="cls-28" d="m107.69,197.07c3.4-1.15,5.31-3.55,6.31-6.39-2.01.08-3.75.16-5.17.24.21-.04.43-.08.67-.1,0,0-3.67-.14-6.05.62,0,0-.01,0-.02,0-2.39.66-6.23,2.55-9.44,4.41,5.39,1.43,10.22,2.48,14.64,3.23-.33-.66-.65-1.33-.95-2.02Z"/>
            </g>
          </g>
          <path class="cls-48" d="m56.15,286.38c-1.12,3.26-1.81,5.16-1.81,5.16,0,0-2.49-.5-6.21-1.44-3.81-.95-8.91-2.38-13.97-4.21-10-3.63-26.63-17.92-20.49-21.14,6.14-3.23,26.11-43.13,34.45-53.8,2.22-2.84,6.57-4.88,10.79-6.27,5.26-1.74,10.33-2.48,10.87-2.55.03,0,.05,0,.05,0,7.8,17.75-8.14,67.98-13.69,84.26Z"/>
          <path class="cls-11" d="m69.84,202.12s-.02,0-.05,0c-.45.06-4.04.59-8.27,1.77-.35,5.73-2.68,11.62-5.1,16.42-2.61,5.17-4.84,10.48-6.13,16.13-1.32,5.79-1.54,11.65-2.16,17.53-.94,8.87-4.34,17.48-11.11,23.5-2.61,2.32-5.55,4.15-8.69,5.57,2.05,1.21,4.05,2.2,5.84,2.85,5.06,1.83,10.16,3.26,13.97,4.21,3.73.94,6.21,1.44,6.21,1.44,0,0,.69-1.9,1.81-5.16,5.54-16.28,21.48-66.52,13.69-84.26Z"/>
          <path class="cls-24" d="m42,276.3c-.12.31-1.64.1-3.95-.73-2.3-.82-5.37-2.31-8.46-4.42-3.09-2.12-5.57-4.46-7.17-6.31-1.6-1.86-2.35-3.2-2.1-3.42.55-.49,4.77,3.62,10.69,7.65,5.89,4.08,11.23,6.55,10.97,7.24Z"/>
          <path class="cls-24" d="m49.64,253.21c-.22.24-1.52-.49-3.19-2.19-.84-.84-1.73-1.95-2.61-3.26-.86-1.32-1.69-2.86-2.37-4.55-.67-1.7-1.13-3.38-1.42-4.93-.27-1.56-.39-2.97-.36-4.16.04-2.38.48-3.81.8-3.79.75.03.76,5.69,3.32,11.94,2.46,6.29,6.34,10.41,5.82,10.94Z"/>
          <path class="cls-24" d="m44.55,252.27c-.02.34-.59.63-1.52.71-.92.08-2.21-.08-3.52-.61-1.31-.52-2.35-1.29-2.97-1.99-.62-.7-.83-1.3-.61-1.56.47-.53,2.31.34,4.51,1.2,2.19.9,4.12,1.53,4.1,2.24Z"/>
          <path class="cls-45" d="m222.54,426.86c-2.14-5.33-6.4-16.1-7.11-21.84-.77-6.23-4.6-30.79-4.97-30.87-2.77-22.65-4.97-55.47,1.18-78.91.36-1.36-.31-2.81-1.03-4.01-2.01-3.37-3.61-8.17-4.55-14.85-3.56-25.28.86-50.95,6.13-68.2.24-.79-.16-1.62-.92-1.93-.23-.1-.47-.19-.71-.28-1.6-.64-3.21-1.24-4.84-1.82-.38-.14-.76-.27-1.15-.41-1.64-.56-3.25-1.16-4.94-1.54-.33-.08-.67-.16-1.01-.21-.39-.08-.78.13-.91.5,0,.04-.03.07-.04.11-4.34,11.79-8.44,29.49-10.84,49.18-.58,4.81-1.08,9.76-1.45,14.76-.26,0-.52.03-.78.04-6.37.35-12.6.59-18.67.75-53.89,1.36-94.48-4.3-94.48-4.3,0,0-4.08-39.76,8.81-63.53.12-.22-.08-.5-.33-.44-.7.16-1.4.3-2.1.49-1.35.35-2.71.67-4.09.91-2.7.47-5.45,1.03-8.21,1.23-.89.06-1.67.59-2.09,1.37-8.89,16.37-18.54,57.48-17.5,87.09,1.29,36.49,8.32,42.05-2.91,102.15-1.07,5.38-2.48,12.02-2.84,15.63-.54,5.38-2.79,11.38-4.75,16.38-28.39,72.5-39.35,90.09-22.73,104.94,3.24,2.9,7.94,3.72,7.94,3.72,0,0-1.23,6.18,1.92,7.92,4.81,2.65,25.57,8.52,40.33,6.25,0,0-1.3,5.86,1.01,7.75,1.93,1.58,25.5,9.9,57.33,11.59v.14c3.32.14,6.58.18,9.79.16,3.2.02,6.47-.02,9.79-.16v-.14c31.83-1.69,55.4-10.01,57.33-11.59,2.31-1.89,1.01-7.75,1.01-7.75,14.76,2.26,35.52-3.61,40.33-6.25,3.15-1.74,1.92-7.92,1.92-7.92,0,0,5.03-.46,7.94-3.72,15.8-17.74,7.53-16.73-26.82-102.38Z"/>
          <g>
            <path class="cls-13" d="m249.21,529.32c-3.43,1.89-7.16,3.39-7.71,3.61l-23.44-97.57,31.14,93.97Z"/>
            <path class="cls-13" d="m213.05,547.32c-4.77.44-9.58.47-13.88-.19,0,0,.16.71.26,1.71l-17.23-102.23,30.84,100.7Z"/>
            <path class="cls-13" d="m20.64,532.95c-.21-.08-4.12-1.63-7.73-3.61l31.22-94.2-23.49,97.81Z"/>
            <path class="cls-13" d="m62.9,547.14c-4.3.66-9.12.62-13.9.18l30.84-100.7-16.94,100.52Z"/>
          </g>
          <path class="cls-48" d="m208.65,207.29s14.2,3.55,21.63,20.66c7.42,17.11,21.24,39.81,25.5,45.13,2.51,3.13-18.4,24.6-39.71,26.22-17.43-24.53-15.17-28.33-15.5-36.28-.32-7.95,0-44.43,8.07-55.72Z"/>
          <path class="cls-11" d="m230.51,283.95c-8.17-2.68-16.09-7.33-21.8-13.83-3.6-4.11-6.32-8.83-8.2-13.88-.03,2.97.01,5.34.07,6.77.32,7.95-1.94,11.74,15.5,36.28,10.79-.82,21.48-6.73,29.08-12.77-4.97-.2-9.9-1.01-14.64-2.57Z"/>
          <path class="cls-11" d="m216.07,239.07c.27-.26,1.29-1.13,1.16-1.56-.17-.56-1.52-.45-1.97-.36-1.87.38-3.71,1.73-5.17,2.92-6.29,5.13-8.54,13.34-6.43,21.29.78-4.34,2.26-7.91,4.37-11.74,2.17-3.95,4.85-7.37,8.05-10.54Z"/>
          <path class="cls-11" d="m243.46,270.91c.49-.77.88-1.58,1.16-2.45.13-.4.44-1.14.27-1.58-.5-1.27-4.33,1.2-4.95,1.62-2.59,1.76-4.31,4.42-6.05,6.95-1.05,1.53-2.16,3.02-3.43,4.33,1.54-.38,3.02-1.01,4.43-1.73,1.78-.91,3.48-1.93,5.01-3.22,1.36-1.14,2.62-2.43,3.57-3.93Z"/>
          <path class="cls-11" d="m213.22,250.88c-.9,1.08-1.61,2.33-1.92,3.71-.26,1.13-.21,2.26.02,3.38.67-.64,1.45-1.19,2.08-1.67,1.54-1.2,3.18-2.35,4.5-3.8.46-.51.92-1.11,1.1-1.74.17-.59.09-1.12-.32-1.67-1.65-2.24-4.29.41-5.46,1.8Z"/>
          <path class="cls-31" d="m131.75,404.66h-1.51c-.52,0-.94-.43-.94-.95,0-.52.42-.94.94-.94h1.5s1.57,0,1.57,0h0c.52,0,.94.42.94.94,0,.52-.42.95-.94.95h-1.58Zm-6.63-.08h-.02c-1.04-.03-2.07-.06-3.09-.09-.52-.02-.93-.46-.91-.98.02-.52.47-.88.98-.91,1.02.04,2.04.07,3.07.09.52.01.93.45.92.97-.01.51-.43.92-.94.92Zm13.34,0c-.51,0-.93-.41-.94-.92-.01-.52.4-.95.92-.97,1.02-.03,2.04-.06,3.07-.1.55,0,.96.39.98.91.02.52-.39.96-.91.98-1.03.04-2.06.07-3.09.1h-.03Zm-21.55-.33s-.04,0-.05,0c-1.04-.06-2.06-.12-3.08-.19-.52-.04-.91-.48-.88-1,.03-.52.48-.93,1-.88,1.01.07,2.03.13,3.06.19.52.03.92.47.89.99-.03.5-.44.89-.94.89Zm29.75-.02c-.49,0-.91-.39-.94-.89-.03-.52.36-.97.88-1,1.02-.06,2.04-.13,3.06-.2.52-.04.97.35,1.01.87.04.52-.35.97-.87,1.01-1.03.07-2.06.14-3.08.2-.02,0-.04,0-.06,0Zm-37.95-.56s-.05,0-.08,0c-1.03-.09-2.06-.18-3.08-.28-.52-.05-.9-.51-.85-1.03.05-.52.51-.89,1.03-.85,1.01.1,2.03.19,3.06.28.52.05.9.5.86,1.02-.04.49-.45.86-.94.86Zm46.14-.06c-.48,0-.89-.37-.94-.86-.05-.52.33-.98.85-1.03,1.01-.09,2.03-.2,3.05-.3.51-.05.98.32,1.04.84.05.52-.32.98-.84,1.04-1.03.11-2.05.21-3.08.31-.03,0-.06,0-.09,0Zm-54.31-.76s-.07,0-.11,0c-1.04-.12-2.06-.24-3.07-.37-.52-.07-.88-.54-.82-1.05.06-.52.53-.88,1.05-.82,1,.13,2.02.25,3.05.37.52.06.89.53.83,1.04-.05.48-.46.84-.94.84Zm62.47-.15c-.47,0-.87-.35-.93-.82-.07-.52.3-.99.81-1.06,1.01-.13,2.02-.27,3.04-.41.52-.07.99.28,1.07.8.07.52-.28.99-.8,1.07-1.02.15-2.05.29-3.07.42-.04,0-.08,0-.12,0Zm-70.62-.91s-.09,0-.14-.01c-1.03-.15-2.05-.3-3.06-.46-.51-.08-.87-.56-.79-1.08.08-.51.56-.87,1.08-.79,1,.16,2.01.31,3.04.45.52.07.87.55.8,1.07-.07.47-.47.81-.93.81Zm78.74-.29c-.45,0-.85-.33-.93-.79-.09-.51.26-1,.78-1.08,1-.17,2.01-.34,3.02-.52.51-.09,1,.25,1.1.76.09.51-.25,1-.76,1.1-1.02.18-2.03.36-3.04.53-.05,0-.1.01-.16.01Zm-86.86-1c-.05,0-.11,0-.16-.01-1.03-.18-2.05-.36-3.04-.55-.51-.09-.85-.59-.76-1.1.09-.51.58-.85,1.1-.76.99.18,2,.36,3.02.54.51.09.86.58.77,1.09-.08.46-.48.78-.93.78Zm94.93-.49c-.44,0-.83-.31-.92-.75-.1-.51.22-1.01.73-1.11,1-.2,2-.42,2.99-.63.51-.11,1.01.21,1.12.72s-.21,1.01-.72,1.12c-1.01.22-2.02.43-3.02.64-.06.01-.13.02-.19.02Zm-103-1.03c-.06,0-.13,0-.19-.02-1.03-.21-2.04-.42-3.03-.63-.51-.11-.83-.61-.72-1.12.11-.51.61-.83,1.12-.72.98.21,1.98.42,3.01.63.51.1.84.6.74,1.11-.09.45-.48.75-.92.75Zm111.01-.77c-.42,0-.81-.29-.91-.72-.12-.51.19-1.02.69-1.14.99-.24,1.98-.49,2.97-.75.51-.13,1.02.17,1.15.67.13.5-.17,1.02-.68,1.15-1,.26-2,.51-2.99.76-.08.02-.15.03-.23.03Zm-119.03-.99c-.07,0-.14,0-.22-.03-1.04-.24-2.04-.49-3.01-.73-.51-.13-.81-.64-.69-1.14.13-.51.64-.81,1.14-.69.96.24,1.95.48,2.98.72.51.12.82.63.7,1.13-.1.43-.49.73-.92.73Zm126.96-1.12c-.41,0-.79-.27-.91-.68-.14-.5.15-1.02.65-1.17.98-.28,1.96-.57,2.93-.87.5-.15,1.02.13,1.18.63.15.5-.13,1.02-.63,1.18-.99.3-1.97.59-2.96.88-.09.02-.17.04-.26.04Zm-134.93-.89c-.08,0-.16-.01-.25-.03-1.07-.29-2.06-.57-2.98-.83-.5-.14-.79-.66-.65-1.17.14-.5.66-.79,1.17-.65.91.26,1.9.53,2.96.82.5.14.8.65.66,1.16-.11.42-.49.7-.91.7Zm142.77-1.54c-.4,0-.76-.25-.89-.65-.16-.49.1-1.03.6-1.19.97-.32,1.93-.65,2.9-.99.49-.17,1.03.09,1.2.58.17.49-.09,1.03-.58,1.2-.98.34-1.95.67-2.93,1-.1.03-.2.05-.3.05Zm-150.66-.77c-.09,0-.19-.01-.28-.04-1.94-.61-2.97-.98-2.97-.98-.49-.18-.74-.72-.57-1.21.18-.49.72-.74,1.21-.57.01,0,1.01.36,2.9.96.5.16.77.69.61,1.18-.13.4-.5.66-.9.66Z"/>
          <g>
            <g>
              <circle class="cls-2" cx="193.61" cy="275.17" r="7.51" transform="translate(-142.75 266.85) rotate(-53.45)"/>
              <circle class="cls-39" cx="193.32" cy="274.44" r="7.51" transform="translate(-83.51 84.56) rotate(-20.39)"/>
              <path class="cls-12" d="m194.15,268.42c-3.32-.46-6.38,1.87-6.84,5.19-.46,3.32,1.87,6.38,5.19,6.84,3.32.46,6.38-1.87,6.84-5.19.46-3.32-1.87-6.38-5.19-6.84Zm4.79,6.78c-.43,3.1-3.28,5.27-6.38,4.84-3.1-.43-5.27-3.28-4.84-6.38.43-3.1,3.28-5.27,6.38-4.84,3.1.43,5.27,3.28,4.84,6.38Z"/>
              <g>
                <g>
                  <path class="cls-16" d="m194.41,272.77c-.07.49.27.94.76,1.01.49.07.94-.27,1.01-.76.07-.49-.27-.94-.76-1.01-.49-.07-.94.27-1.01.76Z"/>
                  <path class="cls-16" d="m190.13,275.99c-.07.49.27.94.76,1.01.49.07.94-.27,1.01-.76s-.27-.94-.76-1.01c-.49-.07-.94.27-1.01.76Z"/>
                  <path class="cls-45" d="m190.73,276.35h0c.14.19.42.23.61.08l4.21-3.19c.19-.14.23-.42.08-.61h0c-.14-.19-.42-.23-.61-.08l-4.21,3.19c-.19.14-.23.42-.08.61Z"/>
                  <path class="cls-18" d="m192.77,274.26l-.4.3.51.7.38-.29c-.23-.19-.41-.41-.49-.72Z"/>
                </g>
                <g>
                  <path class="cls-16" d="m192.44,272.5c-.07.49-.52.83-1.01.76-.49-.07-.83-.52-.76-1.01s.52-.83,1.01-.76c.49.07.83.52.76,1.01Z"/>
                  <path class="cls-16" d="m195.69,276.75c-.07.49-.52.83-1.01.76-.49-.07-.83-.52-.76-1.01.07-.49.52-.83,1.01-.76.49.07.83.52.76,1.01Z"/>
                  <path class="cls-45" d="m195.01,276.93h0c-.19.14-.46.11-.61-.08l-3.19-4.21c-.14-.19-.11-.46.08-.61h0c.19-.14.46-.11.61.08l3.19,4.21c.14.19.11.46-.08.61Z"/>
                </g>
              </g>
            </g>
            <path class="cls-43" d="m144.02,274.49c-1.06,0-2.12,0-3.16-.01-.53,0-.96-.44-.96-.97,0-.53.44-.96.97-.96h0c1.04,0,2.09.01,3.15.01.53,0,.97.43.97.97s-.43.97-.97.97Zm5.26-.02c-.53,0-.96-.43-.97-.96,0-.53.42-.97.96-.98,1.04-.01,2.09-.02,3.15-.04.56-.04.97.42.98.95,0,.53-.42.97-.95.98-1.06.02-2.11.03-3.16.04h0Zm-13.68-.05s-.01,0-.02,0c-1.06-.02-2.12-.04-3.16-.06-.53-.01-.96-.45-.94-.99.01-.53.44-.95.97-.95,0,0,.02,0,.02,0,1.04.02,2.09.04,3.15.06.53,0,.96.45.95.98,0,.53-.44.95-.97.95Zm22.1-.11c-.52,0-.95-.42-.97-.94-.01-.53.41-.98.94-.99,1.04-.03,2.09-.06,3.15-.09.52,0,.98.4,1,.93.02.53-.4.98-.93,1-1.06.04-2.11.07-3.16.09,0,0-.02,0-.03,0Zm-30.52-.1s-.02,0-.03,0c-1.07-.04-2.12-.07-3.16-.11-.53-.02-.95-.47-.93-1,.02-.53.48-.93,1-.93,1.04.04,2.09.08,3.15.11.53.02.95.46.93,1-.02.52-.45.93-.97.93Zm38.93-.2c-.51,0-.94-.41-.96-.93-.02-.53.39-.98.92-1.01,1.04-.05,2.09-.09,3.15-.15.51-.03.99.38,1.01.92.03.53-.38.99-.92,1.01-1.06.05-2.11.1-3.16.15-.01,0-.03,0-.04,0Zm-47.34-.15s-.03,0-.05,0c-1.07-.05-2.12-.11-3.16-.16-.53-.03-.94-.49-.91-1.02.03-.53.49-.94,1.02-.91,1.03.06,2.08.11,3.15.16.53.03.94.48.92,1.01-.03.52-.45.92-.96.92Zm55.75-.3c-.51,0-.93-.4-.96-.91-.03-.53.37-.99.91-1.02,1.04-.06,2.09-.13,3.14-.2.53-.04.99.36,1.03.9.04.53-.37.99-.9,1.03-1.06.07-2.11.14-3.16.21-.02,0-.04,0-.06,0Zm-64.16-.18s-.04,0-.06,0c-1.07-.07-2.12-.14-3.16-.22-.53-.04-.93-.5-.89-1.03.04-.53.5-.94,1.03-.89,1.03.07,2.08.15,3.14.22.53.03.94.49.9,1.03-.03.51-.46.9-.96.9Zm72.56-.41c-.5,0-.92-.38-.96-.89-.04-.53.35-1,.89-1.04.63-.05,1.25-.1,1.88-.16.54-.03,1,.35,1.05.88.05.53-.35,1-.88,1.05-.63.05-1.26.11-1.89.16-.03,0-.05,0-.08,0Zm-80.96-.21s-.05,0-.08,0c-1.08-.09-2.13-.18-3.15-.27-.53-.05-.92-.52-.88-1.05.05-.53.51-.91,1.05-.88,1.02.09,2.07.18,3.14.27.53.04.93.51.89,1.04-.04.51-.46.89-.96.89Zm-8.39-.76s-.06,0-.1,0c-1.09-.11-2.14-.22-3.15-.33-.53-.06-.91-.53-.86-1.06.06-.53.53-.92,1.06-.86,1,.11,2.05.22,3.14.32.53.05.92.53.87,1.06-.05.5-.47.87-.96.87Zm-8.37-.92s-.08,0-.12,0c-1.12-.13-2.17-.26-3.14-.39-.53-.07-.9-.55-.84-1.08.07-.53.55-.91,1.08-.84.97.12,2.01.25,3.13.39.53.06.91.54.84,1.08-.06.49-.48.85-.96.85Zm-8.35-1.1s-.09,0-.14-.01c-2.06-.3-3.15-.49-3.15-.49-.53-.09-.88-.59-.79-1.12.09-.53.59-.88,1.12-.79,0,0,1.08.18,3.1.48.53.08.89.57.82,1.1-.07.48-.48.83-.96.83Z"/>
          </g>
          <path class="cls-5" d="m173.2,407.44c.13-.11.26-.22.39-.34.04-.04.08-.08.12-.12.12-.11.23-.23.35-.35.04-.04.07-.07.11-.11.3-.33.59-.69.87-1.09.03-.05.06-.09.1-.14.11-.16.22-.33.33-.51.03-.05.06-.11.1-.16.13-.22.26-.45.38-.7,0,0,0,0,0,0,.13-.25.25-.52.37-.8.02-.06.05-.12.07-.18.09-.22.18-.45.26-.68.03-.08.06-.16.09-.24.09-.26.17-.52.25-.79.02-.05.03-.1.05-.16.09-.33.18-.67.26-1.03.02-.07.03-.14.04-.21.06-.29.12-.59.17-.89.02-.11.04-.23.06-.34.05-.3.09-.6.13-.91.01-.1.03-.2.04-.31.05-.42.09-.85.12-1.29,0-.07,0-.14.01-.2.03-.38.04-.77.06-1.18,0-.15,0-.3.01-.45,0-.35.01-.71,0-1.07,0-.15,0-.31,0-.46,0-.51-.02-1.03-.05-1.57,0,0,0,0,0-.01-.54-11.15-2.47-55.91-4.01-91.83.09-.9.18-1.8.27-2.67,0-.04,0-.07.01-.11.31-3.09.61-5.95.87-8.54,0-.03,0-.06,0-.09.59-5.74,1.03-10.11,1.28-12.59.61-2.3.19-4.87-1.2-6.83-.73-1.03-1.63-1.75-2.66-2.29-.24-5.74-.43-10.12-.54-12.59.28-2.37-.51-4.85-2.17-6.57-2.24-2.33-5.23-2.52-8.91-2.53-5.59-.01-95.01,3.54-107.13,4.02l-1.09,2.06v.03h-.01s0,0,0,0l1.09,13.36-5.63.23-.55,1.05h0s-.31.58-.31.58l-.24.46h0s1.52,28.73,1.52,28.73l-11.15,121.54,113.47,12.31c.17.02.34,0,.51-.02.74-.01,1.7-.14,2.74-.52.05-.02.1-.03.15-.05.09-.03.17-.07.26-.11.08-.04.17-.07.25-.11.07-.03.14-.06.21-.1.15-.08.31-.16.46-.25.04-.02.07-.05.11-.07.13-.08.27-.17.41-.26.04-.03.08-.06.13-.09.16-.11.32-.23.48-.36,0,0,.01-.01.02-.02.18-.14.36-.3.54-.46.01-.01.03-.03.04-.04.16-.15.32-.31.48-.48.02-.02.04-.04.06-.06.35-.38.69-.8,1.02-1.27.02-.02.03-.05.05-.07.15-.22.31-.45.45-.7.01-.02.03-.04.04-.07.32-.53.62-1.11.91-1.75.02-.05.05-.1.07-.15.13-.29.25-.59.37-.91.01-.03.03-.06.04-.1.13-.35.26-.72.39-1.1.01-.04.03-.09.04-.14.1-.33.2-.67.3-1.02.03-.1.05-.19.08-.29.1-.37.19-.74.28-1.14.01-.05.02-.09.03-.13.09-.43.18-.89.27-1.35.02-.12.04-.24.06-.36.06-.36.12-.74.17-1.12.02-.14.04-.29.06-.43.07-.5.13-1.02.18-1.55,0,0,0,0,0-.01.07-.71.15-1.57.25-2.55l6.06-.27c.17,0,.34-.05.5-.1.26-.04.54-.11.83-.19.02,0,.05-.01.07-.02.08-.02.15-.05.23-.07.06-.02.12-.04.17-.06.07-.02.14-.05.22-.08.08-.03.15-.06.23-.09.06-.03.12-.05.18-.08.13-.06.27-.12.41-.19.05-.02.1-.05.15-.08.1-.05.2-.11.3-.17.05-.03.11-.06.16-.1.11-.07.22-.14.33-.21.04-.03.08-.05.13-.08.15-.11.3-.22.45-.34.02-.02.04-.04.07-.05Z"/>
          <path class="cls-44" d="m240.02,308.26c-6.87.95-17.56,14.05-27.56,18.47-10,4.42-16.97,8.1-21.94,7.61-4.97-.49-6.61,9.37-5.76,16.01.85,6.64,2.37,7.79,7.18,7.81s28.16-5.6,42.94-5.67c14.78-.08,35.52-12.02,32.13-30.81-3.04-16.83-18.45-14.61-26.98-13.43Z"/>
          <path class="cls-23" d="m248.04,311.17c-.06.6-5.31.33-11.49,1.8-6.2,1.4-10.8,3.94-11.12,3.43-.14-.22.85-1.17,2.73-2.29,1.87-1.12,4.67-2.35,7.93-3.11,3.26-.75,6.32-.87,8.49-.69,2.18.18,3.48.6,3.45.86Z"/>
          <g>
            <path class="cls-67" d="m43.86,100.75c-.93-6.34-2.05-11.82-2.58-16.42-.28-2.3-.44-4.37-.51-6.2-.02-.92-.04-1.77-.06-2.55.03-.78.06-1.5.06-2.15,0-.33,0-.64,0-.93.02-.29.04-.56.06-.81.03-.5.04-.94.03-1.3-.02-.72-.13-1.14-.33-1.2-.2-.06-.48.23-.84.87-.18.32-.38.73-.6,1.22-.11.25-.22.51-.34.8-.09.29-.18.6-.28.93-.19.66-.4,1.41-.61,2.23-.15.83-.3,1.73-.45,2.71-.25,1.95-.38,4.2-.37,6.65,0,4.34.56,9.29,1.1,14.63.15.19.27.41.36.65,3.2,8.27,4.29,17.1,3.67,25.9.43-1.13.83-2.29,1.16-3.5,1-3.84,1.4-7.7,1.38-11.32-.06-3.62-.42-7.03-.86-10.21Z"/>
            <path class="cls-67" d="m45.34,45.61s-13.06,17.38-2.33,60.77c6.21,25.1-24.27,88.74,3.83,102.61-3.07-5.19-2.3-6.93-1.79-8.7-.1,4.7,7.79,13.3,21.87,16.27-12.77-13.64-7.06-94.25-6.04-124.56,1.02-30.31,4.63-55.05-15.55-46.38Z"/>
            <path class="cls-17" d="m40.58,91.06c.73,2.56,1.77,4.99,2.82,7.42,1.81,4.21,3.66,8.43,5.03,12.82,1.45,4.64,2.4,9.51,2.57,14.39.35,9.97-3.15,51.7-2.99,61.65.07,4.59,1.11,9.11,2.76,13.36,1.29,3.32,3.06,6.46,5.36,9.15,1.82,2.13,3.91,3.92,6.17,5.45,1.46.48,3.01.9,4.64,1.25-12.77-13.64-7.06-94.25-6.04-124.56,1.02-30.31,4.63-55.05-15.55-46.38,0,0-8.66,11.53-6.08,39.24.31,2.1.73,4.18,1.32,6.21Z"/>
            <path class="cls-17" d="m37.28,200.76c-.73-3.32-1.11-17.47-1.17-29.93-1.77,12.96-2.25,24.18,1.17,29.93Z"/>
            <path class="cls-17" d="m45.82,109.44c-.38-2.39-1.18-4.68-2.07-6.91-.95-2.4-1.97-4.8-2.67-7.26-.01-.03-.03-.07-.04-.1-.26-.67-.51-1.35-.73-2.02.65,4.11,1.54,8.52,2.7,13.23,1.22,4.92,1.02,11.87.14,19.83.99-2.72,1.88-5.47,2.42-8.33.52-2.76.7-5.64.25-8.43Z"/>
            <path class="cls-17" d="m41.78,129.86c-1,7.97-3.09,15.74-5.48,23.4-.16,3.64-.23,10.31-.19,17.57,1.97-14.42,5.52-31,7.04-44.63-.44,1.22-.91,2.44-1.37,3.66Z"/>
            <path class="cls-17" d="m47.15,184.99c.08-2.05.29-36.22.57-38.24-.03.07-.05.15-.08.22-1.69,4.82-3.02,41.84-2.79,47.01.23,4.98,1.92,9.79,5.26,13.47,2.45,2.7,5.4,4.69,8.61,6.21-1.68-1.44-3.23-3.05-4.58-4.87-2.17-2.93-3.76-6.27-4.92-9.74-1.51-4.56-2.27-9.24-2.08-14.06Z"/>
            <path class="cls-55" d="m66.93,216.55s21.53-36.82,48.36-29.12c25.91-17.43-54.39-104.64-61.29-109.77-6.23,13.72-3.07,36.48-2.3,48.27s-18.2,61.15,15.23,90.62Z"/>
            <path class="cls-55" d="m189.91,212.12s-5-22.55-33.92-27.91c2.06-27.88,43.63-46.2,49.76-45.17,6.13,1.03,4.34,70.98-15.84,73.08Z"/>
            <path class="cls-19" d="m45.01,131.57c-.38-.24.42-2.16,1.5-5.24.26-.78.57-1.61.83-2.53.3-.91.56-1.9.84-2.93.52-2.08,1-4.38,1.34-6.83.32-2.45.47-4.81.53-6.97.01-1.08.04-2.1,0-3.07,0-.96-.04-1.86-.07-2.69-.13-3.29-.26-5.38.17-5.48.38-.09,1.24,1.86,1.92,5.22.16.84.33,1.76.44,2.77.14,1,.21,2.08.27,3.22.09,2.27.02,4.79-.33,7.41-.36,2.61-.96,5.07-1.66,7.23-.38,1.08-.74,2.1-1.16,3.02-.38.93-.82,1.77-1.22,2.52-1.65,3.01-3.1,4.56-3.42,4.35Z"/>
            <path class="cls-56" d="m65.8,117.12c-.11,0-.22,0-.34-.03l-15.56-2.67c-1.1-.19-1.84-1.25-1.66-2.38.18-1.13,1.23-1.89,2.32-1.7l15.56,2.67c1.1.19,1.84,1.25,1.66,2.38-.17,1.01-1.02,1.72-1.99,1.72Z"/>
            <path class="cls-44" d="m198.15,150.43c-6.01,10.49-13.23,18.08-20.73,23.6-16.92,12.46-35.26,14.42-44.35,15.55-13.14,1.63-21.9,5.1-51.36-5.91-29.46-11.01-31.98-29.84-29.99-40.45,1.99-10.61,8.79-11.84,2.32-33.58-1.93-6.49-2.85-12.96-3.16-18.93-.02-.35-.04-.7-.05-1.05-.64-15.67,2.81-27.75,2.81-27.75,3.98-18.76,23.29-39.56,75.44-36.71,52.15,2.85,66.88,23.04,77.63,46.29,1.27,2.75,3.18,10.03,3.95,19.88,1.22,15.75-.51,38.09-12.51,59.05Z"/>
            <g class="cls-61">
              <ellipse class="cls-9" cx="157.1" cy="150.87" rx="22.92" ry="23.49"/>
            </g>
            <g class="cls-51">
              <g class="cls-30">
                <path class="cls-6" d="m87.52,146.48c2.74,12.66-5.05,25.21-17.41,28.02-12.36,2.81-24.6,26.95-27.34,14.29-2.74-12.66,5.05-57.34,17.41-60.15,12.36-2.81,24.6,5.18,27.34,17.84Z"/>
              </g>
            </g>
            <path class="cls-67" d="m65.3,101.99c-.54-.44-.1-2.23,1.77-4.32.93-1.04,2.22-2.11,3.83-3.02,1.61-.9,3.54-1.64,5.65-1.99,4.25-.71,8.12.26,10.52,1.57,2.43,1.31,3.46,2.79,3.12,3.41-.37.67-1.95.45-4.23.23-2.28-.24-5.33-.42-8.55.12-3.22.53-6.02,1.72-8.07,2.72-2.06.99-3.45,1.78-4.03,1.29Z"/>
            <path class="cls-67" d="m157.68,101.66c.54-.44.1-2.23-1.77-4.32-.93-1.04-2.22-2.11-3.83-3.02-1.61-.9-3.54-1.64-5.65-1.99-4.25-.71-8.12.26-10.52,1.57-2.43,1.31-3.46,2.79-3.12,3.41.37.67,1.95.45,4.23.23,2.28-.24,5.33-.42,8.55.12,3.22.53,6.02,1.72,8.07,2.72,2.06.99,3.45,1.78,4.03,1.29Z"/>
            <g>
              <path class="cls-65" d="m89.68,131.42c-2.86,3.95-7.98,5.72-12.97,4.15-6.77-2.12-8.7-8.91-7.25-14.76.62-2.54,1.88-4.9,3.64-6.63,2.65-2.6,6.93-3.79,10.71-2.61,2.96.93,5.36,3.18,6.85,5.77.04.06.07.13.1.19,2.39,4.34,1.73,10-1.09,13.88Z"/>
              <g>
                <ellipse class="cls-29" cx="83.07" cy="125.21" rx="7.77" ry="9.98"/>
                <ellipse class="cls-29" cx="83.07" cy="124.23" rx="5.26" ry="5.7" transform="translate(-.49 .33) rotate(-.23)"/>
                <path class="cls-29" d="m77.94,119.58c0,1.19.89,2.16,1.98,2.16,1.1,0,1.99-.96,1.99-2.15s-.89-2.16-1.98-2.16-1.99.96-1.99,2.15Z"/>
              </g>
              <g>
                <path class="cls-63" d="m90.76,117.16c.07-.05.09-.18.06-.4-.02-.11-.05-.23-.09-.38-.04-.15-.1-.31-.18-.49-.3-.72-.9-1.68-1.84-2.69-.47-.51-1.04-.99-1.7-1.47-.67-.45-1.41-.89-2.25-1.23-.84-.33-1.75-.61-2.73-.73-.98-.12-2.01-.12-3.04.06-1.04.17-2.01.52-2.9.95-.45.21-.86.47-1.27.72-.39.28-.78.54-1.12.84-1.41,1.17-2.4,2.53-3.06,3.76-.66,1.23-.99,2.32-1.12,3.1-.12.78-.07,1.23.09,1.28.36.13.98-1.39,2.47-3.28.75-.94,1.72-1.97,2.96-2.83.3-.23.64-.42.96-.63.34-.18.69-.38,1.06-.53.73-.32,1.51-.59,2.32-.71.81-.13,1.62-.16,2.4-.09.78.06,1.53.24,2.24.45.71.21,1.35.52,1.95.81.59.33,1.13.65,1.61,1,1.91,1.38,2.85,2.69,3.17,2.47Z"/>
                <path class="cls-63" d="m72.19,116.16c-.13-.06-.17-.1-.24-.15-.07-.05-.12-.09-.18-.14-.11-.09-.22-.18-.32-.28-.2-.19-.38-.38-.54-.59-.33-.4-.59-.83-.82-1.26-.22-.44-.4-.88-.54-1.33-.08-.22-.12-.45-.18-.67-.05-.23-.09-.45-.13-.67.14.19.26.37.4.55.15.17.28.35.43.51.3.33.62.62.95.88.34.26.69.48,1.04.65.18.09.36.16.53.21.09.03.17.05.26.07.04,0,.08.02.12.02.03,0,.09.01.06,0l-.84,2.2Z"/>
                <path class="cls-63" d="m70.73,118.25c-.21-.1-.33-.18-.48-.27-.15-.09-.28-.19-.42-.29-.27-.2-.53-.41-.77-.64-.49-.45-.92-.95-1.3-1.5-.38-.54-.7-1.13-.94-1.75-.26-.61-.41-1.27-.53-1.91.3.56.61,1.1,1.01,1.55.38.46.81.86,1.27,1.2.46.34.95.62,1.46.84.25.11.51.2.77.28.13.04.26.07.39.1.12.03.27.06.35.06l-.79,2.33Z"/>
              </g>
            </g>
            <g>
              <path class="cls-65" d="m135.1,131.42c2.86,3.95,7.98,5.72,12.97,4.15,6.77-2.12,8.7-8.91,7.25-14.76-.62-2.54-1.88-4.9-3.64-6.63-2.65-2.6-6.93-3.79-10.71-2.61-2.96.93-5.36,3.18-6.85,5.77-.04.06-.07.13-.1.19-2.39,4.34-1.73,10,1.09,13.88Z"/>
              <g>
                <ellipse class="cls-29" cx="146.15" cy="125.68" rx="7.77" ry="9.98"/>
                <ellipse class="cls-29" cx="146.15" cy="124.7" rx="5.26" ry="5.7" transform="translate(-.5 .58) rotate(-.23)"/>
                <path class="cls-29" d="m141.02,120.04c0,1.19.89,2.16,1.98,2.16,1.1,0,1.99-.96,1.99-2.15,0-1.19-.89-2.16-1.98-2.16-1.1,0-1.99.96-1.99,2.15Z"/>
              </g>
              <g>
                <path class="cls-63" d="m134.02,117.16c-.07-.05-.09-.18-.06-.4.02-.11.05-.23.09-.38.04-.15.1-.31.18-.49.3-.72.9-1.68,1.84-2.69.47-.51,1.04-.99,1.7-1.47.67-.45,1.41-.89,2.25-1.23.84-.33,1.75-.61,2.73-.73.98-.12,2.01-.12,3.04.06,1.04.17,2.01.52,2.9.95.45.21.86.47,1.27.72.39.28.78.54,1.12.84,1.41,1.17,2.4,2.53,3.06,3.76.66,1.23.99,2.32,1.12,3.1.12.78.07,1.23-.09,1.28-.36.13-.98-1.39-2.47-3.28-.75-.94-1.72-1.97-2.96-2.83-.3-.23-.64-.42-.96-.63-.34-.18-.69-.38-1.06-.53-.73-.32-1.51-.59-2.32-.71-.81-.13-1.62-.16-2.4-.09-.78.06-1.53.24-2.24.45-.71.21-1.35.52-1.95.81-.59.33-1.13.65-1.61,1-1.91,1.38-2.85,2.69-3.17,2.47Z"/>
                <path class="cls-63" d="m152.59,116.16c.13-.06.17-.1.24-.15.07-.05.12-.09.18-.14.11-.09.22-.18.32-.28.2-.19.38-.38.54-.59.33-.4.59-.83.82-1.26.22-.44.4-.88.54-1.33.08-.22.12-.45.18-.67.05-.23.09-.45.13-.67-.13.19-.26.37-.4.55-.15.17-.28.35-.43.51-.3.33-.62.62-.95.88-.34.26-.69.48-1.04.65-.18.09-.36.16-.53.21-.09.03-.17.05-.26.07-.04,0-.08.02-.12.02-.03,0-.09.01-.06,0l.84,2.2Z"/>
                <path class="cls-63" d="m154.05,118.25c.21-.1.33-.18.48-.27.15-.09.28-.19.42-.29.27-.2.53-.41.77-.64.49-.45.92-.95,1.3-1.5.38-.54.7-1.13.94-1.75.26-.61.41-1.27.53-1.91-.3.56-.61,1.1-1.01,1.55-.38.46-.81.86-1.27,1.2-.46.34-.95.62-1.46.84-.25.11-.51.2-.77.28-.13.04-.26.07-.39.1-.12.03-.27.06-.35.06l.79,2.33Z"/>
              </g>
            </g>
            <path class="cls-22" d="m202.84,141.03c-2.87-8.05-7.69-15.08-12.29-19.6-11.1-10.9-27.65-33.26-21.39-52.27-3.28,4.94-8.63,9.81-17.95,14.38,10.22-12.89,8.65-18.67,8.43-25.33-3.07,7.47-3.32,21.65-26.31,27.25,14.05-11.68,12.52-26.28,12.52-26.28,0,0-13.99,26.63-39.09,27.17-38.97.85-46,.34-55.43,9.67-.21-1.81-.35-3.58-.44-5.31-.02-.35-.03-.7-.05-1.04-.64-15.67,2.81-27.75,2.81-27.75,3.98-18.76,23.29-39.56,75.45-36.7,52.14,2.85,66.87,23.04,77.62,46.29,1.27,2.75,3.19,10.03,3.95,19.88,1.04,13.41-.06,31.6-7.82,49.64Z"/>
            <path class="cls-67" d="m233,136.84c-1.22-3.68-2.07-7.46-2.96-11.23-.38-1.18-.75-2.35-1.1-3.54-.21-.73.02-1.44.5-1.95-3.2-7.81-6.61-15.48-7.6-27.72-1.79-22.12-2.68-64.64-33.47-68.18,0,0-16.73-27.79-69.23-23.86C72.16,3.9,43.27,36.55,39.95,61.67c-3.32,25.13,8.43,33.24,8.43,33.24,10.47-11.26,15.84-10.62,57.23-11.52,25.1-.55,39.09-27.18,39.09-27.18,0,0,1.53,14.6-12.52,26.28,22.99-5.61,23.25-19.79,26.31-27.25.22,6.67,1.79,12.44-8.43,25.33,9.32-4.56,14.67-9.44,17.95-14.38-6.26,19.02,10.29,41.37,21.39,52.27,12.26,12.04,26.06,74.01.51,93.65,24.27.79,29.38-13.3,29.89-16.34,1.53,3.77,0,8.75-1.02,10.84,4.62,0,11.05-18.76,14.47-37.4,1.53-10.59,1.93-21.25.06-31.78-.13-.18-.24-.38-.31-.59Z"/>
            <path class="cls-17" d="m233,136.84c-1.22-3.68-2.07-7.46-2.96-11.23-.38-1.18-.75-2.35-1.1-3.54-.21-.73.02-1.44.5-1.95-3.2-7.81-6.61-15.48-7.6-27.72-.8-9.94-1.43-24.02-4.67-36.81-1.85,2.65-3.96,5.12-6.46,7.13-2.49,2-5.24,3.57-8.21,4.68-5.91,2.21-12.45,2.6-18.6,1.33-5.83-1.21-11.51-4.02-15.56-8.55-2.77-3.1-4.54-6.85-5.31-10.86-1.32,1.63-2.97,3.01-4.72,4.1-2,1.24-4.32,2.21-6.69,2.18-2.21-.03-4.29-1.1-5.56-2.96-.92-1.33-1.35-2.96-1.48-4.6-4.46,4.58-9.66,8.39-15.17,11.52-3.07,1.75-6.25,3.29-9.49,4.67-1.83.78-3.66,1.47-5.57,1.99-3.66.99-7.48,1.62-11.27,1.68-3.14.05-6.97-.2-9.44-2.45-1.27-1.15-1.76-2.62-1.79-4.17-3.11,2.47-6.51,4.57-10,6.38-5.2,2.7-10.71,4.81-16.34,6.34-2.52.69-5.09,1.32-7.7,1.5-2.36.16-4.75-.03-7.04-.64-4.16-1.1-7.93-3.65-10.24-7.42-.37-.6-.69-1.22-.97-1.86-1.67,22.05,8.83,29.31,8.83,29.31,10.47-11.26,15.84-10.62,57.23-11.52,25.1-.55,39.09-27.18,39.09-27.18,0,0,1.53,14.6-12.52,26.28,22.99-5.61,23.25-19.79,26.31-27.25.22,6.67,1.79,12.44-8.43,25.33,9.32-4.56,14.67-9.44,17.95-14.38-6.26,19.02,10.29,41.37,21.39,52.27,12.26,12.04,26.06,74.01.51,93.65,24.27.79,29.38-13.3,29.89-16.34,1.53,3.77,0,8.75-1.02,10.84,4.62,0,11.05-18.76,14.47-37.4,1.53-10.59,1.93-21.25.06-31.78-.13-.18-.24-.38-.31-.59Z"/>
            <path class="cls-19" d="m180.48,96.48c-.23.3-2.45-.94-5.13-4.02-1.33-1.53-2.74-3.55-3.96-5.98-1.23-2.43-2.24-5.3-2.82-8.42-.56-3.13-.62-6.18-.33-8.9.29-2.73.89-5.12,1.6-7.05,1.42-3.86,3.05-5.83,3.37-5.64.4.22-.52,2.49-1.34,6.26-.83,3.74-1.39,9.08-.35,14.77,1.03,5.69,3.43,10.46,5.51,13.65,2.08,3.21,3.74,4.99,3.44,5.34Z"/>
            <path class="cls-46" d="m228.94,122.08c-.21-.73.02-1.44.5-1.95-3.2-7.81-6.61-15.48-7.6-27.72-1.79-22.12-2.68-64.64-33.47-68.18,0,0-16.73-27.79-69.23-23.86C72.16,3.9,43.27,36.55,39.95,61.67c-.52,3.95-.67,7.48-.55,10.63.07-2.03.25-4.19.55-6.49,3.32-25.13,32.21-57.77,79.2-61.29,52.5-3.93,69.23,23.86,69.23,23.86,30.78,3.53,31.68,46.06,33.47,68.18,1.06,13.07,4.88,20.94,8.25,29.32-.02-.09-.04-.17-.06-.26-.38-1.18-.75-2.35-1.1-3.54Z"/>
            <path class="cls-46" d="m85.24,49.96c8.08-3.52,16.13-7.44,24.65-9.76,8.98-2.45,18.3-2.9,27.52-1.86,18.55,2.1,36.32,9.53,55.05,10.27,7.34.29,14.67-.47,21.75-2.24-3.62-9.07-9.19-16.6-17.97-20.15-3.39,1.8-6.93,3.29-10.58,4.43-8.87,2.75-18.28,3.29-27.38,1.55-4.72-.91-9.35-2.28-13.99-3.53-2.41-.65-4.84-1.26-7.28-1.77-2.09-.43-4.25-.91-6.38-1.02-3.64-.19-7.39.61-10.95,1.25-5.47.98-10.92,2.14-16.37,3.23-11.75,2.36-23.73,4.86-35.74,5.07-4,.07-10.13-.03-14.25-2.34-6.43,7.93-10.69,16.4-12.58,24.36,14.68,4.99,30.81-1.52,44.51-7.49Z"/>
            <path class="cls-56" d="m189.32,115.94c-.11,0-.22,0-.34-.03l-15.56-2.67c-1.1-.19-1.84-1.25-1.66-2.38.18-1.13,1.23-1.89,2.32-1.7l15.56,2.67c1.1.19,1.84,1.25,1.66,2.38-.17,1.01-1.02,1.73-1.99,1.73Z"/>
            <g>
              <path class="cls-44" d="m185.12,117.24c2.19-5.95,7-10.59,13.03-12.11,5.82-1.46,14.97-1.35,21.12,8.5,12.3,19.7-11.43,43.59-33.68,32.44,0,0-7.52-9.71-.47-28.83Z"/>
              <g>
                <g class="cls-50">
                  <path class="cls-3" d="m195.1,124.82c.64-3.52,2.72-7.07,6.07-8.08,4.14-1.25,8.68,2.16,9.75,6.44,1.08,4.29-.67,8.9-3.47,12.27-2.57,3.09-6.94,5.46-10.43,3.53-2.67-1.47-3.71-4.93-3.57-8.03.14-3.1,1.65-6.13,1.65-6.13Z"/>
                </g>
                <path class="cls-47" d="m193.66,123.89c.38-1.46,1.01-2.89,1.89-4.17.44-.64.96-1.22,1.52-1.76.29-.25.59-.51.89-.74.32-.21.62-.45.96-.64.34-.18.66-.38,1.01-.53l.53-.23.26-.11s.15-.06.2-.07l.17-.04c.83-.19,1.62-.2,2.4-.09.78.11,1.52.37,2.21.69.67.36,1.31.77,1.85,1.28,1.09,1.01,1.91,2.22,2.49,3.51-1.02-.97-2.05-1.88-3.19-2.51-.56-.33-1.15-.56-1.74-.75-.6-.15-1.19-.26-1.78-.26-.58,0-1.18.09-1.67.26l-.08.03s.02,0-.04.03l-.2.11-.41.22c-.27.13-.52.33-.78.49-1.02.69-1.89,1.56-2.59,2.58-.53.76-.97,1.6-1.33,2.5.17-.14.34-.29.53-.41,1.14-.74,2.49-.94,3.68-.7,1.19.24,2.28.82,3.1,1.73-1.14-.2-2.21-.31-3.22-.24-1.01.06-1.95.34-2.76.86-.41.26-.79.58-1.15.95-.35.38-.7.8-1.02,1.26-.07.1-.13.21-.2.31-.06.33-.11.66-.16.99-.35,2.67-.39,5.45-.28,8.29-1.12-2.62-1.65-5.5-1.66-8.43.01-1.47.18-2.95.56-4.41Z"/>
              </g>
            </g>
            <g>
              <path class="cls-67" d="m186.34,107.58c-1.93-5.08-5.9-8.36-9.97-11.57,3.72,19.37,9.54,39.57-7.51,44.89,5.55.03,22.92-10.71,17.48-33.33Z"/>
              <path class="cls-17" d="m186.34,107.58c-1.93-5.08-5.9-8.36-9.97-11.57,3.72,19.37,9.54,39.57-7.51,44.89,5.55.03,22.92-10.71,17.48-33.33Z"/>
            </g>
            <path class="cls-19" d="m121.8,74.78c-.19-.42,1.85-1.67,4.88-3.93.38-.28.77-.58,1.18-.89.41-.31.81-.67,1.24-1.01.87-.68,1.74-1.49,2.66-2.31,1.81-1.7,3.71-3.67,5.53-5.89,1.8-2.24,3.34-4.51,4.65-6.64.62-1.09,1.25-2.1,1.74-3.1.25-.5.53-.97.75-1.43.22-.47.44-.92.64-1.35,1.62-3.46,2.45-5.74,2.89-5.63.2.05.23.68.12,1.8-.03.28-.07.59-.12.93-.06.34-.14.7-.23,1.08-.18.77-.37,1.67-.7,2.61-.16.48-.32.98-.49,1.5-.18.52-.41,1.04-.63,1.59-.42,1.11-1,2.23-1.59,3.42-1.25,2.34-2.83,4.81-4.74,7.19-1.94,2.36-4.03,4.39-6.04,6.08-1.04.81-2.01,1.59-2.99,2.22-.49.32-.94.65-1.41.92-.47.27-.92.52-1.35.77-.85.5-1.67.85-2.38,1.17-.36.16-.69.31-1,.42-.32.11-.61.2-.87.29-1.05.32-1.67.4-1.75.21Z"/>
            <path class="cls-19" d="m74.71,85.06c.01-.21.94-.39,2.59-.54.41-.03.87-.07,1.37-.1.5-.05,1.04-.14,1.61-.22,1.15-.17,2.47-.26,3.9-.59.72-.14,1.47-.28,2.25-.43.78-.15,1.57-.41,2.4-.61,1.67-.37,3.39-1.01,5.21-1.62,3.6-1.36,7.44-3.15,11.23-5.5,3.76-2.4,7.06-5.09,9.88-7.76,1.35-1.39,2.69-2.67,3.77-4.03.55-.67,1.14-1.27,1.62-1.92.48-.65.95-1.27,1.39-1.86.94-1.16,1.61-2.32,2.28-3.3.32-.5.65-.94.92-1.38.26-.44.5-.84.71-1.2.88-1.43,1.46-2.2,1.65-2.12.19.08-.03,1.01-.6,2.65-.15.41-.31.86-.49,1.36-.2.49-.46.99-.73,1.54-.55,1.09-1.13,2.38-1.98,3.67-.41.66-.84,1.34-1.29,2.06-.46.71-1.02,1.39-1.56,2.12-1.05,1.49-2.38,2.9-3.75,4.42-2.85,2.92-6.29,5.84-10.25,8.36-3.99,2.47-8.09,4.28-11.92,5.56-1.94.56-3.77,1.13-5.55,1.42-.88.16-1.72.36-2.55.46-.83.09-1.62.17-2.38.25-1.51.2-2.89.14-4.09.15-.6,0-1.16,0-1.67-.03-.51-.06-.98-.11-1.4-.16-1.68-.22-2.59-.44-2.58-.65Z"/>
            <path class="cls-19" d="m131.61,83.11c-.07-.2.46-.65,1.47-1.28.25-.16.53-.33.84-.51.3-.2.63-.41.98-.64.7-.46,1.53-.92,2.38-1.54.43-.29.89-.6,1.36-.92.47-.32.93-.7,1.43-1.06,1-.7,2-1.56,3.07-2.43,2.08-1.81,4.26-3.91,6.35-6.32,2.07-2.43,3.83-4.91,5.32-7.26.7-1.2,1.41-2.31,1.97-3.42.29-.55.59-1.07.84-1.59.25-.52.49-1.02.72-1.5.49-.94.83-1.84,1.19-2.61.18-.39.34-.75.49-1.08.14-.34.26-.65.39-.92.49-1.11.85-1.7,1.06-1.65.2.05.22.75.07,1.98-.04.31-.09.65-.14,1.03-.07.37-.17.77-.27,1.2-.21.85-.43,1.84-.81,2.88-.18.53-.37,1.08-.57,1.65-.2.57-.47,1.14-.72,1.75-.49,1.22-1.15,2.45-1.83,3.75-1.44,2.56-3.24,5.25-5.44,7.83-2.22,2.55-4.6,4.73-6.9,6.51-1.18.85-2.28,1.68-3.4,2.33-.55.33-1.07.68-1.6.96-.53.27-1.04.54-1.53.79-.96.52-1.89.86-2.69,1.19-.4.16-.77.31-1.12.42-.36.11-.68.2-.98.27-1.18.31-1.86.38-1.93.18Z"/>
            <path class="cls-19" d="m46.82,101.33c-.19.06-.69-.8-1.33-2.47-.65-1.67-1.36-4.18-1.88-7.37-.26-1.59-.43-3.36-.54-5.26-.06-1.9-.07-3.94.11-6.08.33-4.28,1.28-8.95,3.02-13.6,1.77-4.63,4.14-8.75,6.71-12.14,1.27-1.71,2.62-3.21,3.92-4.57,1.33-1.33,2.61-2.52,3.85-3.52,2.48-2,4.66-3.36,6.23-4.15,1.57-.79,2.51-1.08,2.61-.91.24.43-3.05,2.45-7.45,6.7-1.1,1.06-2.25,2.28-3.43,3.62-1.16,1.37-2.37,2.85-3.51,4.52-2.31,3.3-4.46,7.21-6.13,11.55-1.63,4.36-2.61,8.73-3.07,12.77-.25,2.02-.33,3.95-.37,5.76,0,1.81.03,3.5.15,5.05.46,6.18,1.56,9.94,1.1,10.09Z"/>
            <path class="cls-19" d="m93.81,17.57c.06.2-.71.7-2.15,1.41-.36.17-.76.37-1.2.58-.43.22-.9.47-1.41.73-1,.53-2.17,1.05-3.41,1.77-.62.34-1.28.69-1.96,1.07-.68.37-1.36.81-2.07,1.23-1.45.82-2.92,1.84-4.48,2.86-3.08,2.14-6.35,4.64-9.57,7.54-3.2,2.93-6.02,5.95-8.47,8.82-1.18,1.47-2.34,2.84-3.31,4.21-.5.68-1,1.32-1.45,1.96-.44.65-.87,1.27-1.27,1.86-.84,1.17-1.5,2.29-2.13,3.25-.31.48-.6.93-.87,1.34-.26.42-.49.8-.7,1.15-.87,1.37-1.44,2.1-1.63,2.01-.19-.09.03-.99.58-2.55.15-.39.31-.82.48-1.29.19-.47.43-.96.67-1.49.5-1.06,1.05-2.29,1.8-3.57.36-.65.75-1.32,1.14-2.02.4-.7.88-1.39,1.35-2.13.92-1.48,2.04-2.96,3.21-4.53,2.41-3.08,5.29-6.28,8.61-9.32,3.35-3.01,6.8-5.54,10.08-7.62,1.66-.99,3.23-1.96,4.78-2.71.77-.39,1.5-.79,2.22-1.11.73-.32,1.43-.62,2.1-.92,1.33-.61,2.58-1.01,3.67-1.39.55-.18,1.05-.36,1.53-.5.48-.12.92-.23,1.31-.33,1.58-.38,2.48-.49,2.54-.28Z"/>
            <path class="cls-19" d="m206.69,88.77c-.35.14-2.07-3.44-3.24-9.67-.61-3.1-1.06-6.83-1.45-10.94-.4-4.11-.75-8.6-1.43-13.23-.35-2.3-.81-4.51-1.35-6.62-.54-2.11-1.21-4.1-1.92-5.96-1.47-3.69-3.23-6.82-5.09-9.14-.92-1.17-1.83-2.16-2.68-2.98-.43-.4-.84-.78-1.21-1.12-.39-.32-.76-.61-1.08-.88-.16-.13-.32-.26-.46-.38-.15-.11-.29-.21-.43-.31-.26-.19-.48-.37-.66-.52-.35-.3-.51-.5-.47-.6.04-.1.29-.08.74.05.22.06.5.15.81.27.16.06.33.12.51.19.18.08.36.18.56.28.39.2.82.44,1.3.7.45.29.93.63,1.45.99,1.02.75,2.11,1.71,3.21,2.88,2.22,2.32,4.32,5.59,6.04,9.47.83,1.95,1.6,4.04,2.21,6.27.61,2.22,1.11,4.55,1.48,6.96.7,4.79.97,9.36,1.22,13.47.24,4.11.47,7.78.79,10.85.6,6.13,1.58,9.84,1.14,9.99Z"/>
            <path class="cls-19" d="m222.97,132.43c-.09-.05-.1-.31-.02-.75.04-.22.1-.49.17-.8.05-.32.12-.68.2-1.09.15-.81.28-1.81.36-2.96.04-1.16.08-2.47-.09-3.92-.28-2.89-1.11-6.3-2.59-9.88-1.45-3.57-3.63-7.32-5.91-11.33-2.29-4-4.42-7.98-5.79-11.9-1.4-3.91-2-7.64-2.16-10.75-.16-3.12.1-5.64.41-7.34.32-1.7.68-2.6.87-2.57.47.06.02,3.83.83,9.7.42,2.93,1.2,6.37,2.63,9.95,1.42,3.6,3.51,7.37,5.8,11.36,2.27,4,4.46,7.91,5.88,11.83,1.44,3.88,2.12,7.64,2.14,10.81.04,1.59-.15,3.02-.36,4.26-.25,1.24-.57,2.27-.91,3.08-.18.4-.34.76-.49,1.06-.17.29-.32.53-.45.72-.26.38-.44.55-.54.51Z"/>
            <path class="cls-19" d="m174.83,31.24c-.44.23-2-2.93-5.8-6.82-1.88-1.95-4.36-4.03-7.35-5.97-2.99-1.93-6.52-3.69-10.38-5.09-3.88-1.38-7.72-2.34-11.25-3.04-3.54-.71-6.77-1.2-9.49-1.61-5.45-.81-8.84-1.41-8.81-1.84.03-.41,3.46-.58,9.02-.32,2.78.14,6.09.41,9.76.99,3.66.57,7.68,1.48,11.77,2.93,4.09,1.48,7.8,3.43,10.91,5.62,3.1,2.2,5.61,4.6,7.41,6.87,1.8,2.27,2.97,4.32,3.59,5.82.63,1.49.81,2.38.63,2.47Z"/>
            <path class="cls-46" d="m173.88,38.9c-.26.08-.68-.35-1.22-1.17-.13-.2-.27-.43-.42-.69-.16-.25-.34-.51-.53-.79-.38-.56-.74-1.23-1.25-1.9-.24-.34-.49-.7-.75-1.08-.26-.37-.57-.73-.87-1.12-.57-.79-1.29-1.54-2-2.36-1.5-1.58-3.24-3.19-5.25-4.68-2.03-1.45-4.09-2.61-6.04-3.54-.99-.42-1.92-.86-2.84-1.15-.45-.16-.89-.34-1.32-.47-.43-.13-.84-.25-1.24-.37-.79-.27-1.52-.4-2.17-.58-.32-.09-.62-.17-.9-.25-.28-.06-.54-.12-.77-.18-.93-.25-1.47-.52-1.48-.79-.01-.28.52-.53,1.51-.76.25-.06.53-.11.83-.17.31-.04.64-.05,1-.07.72-.02,1.55-.09,2.45.02.45.04.93.09,1.42.14.49.06,1,.18,1.52.29,1.06.18,2.15.55,3.31.93,2.27.84,4.68,2.06,6.97,3.7,2.27,1.67,4.18,3.6,5.71,5.52.72.99,1.42,1.92,1.94,2.89.27.48.55.92.77,1.38.21.46.41.91.6,1.33.4.83.62,1.66.83,2.36.1.35.2.68.26.99.05.31.09.6.12.86.12,1.04.05,1.63-.2,1.72Z"/>
            <path class="cls-46" d="m209.41,63.58c-.57-.06-.78-2.02-1.27-5-.06-.37-.13-.76-.2-1.17-.07-.4-.17-.82-.25-1.25-.15-.87-.4-1.77-.62-2.73-.51-1.9-1.16-3.95-2.01-6.04-.87-2.08-1.85-3.99-2.82-5.69-.51-.83-.97-1.65-1.47-2.36-.24-.36-.46-.73-.7-1.06-.24-.33-.46-.65-.68-.96-1.74-2.44-2.96-3.96-2.61-4.42.17-.22.69-.11,1.51.29.21.1.43.22.67.35.24.14.48.31.74.5.52.38,1.12.8,1.71,1.36.3.28.61.57.94.87.32.31.62.66.95,1.01.66.7,1.28,1.52,1.93,2.38,1.25,1.77,2.45,3.85,3.42,6.18.95,2.33,1.56,4.67,1.93,6.82.15,1.08.3,2.11.32,3.08.02.48.05.95.04,1.4-.02.45-.03.88-.05,1.29-.21,3.29-.99,5.21-1.49,5.14Z"/>
            <path class="cls-46" d="m83.38,37.31c.25.53-1.96,2.07-5.34,4.65-.42.32-.86.66-1.32,1.01-.46.35-.91.75-1.4,1.13-.98.76-1.97,1.65-3.03,2.55-2.08,1.86-4.29,3.98-6.48,6.34-2.17,2.38-4.09,4.78-5.78,7.02-.81,1.14-1.62,2.21-2.3,3.26-.35.52-.71,1.01-1.02,1.5-.31.49-.62.96-.9,1.41-2.3,3.61-3.66,5.97-4.19,5.75-.47-.19,0-2.96,1.77-7.09.23-.51.47-1.05.72-1.61.26-.56.57-1.11.87-1.7.59-1.18,1.34-2.38,2.12-3.64,1.61-2.49,3.57-5.11,5.87-7.63,2.32-2.51,4.75-4.67,7.07-6.48,1.18-.87,2.3-1.71,3.42-2.39.55-.35,1.07-.7,1.6-1,.53-.29,1.04-.57,1.52-.84,3.92-2.06,6.59-2.72,6.8-2.25Z"/>
            <path class="cls-46" d="m101.16,71.37c-.11-.25.34-.77,1.23-1.47.22-.18.47-.36.75-.56.27-.21.56-.44.87-.68.62-.49,1.36-.98,2.11-1.62.39-.3.79-.62,1.21-.95.42-.33.83-.71,1.27-1.08.89-.72,1.77-1.58,2.72-2.45,1.84-1.8,3.76-3.88,5.6-6.21,1.81-2.36,3.36-4.75,4.66-6.99.61-1.14,1.24-2.21,1.73-3.26.25-.52.52-1.02.74-1.51.22-.49.43-.97.64-1.42.44-.9.74-1.74,1.07-2.47.16-.37.31-.71.45-1.02.13-.32.25-.61.37-.87.47-1.04.86-1.61,1.12-1.56.26.05.38.72.36,1.91,0,.3-.02.63-.04.99-.03.36-.1.74-.16,1.16-.14.83-.27,1.78-.56,2.8-.14.51-.28,1.05-.43,1.61-.16.56-.38,1.12-.58,1.71-.39,1.19-.95,2.4-1.52,3.68-1.23,2.52-2.81,5.18-4.78,7.74-1.99,2.54-4.17,4.71-6.29,6.5-1.09.86-2.11,1.69-3.16,2.34-.52.33-1,.68-1.49.96-.5.28-.97.54-1.43.79-.9.52-1.78.87-2.54,1.19-.38.15-.73.3-1.07.42-.34.1-.65.19-.93.27-1.13.29-1.79.32-1.9.07Z"/>
            <path class="cls-67" d="m241.03,128.28c-.16-1.97-.56-4.14-1.18-6.34-.62-2.2-1.45-4.5-2.52-6.85-1.07-2.34-2.39-4.72-4.04-7.05-1.5-2.12-2.99-4.29-4.4-6.59-2.82-4.57-4.96-9.16-6.28-13.55-1.34-4.4-2.04-8.63-2.58-12.21-.53-3.59-.91-6.56-1.31-8.61-.4-2.05-.8-3.19-1.22-3.19-.41,0-.8,1.15-1.12,3.23-.31,2.08-.58,5.1-.58,8.89.02,3.78.29,8.35,1.48,13.39,1.17,5.06,3.46,10.35,6.53,15.31,1.52,2.48,3.16,4.79,4.78,6.93,1.46,1.93,2.72,3.97,3.81,5.99,1.08,2.02,1.99,4.02,2.74,5.93.75,1.91,1.31,3.69,1.7,5.37,1.11,4.7.92,8.29.99,10.14.06.38.12.76.17,1.14.05.11.11.19.2.22.37.13,1.17-.83,1.9-2.91.71-2.07,1.28-5.3.93-9.26Z"/>
            <g>
              <path class="cls-18" d="m179.4,49.05c-2.41-2.15-8.92,1.47-14.55,8.1-5.63,6.62-8.24,13.73-5.83,15.88,2.41,2.15,8.92-1.47,14.55-8.1,5.63-6.62,8.24-13.73,5.83-15.88Zm-8.03,13.92c-2.79,3.28-6.02,5.08-7.22,4.01-1.19-1.07.1-4.59,2.89-7.87,2.79-3.28,6.02-5.08,7.22-4.01,1.19,1.07-.1,4.59-2.89,7.87Z"/>
              <path class="cls-36" d="m178.58,48.03c-2.41-2.15-8.92,1.47-14.55,8.1-5.63,6.62-8.24,13.73-5.83,15.88,2.41,2.15,8.92-1.47,14.55-8.1,5.63-6.62,8.24-13.73,5.83-15.88Zm-8.03,13.92c-2.79,3.28-6.02,5.08-7.22,4.01-1.19-1.07.1-4.59,2.89-7.87,2.79-3.28,6.02-5.08,7.22-4.01,1.19,1.07-.1,4.59-2.89,7.87Z"/>
              <path class="cls-14" d="m178.58,48.03c-.3-.27-.67-.45-1.1-.54,2.32,2.2-.29,9.26-5.88,15.83-4.92,5.78-10.51,9.28-13.45,8.64.02.02.03.03.05.05,2.41,2.15,8.92-1.47,14.55-8.1,5.63-6.62,8.24-13.73,5.83-15.88Z"/>
              <path class="cls-66" d="m174.54,52.78c-1.45-1.3-5.39.89-8.78,4.89-3.4,4-4.97,8.29-3.52,9.58,1.45,1.3,5.39-.89,8.78-4.89,3.4-4,4.97-8.29,3.52-9.58Z"/>
              <path class="cls-14" d="m174.54,52.78c-.28-.25-.64-.37-1.07-.37.05.03.1.06.14.1,1.43,1.28-.1,5.5-3.41,9.42-3.06,3.62-6.57,5.71-8.22,5,.07.12.16.23.26.32,1.45,1.3,5.39-.89,8.78-4.89s4.97-8.29,3.52-9.58Z"/>
              <g>
                <path class="cls-49" d="m160.55,70.78c.03.08-.02.19-.18.3-.16.11-.44.18-.78.14-.34-.04-.73-.2-1.07-.53-.34-.34-.57-.81-.66-1.31-.18-1.02.17-1.86.45-2.34.29-.49.57-.73.72-.67.16.06.16.44.08.96-.07.53-.19,1.19-.07,1.82.11.64.43,1.02.79,1.24.34.22.66.23.73.39Z"/>
                <path class="cls-49" d="m177.32,50.12c-.08.03-.2-.1-.38-.28-.18-.18-.45-.44-.79-.53-.29-.07-.83.02-1.39.21-.58.18-1.15.47-1.79.84-1.26.71-2.32,1.52-3.14,2.09-.81.57-1.36.88-1.47.76-.11-.12.23-.66.91-1.41.68-.75,1.73-1.73,3.11-2.5.66-.38,1.4-.72,2.09-.86.69-.14,1.37-.22,2.01.09.57.33.77.8.86,1.1.08.31.05.49-.03.52Z"/>
              </g>
            </g>
            <g>
              <path class="cls-56" d="m75.76,149.67c-16.73,0-30.35-13.95-30.35-31.09s13.61-31.09,30.35-31.09,30.34,13.95,30.34,31.09-13.61,31.09-30.34,31.09Zm0-57.46c-14.19,0-25.74,11.83-25.74,26.37s11.54,26.37,25.74,26.37,25.74-11.83,25.74-26.37-11.54-26.37-25.74-26.37Z"/>
              <path class="cls-56" d="m146.15,149.67c-16.73,0-30.35-13.95-30.35-31.09s13.61-31.09,30.35-31.09,30.34,13.95,30.34,31.09-13.61,31.09-30.34,31.09Zm0-57.46c-14.19,0-25.74,11.83-25.74,26.37s11.54,26.37,25.74,26.37,25.74-11.83,25.74-26.37-11.54-26.37-25.74-26.37Z"/>
              <path class="cls-56" d="m118.11,118.82c-.24,0-.48-.04-.72-.14-6.99-2.72-12.5-.17-12.73-.06-1.01.48-2.21.04-2.68-.99-.47-1.03-.05-2.25.95-2.74.29-.14,7.23-3.44,15.89-.07,1.04.41,1.56,1.6,1.17,2.67-.31.82-1.07,1.33-1.89,1.33Z"/>
            </g>
            <g>
              <g class="cls-54">
                <path class="cls-7" d="m106.49,124.49s.3,10.15-9.27,14.47c0,0-3.38,2.06,1.74,6.07,5.12,4.01,14.97,5.12,14.97,5.12,0,0,17.4-15.65-7.45-25.66Z"/>
              </g>
              <path class="cls-53" d="m106.49,124.49c.16,1.6.04,3.21-.22,4.82-.29,1.6-.74,3.19-1.49,4.69-.75,1.49-1.81,2.91-3.23,3.94-.7.52-1.51.92-2.31,1.22-.62.22-1.19.53-1.49.89-.3.35-.39.65-.29,1.16.08.5.42,1.08.83,1.61.83,1.09,1.99,2.03,3.21,2.86,2.47,1.66,5.29,2.83,8.32,3.55-3.12.26-6.34-.48-9.22-1.96-1.43-.77-2.82-1.7-3.97-3.04-.56-.68-1.1-1.46-1.36-2.51-.14-.51-.14-1.12-.01-1.71.14-.59.45-1.12.81-1.53.18-.2.38-.37.58-.54.2-.14.41-.29.62-.4.21-.11.42-.22.63-.31l.63-.24c.66-.22,1.25-.5,1.82-.87,1.14-.73,2.11-1.81,2.9-3.04.79-1.23,1.45-2.62,1.96-4.07.53-1.45.94-2.96,1.29-4.52Z"/>
            </g>
            <g>
              <g>
                <path class="cls-58" d="m95.6,160.39s12.48,5.2,32.24-.85c0,0-.23,13.99-14.58,15.27-1.05.09-6.81.29-9.92-2.13-3.11-2.43-4.28-8.54-7.74-12.29Z"/>
                <g class="cls-38">
                  <g>
                    <path class="cls-20" d="m124.77,158.61c-1.28.3-2.58.38-3.88.56-2.77.39-5.54.62-8.34.7-2.81.07-5.63.11-8.44-.03-2.42-.11-4.85-.36-7.26-.2.1.29,1.7,4.83,4.31,6.12,2.69,1.34,9.34,3.34,20.16.34,5.29-1.46,5.75-4.81,4.83-7.85-.46.13-.92.25-1.39.36Z"/>
                    <path class="cls-25" d="m105.85,174.11c2.47,1.58,5.27,2.32,8.1,1.96,2.83-.36,5.3-1.79,7.19-3.93-1.54-1.83-4.71-2.84-8.17-2.4-3.45.44-6.2,2.22-7.12,4.37Z"/>
                    <path class="cls-34" d="m111.31,170.95c1.19-.98,3.88-1.09,4.51-.1.76,1.18-.79.33-2.28.43-1.8.12-2.99.31-2.23-.32Z"/>
                  </g>
                </g>
              </g>
              <path class="cls-47" d="m95.6,160.39c1.44,1.42,2.5,3.21,3.47,5.01,1.47,2.56,2.55,5.6,5.03,7.18,2.48,1.45,5.46,1.65,8.27,1.6,8.27-.32,14.13-5.96,14.75-14.66,0,0,.93.75.93.75-10.39,3.05-22.17,4.13-32.44.12h0Zm0,0c10.5,2.97,21.72,1.53,32.04-1.58l.97-.3s-.04,1.04-.04,1.04c-.27,6.53-4.16,12.82-10.19,14.88-3.85,1.38-8.04,1.44-11.97.33-1.97-.53-3.92-1.75-5.02-3.59-2.22-3.5-3.13-7.6-5.78-10.78h0Z"/>
            </g>
          </g>
          <g>
            <path class="cls-23" d="m63.58,307.18c.16-.16,0-1.62-.72-3.54-.36-.97-.89-2-1.57-3.03-.7-1.01-1.56-1.99-2.59-2.83-1.04-.81-2.14-1.39-3.19-1.79-1.07-.37-2.09-.57-2.98-.6-1.79-.09-3.01.27-3.07.51-.08.29.98.41,2.57.84.8.2,1.71.53,2.69.97.96.47,1.98,1.06,2.96,1.84.97.79,1.82,1.68,2.54,2.56.71.9,1.3,1.78,1.76,2.58.92,1.58,1.41,2.7,1.61,2.5Z"/>
            <path class="cls-44" d="m16.15,285.53s10.5,9.65,19.37,10.18c8.88.52,22.99-2.43,26.86,9.33,3.15,9.57,8.17,3.89,3.91,18.55-.94,3.24-4.88,18.81-20.08,16.49-11.64-1.78-11.9-2.5-24.73-18.12-4.5-5.48-8.92-15.44-16.51-16.01-2.35-.18,4.32-19.85,11.19-20.41Z"/>
          </g>
          <path class="cls-24" d="m218.86,286.22c-.24-.71,6.95-3.46,14.75-8.65,7.84-5.13,13.19-10.67,13.75-10.17.25.22-.78,1.91-2.91,4.27-2.12,2.36-5.39,5.33-9.45,8.01-4.06,2.67-8.07,4.52-11.07,5.54-3,1.03-4.96,1.31-5.07,1Z"/>
          <path class="cls-24" d="m217.76,237.78c.5.56-4.54,5.4-8.51,12.85-4.06,7.4-5.34,14.27-6.09,14.16-.32-.04-.43-1.85.07-4.71.49-2.85,1.68-6.73,3.79-10.65,2.12-3.91,4.71-7.03,6.83-9.01,2.12-1.98,3.69-2.88,3.9-2.64Z"/>
          <path class="cls-24" d="m217.95,252.62c.46.53-.72,2.3-2.62,3.96-1.91,1.66-3.82,2.58-4.28,2.05-.46-.53.72-2.3,2.62-3.96,1.91-1.66,3.82-2.58,4.28-2.05Z"/>
          <g>
            <g>
              <rect class="cls-20" x="22.22" y="225.47" width="25.02" height="29.59" transform="translate(-207.03 262.28) rotate(-86.98)"/>
              <path class="cls-64" d="m20.73,227.13l29.3,1.55-1.3,24.74-29.3-1.55,1.3-24.74m-.24-.26l-1.33,25.23,29.8,1.57,1.33-25.23-29.8-1.57h0Z"/>
            </g>
            <g>
              <rect class="cls-20" x="52.02" y="227.04" width="25.02" height="29.59" transform="translate(-180.37 293.53) rotate(-86.98)"/>
              <path class="cls-64" d="m50.53,228.7l29.3,1.55-1.3,24.74-29.3-1.55,1.3-24.74m-.24-.26l-1.33,25.23,29.8,1.57,1.33-25.23-29.8-1.57h0Z"/>
            </g>
            <g>
              <rect class="cls-20" x="81.82" y="228.61" width="25.02" height="29.59" transform="translate(-153.71 324.78) rotate(-86.98)"/>
              <path class="cls-64" d="m80.33,230.27l29.3,1.55-1.3,24.74-29.3-1.55,1.3-24.74m-.24-.26l-1.33,25.23,29.8,1.57,1.33-25.23-29.8-1.57h0Z"/>
            </g>
            <g>
              <rect class="cls-20" x="111.62" y="230.18" width="25.02" height="29.59" transform="translate(-127.05 356.04) rotate(-86.98)"/>
              <path class="cls-64" d="m110.13,231.84l29.3,1.55-1.3,24.74-29.3-1.55,1.3-24.74m-.24-.26l-1.33,25.23,29.8,1.57,1.33-25.23-29.8-1.57h0Z"/>
            </g>
            <g>
              <rect class="cls-20" x="141.42" y="231.75" width="25.02" height="29.59" transform="translate(-100.38 387.29) rotate(-86.98)"/>
              <path class="cls-64" d="m139.93,233.41l29.3,1.55-1.3,24.74-29.3-1.55,1.3-24.74m-.24-.26l-1.33,25.23,29.8,1.57,1.33-25.23-29.8-1.57h0Z"/>
            </g>
            <g>
              <rect class="cls-20" x="20.89" y="250.7" width="25.02" height="29.59" transform="translate(-233.49 284.87) rotate(-86.98)"/>
              <path class="cls-64" d="m19.4,252.36l29.3,1.55-1.3,24.74-29.3-1.55,1.3-24.74m-.24-.26l-1.33,25.23,29.8,1.57,1.33-25.23-29.8-1.57h0Z"/>
            </g>
            <g>
              <rect class="cls-20" x="50.69" y="252.27" width="25.02" height="29.59" transform="translate(-206.83 316.12) rotate(-86.98)"/>
              <path class="cls-64" d="m49.2,253.93l29.3,1.55-1.3,24.74-29.3-1.54,1.3-24.74m-.24-.26l-1.33,25.23,29.8,1.57,1.33-25.23-29.8-1.57h0Z"/>
            </g>
            <g>
              <rect class="cls-20" x="80.49" y="253.84" width="25.02" height="29.59" transform="translate(-180.17 347.36) rotate(-86.98)"/>
              <path class="cls-64" d="m79,255.5l29.3,1.55-1.3,24.74-29.3-1.55,1.3-24.74m-.24-.26l-1.33,25.23,29.8,1.57,1.33-25.23-29.8-1.57h0Z"/>
            </g>
            <g>
              <rect class="cls-20" x="110.29" y="255.42" width="25.02" height="29.59" transform="translate(-153.5 378.61) rotate(-86.98)"/>
              <path class="cls-64" d="m108.8,257.07l29.3,1.55-1.3,24.74-29.3-1.54,1.3-24.74m-.24-.26l-1.33,25.23,29.8,1.57,1.33-25.23-29.8-1.57h0Z"/>
            </g>
            <g>
              <rect class="cls-20" x="140.09" y="256.99" width="25.02" height="29.59" transform="translate(-126.84 409.86) rotate(-86.98)"/>
              <path class="cls-64" d="m138.6,258.64l29.3,1.55-1.3,24.74-29.3-1.54,1.3-24.74m-.24-.26l-1.33,25.23,29.8,1.57,1.33-25.23-29.8-1.57h0Z"/>
            </g>
            <g>
              <rect class="cls-20" x="19.56" y="275.93" width="25.02" height="29.59" transform="translate(-259.95 307.44) rotate(-86.98)"/>
              <path class="cls-64" d="m18.07,277.59l29.3,1.55-1.3,24.74-29.3-1.54,1.3-24.74m-.24-.26l-1.33,25.23,29.8,1.57,1.33-25.23-29.8-1.57h0Z"/>
            </g>
            <g>
              <rect class="cls-20" x="49.36" y="277.51" width="25.02" height="29.59" transform="translate(-233.29 338.69) rotate(-86.98)"/>
              <path class="cls-64" d="m47.87,279.16l29.3,1.54-1.3,24.74-29.3-1.55,1.3-24.74m-.24-.26l-1.33,25.23,29.8,1.57,1.33-25.23-29.8-1.57h0Z"/>
            </g>
            <g>
              <rect class="cls-20" x="79.16" y="279.08" width="25.02" height="29.59" transform="translate(-206.62 369.94) rotate(-86.98)"/>
              <path class="cls-64" d="m77.67,280.73l29.3,1.55-1.3,24.74-29.3-1.54,1.3-24.74m-.24-.26l-1.33,25.23,29.8,1.57,1.33-25.23-29.8-1.57h0Z"/>
            </g>
            <g>
              <rect class="cls-20" x="108.96" y="280.65" width="25.02" height="29.59" transform="translate(-179.97 401.18) rotate(-86.98)"/>
              <path class="cls-64" d="m107.47,282.3l29.3,1.54-1.3,24.74-29.3-1.54,1.3-24.74m-.24-.26l-1.33,25.23,29.8,1.57,1.33-25.23-29.8-1.57h0Z"/>
            </g>
            <g>
              <rect class="cls-20" x="138.76" y="282.22" width="25.02" height="29.59" transform="translate(-153.3 432.42) rotate(-86.98)"/>
              <path class="cls-64" d="m137.27,283.88l29.3,1.54-1.3,24.74-29.3-1.55,1.3-24.74m-.24-.26l-1.33,25.23,29.8,1.57,1.33-25.23-29.8-1.57h0Z"/>
            </g>
            <g>
              <rect class="cls-20" x="18.23" y="301.17" width="25.02" height="29.59" transform="translate(-286.41 330.02) rotate(-86.98)"/>
              <path class="cls-64" d="m16.74,302.82l29.3,1.54-1.3,24.74-29.3-1.54,1.3-24.74m-.24-.26l-1.33,25.23,29.8,1.57,1.33-25.23-29.8-1.57h0Z"/>
            </g>
            <g>
              <rect class="cls-20" x="48.03" y="302.74" width="25.02" height="29.59" transform="translate(-259.75 361.25) rotate(-86.98)"/>
              <path class="cls-64" d="m46.54,304.39l29.3,1.55-1.3,24.74-29.3-1.55,1.3-24.74m-.24-.26l-1.33,25.23,29.8,1.57,1.33-25.23-29.8-1.57h0Z"/>
            </g>
            <g>
              <rect class="cls-20" x="77.83" y="304.31" width="25.02" height="29.59" transform="translate(-233.08 392.5) rotate(-86.98)"/>
              <path class="cls-64" d="m76.34,305.97l29.3,1.54-1.3,24.74-29.3-1.54,1.3-24.74m-.24-.26l-1.33,25.23,29.8,1.57,1.33-25.23-29.8-1.57h0Z"/>
            </g>
            <g>
              <rect class="cls-20" x="107.63" y="305.88" width="25.02" height="29.59" transform="translate(-206.42 423.76) rotate(-86.98)"/>
              <path class="cls-64" d="m106.14,307.54l29.3,1.54-1.3,24.74-29.3-1.54,1.3-24.74m-.24-.26l-1.33,25.23,29.8,1.57,1.33-25.23-29.8-1.57h0Z"/>
            </g>
            <g>
              <rect class="cls-20" x="137.43" y="307.45" width="25.02" height="29.59" transform="translate(-179.76 455.01) rotate(-86.98)"/>
              <path class="cls-64" d="m135.94,309.11l29.3,1.55-1.3,24.74-29.3-1.55,1.3-24.74m-.24-.26l-1.33,25.23,29.8,1.57,1.33-25.23-29.8-1.57h0Z"/>
            </g>
            <g>
              <rect class="cls-20" x="16.9" y="326.4" width="25.02" height="29.59" transform="translate(-312.86 352.58) rotate(-86.98)"/>
              <path class="cls-64" d="m15.41,328.06l29.3,1.54-1.3,24.74-29.3-1.55,1.3-24.74m-.24-.26l-1.33,25.23,29.8,1.57,1.33-25.23-29.8-1.57h0Z"/>
            </g>
            <g>
              <rect class="cls-20" x="46.7" y="327.97" width="25.02" height="29.59" transform="translate(-286.2 383.84) rotate(-86.98)"/>
              <path class="cls-64" d="m45.21,329.63l29.3,1.55-1.3,24.74-29.3-1.54,1.3-24.74m-.24-.26l-1.33,25.23,29.8,1.57,1.33-25.23-29.8-1.57h0Z"/>
            </g>
            <g>
              <rect class="cls-20" x="76.5" y="329.54" width="25.02" height="29.59" transform="translate(-259.54 415.09) rotate(-86.98)"/>
              <path class="cls-64" d="m75.01,331.2l29.3,1.54-1.3,24.74-29.3-1.54,1.3-24.74m-.24-.26l-1.33,25.23,29.8,1.57,1.33-25.23-29.8-1.57h0Z"/>
            </g>
            <g>
              <rect class="cls-20" x="106.3" y="331.11" width="25.02" height="29.59" transform="translate(-232.88 446.34) rotate(-86.98)"/>
              <path class="cls-64" d="m104.81,332.77l29.3,1.54-1.3,24.74-29.3-1.55,1.3-24.74m-.24-.26l-1.33,25.23,29.8,1.57,1.33-25.23-29.8-1.57h0Z"/>
            </g>
            <g>
              <rect class="cls-20" x="136.1" y="332.68" width="25.02" height="29.59" transform="translate(-206.21 477.59) rotate(-86.98)"/>
              <path class="cls-64" d="m134.61,334.34l29.3,1.55-1.3,24.74-29.3-1.54,1.3-24.74m-.24-.26l-1.33,25.23,29.8,1.57,1.33-25.23-29.8-1.57h0Z"/>
            </g>
            <g>
              <rect class="cls-20" x="15.57" y="351.63" width="25.02" height="29.59" transform="translate(-339.32 375.17) rotate(-86.98)"/>
              <path class="cls-64" d="m14.08,353.29l29.3,1.55-1.3,24.74-29.3-1.55,1.3-24.74m-.24-.26l-1.33,25.23,29.8,1.57,1.33-25.23-29.8-1.57h0Z"/>
            </g>
            <g>
              <rect class="cls-20" x="45.37" y="353.2" width="25.02" height="29.59" transform="translate(-312.66 406.42) rotate(-86.98)"/>
              <path class="cls-64" d="m43.88,354.86l29.3,1.54-1.3,24.74-29.3-1.54,1.3-24.74m-.24-.26l-1.33,25.23,29.8,1.57,1.33-25.23-29.8-1.57h0Z"/>
            </g>
            <g>
              <rect class="cls-20" x="75.17" y="354.77" width="25.02" height="29.59" transform="translate(-286 437.67) rotate(-86.98)"/>
              <path class="cls-64" d="m73.68,356.43l29.3,1.54-1.3,24.74-29.3-1.54,1.3-24.74m-.24-.26l-1.33,25.23,29.8,1.57,1.33-25.23-29.8-1.57h0Z"/>
            </g>
            <g>
              <rect class="cls-20" x="104.97" y="356.35" width="25.02" height="29.59" transform="translate(-259.34 468.9) rotate(-86.98)"/>
              <path class="cls-64" d="m103.48,358l29.3,1.55-1.3,24.74-29.3-1.55,1.3-24.74m-.24-.26l-1.33,25.23,29.8,1.57,1.33-25.23-29.8-1.57h0Z"/>
            </g>
            <g>
              <rect class="cls-20" x="134.77" y="357.92" width="25.02" height="29.59" transform="translate(-232.68 500.15) rotate(-86.98)"/>
              <path class="cls-64" d="m133.28,359.57l29.3,1.54-1.3,24.74-29.3-1.54,1.3-24.74m-.24-.26l-1.33,25.23,29.8,1.57,1.33-25.23-29.8-1.57h0Z"/>
            </g>
            <g>
              <rect class="cls-20" x="14.24" y="376.86" width="25.02" height="29.59" transform="translate(-365.78 397.75) rotate(-86.98)"/>
              <path class="cls-64" d="m12.75,378.52l29.3,1.55-1.3,24.74-29.3-1.54,1.3-24.74m-.24-.26l-1.33,25.23,29.8,1.57,1.33-25.23-29.8-1.57h0Z"/>
            </g>
            <g>
              <rect class="cls-20" x="44.04" y="378.43" width="25.02" height="29.59" transform="translate(-339.12 428.98) rotate(-86.98)"/>
              <path class="cls-64" d="m42.55,380.09l29.3,1.54-1.3,24.74-29.3-1.54,1.3-24.74m-.24-.26l-1.33,25.23,29.8,1.57,1.33-25.23-29.8-1.57h0Z"/>
            </g>
            <g>
              <rect class="cls-20" x="73.84" y="380.01" width="25.02" height="29.59" transform="translate(-312.46 460.22) rotate(-86.98)"/>
              <path class="cls-64" d="m72.35,381.66l29.3,1.54-1.3,24.74-29.3-1.55,1.3-24.74m-.24-.26l-1.33,25.23,29.8,1.57,1.33-25.23-29.8-1.57h0Z"/>
            </g>
            <g>
              <rect class="cls-20" x="103.64" y="381.58" width="25.02" height="29.59" transform="translate(-285.79 491.49) rotate(-86.98)"/>
              <path class="cls-64" d="m102.15,383.23l29.3,1.55-1.3,24.74-29.3-1.54,1.3-24.74m-.24-.26l-1.33,25.23,29.8,1.57,1.33-25.23-29.8-1.57h0Z"/>
            </g>
            <g>
              <rect class="cls-20" x="133.44" y="383.15" width="25.02" height="29.59" transform="translate(-259.13 522.74) rotate(-86.98)"/>
              <path class="cls-64" d="m131.95,384.8l29.3,1.54-1.3,24.74-29.3-1.54,1.3-24.74m-.24-.26l-1.33,25.23,29.8,1.57,1.33-25.23-29.8-1.57h0Z"/>
            </g>
          </g>
          <g>
            <path class="cls-31" d="m129.91,556.31h-.81c-.52,0-.94-.43-.94-.95,0-.52.42-.94.94-.94h.81c.75,0,1.5,0,2.26-.01h.01c.52,0,.94.41.94.93,0,.52-.41.95-.93.95-.77,0-1.53.01-2.28.01Zm-5.94-.1h-.03c-1.04-.03-2.07-.07-3.09-.13-.52-.03-.92-.47-.9-.99.03-.52.48-.94.99-.89,1.01.05,2.03.09,3.06.12.52.02.93.45.91.97-.02.51-.44.91-.94.91Zm13.34-.05c-.5,0-.92-.4-.94-.91-.02-.52.38-.96.9-.98,1.01-.04,2.03-.09,3.06-.15.51-.03.97.37.99.89.03.52-.37.97-.89.99-1.04.06-2.07.11-3.09.15h-.04Zm-21.54-.4s-.05,0-.07,0c-1.04-.08-2.07-.17-3.08-.27-.52-.05-.9-.51-.85-1.03.05-.52.51-.9,1.03-.85,1,.09,2.02.18,3.05.26.52.04.91.49.87,1.01-.04.49-.45.87-.94.87Zm29.74-.1c-.49,0-.9-.37-.94-.87-.04-.52.34-.97.86-1.02,1.01-.08,2.03-.18,3.05-.28.52-.04.98.33,1.03.85.05.52-.33.98-.85,1.03-1.03.1-2.06.2-3.08.28-.03,0-.05,0-.08,0Zm-37.91-.72s-.08,0-.12,0c-1.04-.13-2.06-.27-3.07-.41-.52-.07-.87-.55-.8-1.07.07-.51.55-.87,1.07-.8,1,.14,2.01.28,3.04.41.52.06.88.54.82,1.05-.06.48-.47.83-.93.83Zm46.07-.12c-.47,0-.87-.35-.93-.83-.06-.52.3-.99.82-1.05,1.01-.13,2.02-.26,3.04-.4.51-.07.99.29,1.07.8.07.52-.29.99-.8,1.07-1.03.15-2.05.28-3.07.41-.04,0-.08,0-.12,0Zm-54.2-1.09c-.05,0-.11,0-.16-.01-1.04-.18-2.05-.37-3.05-.56-.51-.1-.85-.59-.75-1.1.1-.51.59-.84,1.1-.75.98.19,1.99.37,3.01.55.51.09.86.58.77,1.09-.08.46-.48.78-.93.78Zm62.32-.1c-.45,0-.85-.33-.93-.79-.09-.51.26-1,.77-1.09,1-.17,2.01-.34,3.02-.53.51-.1,1,.25,1.1.76.09.51-.25,1-.76,1.1-1.02.19-2.04.36-3.05.53-.05,0-.1.01-.16.01Zm-70.38-1.51c-.07,0-.14,0-.21-.02-1.03-.23-2.04-.47-3.02-.71-.51-.12-.81-.64-.69-1.14.12-.51.64-.81,1.14-.69.97.24,1.96.47,2.98.7.51.11.83.62.71,1.13-.1.44-.49.74-.92.74Zm78.45,0c-.44,0-.83-.31-.92-.75-.11-.51.22-1.01.73-1.11.99-.21,1.99-.42,3-.65.51-.12,1.01.21,1.13.71.11.51-.21,1.01-.71,1.13-1.01.23-2.02.44-3.02.65-.06.01-.13.02-.19.02Zm8-1.83c-.42,0-.81-.29-.91-.71-.13-.51.18-1.02.69-1.14.99-.25,1.98-.5,2.97-.76.5-.14,1.02.17,1.15.67.13.5-.17,1.02-.67,1.15-1,.27-2,.52-2.99.77-.08.02-.15.03-.23.03Zm-94.41-.18c-.08,0-.17-.01-.26-.04-1.03-.29-2.02-.58-2.98-.88-.5-.15-.78-.68-.63-1.18.15-.5.68-.78,1.18-.63.94.29,1.92.58,2.94.86.5.14.79.66.65,1.16-.12.42-.5.69-.91.69Zm102.34-1.97c-.41,0-.78-.27-.9-.68-.15-.5.14-1.02.64-1.17.98-.28,1.95-.57,2.94-.88.5-.15,1.02.13,1.18.63.15.5-.13,1.02-.63,1.18-.99.3-1.98.6-2.96.88-.09.03-.18.04-.26.04Zm-110.18-.5c-.1,0-.21-.02-.31-.05-1.05-.36-2.02-.72-2.92-1.06-.49-.18-.73-.73-.55-1.21.18-.49.73-.73,1.21-.55.88.33,1.84.68,2.87,1.04.49.17.75.71.58,1.2-.14.39-.5.63-.89.63Zm118.02-1.94c-.4,0-.76-.25-.89-.65-.16-.49.1-1.03.6-1.19.96-.32,1.93-.65,2.9-.98.49-.17,1.03.09,1.2.58.17.49-.09,1.03-.58,1.2-.98.34-1.96.67-2.93.99-.1.03-.2.05-.3.05Zm-125.68-1.04c-.13,0-.26-.03-.38-.08-1.85-.81-2.81-1.32-2.85-1.34-.46-.24-.64-.81-.4-1.27.24-.46.81-.64,1.27-.4,0,0,.96.5,2.74,1.28.48.21.69.77.48,1.24-.16.35-.5.56-.86.56Z"/>
            <path class="cls-31" d="m198.98,538.47c-.52,0-.94-.42-.94-.94,0-.52.42-.94.94-.95,0,0,1.16,0,3.07-.08.53.02.96.39.98.91.02.52-.39.96-.91.98-1.96.07-3.13.08-3.13.08h0Zm8.24-.35c-.49,0-.91-.38-.94-.88-.04-.52.36-.97.88-1.01.97-.07,1.99-.15,3.06-.24.53-.03.98.34,1.02.86.05.52-.34.98-.86,1.02-1.08.1-2.12.18-3.1.24-.02,0-.04,0-.07,0Zm8.19-.79c-.47,0-.87-.35-.93-.82-.07-.52.3-.99.82-1.05,1-.13,2.01-.27,3.03-.42.52-.08,1,.27,1.08.79.08.51-.27,1-.79,1.08-1.03.16-2.06.3-3.08.43-.04,0-.08,0-.12,0Zm8.12-1.35c-.44,0-.83-.3-.92-.75-.11-.51.22-1.01.73-1.12,1.04-.22,2.03-.45,2.96-.7.5-.13,1.02.17,1.15.67.13.5-.17,1.02-.67,1.15-.96.25-1.98.49-3.05.72-.07.01-.13.02-.2.02Zm7.9-2.26c-.38,0-.74-.23-.88-.6-.19-.49.05-1.03.54-1.22.99-.38,1.91-.79,2.72-1.21.46-.24,1.03-.06,1.27.4.24.46.06,1.03-.4,1.27-.88.45-1.86.89-2.91,1.3-.11.04-.23.06-.34.06Zm6.93-4.27c-.22,0-.45-.08-.63-.24-.39-.35-.42-.94-.08-1.33.33-.38.62-.77.84-1.16.26-.45.83-.61,1.29-.35.45.26.61.83.35,1.29-.29.51-.65,1-1.07,1.48-.19.21-.45.32-.7.32Z"/>
            <path class="cls-31" d="m240.61,524.59c-.44,0-.83-.31-.92-.75-.11-.51.22-1.01.73-1.11.01,0,1.04-.23,2.59-1.07.46-.25,1.03-.08,1.28.38.25.46.08,1.03-.38,1.28-1.82.99-3.05,1.25-3.1,1.26-.06.01-.13.02-.19.02Zm6.99-4.18c-.25,0-.51-.1-.69-.3-.35-.38-.33-.98.05-1.33.71-.65,1.39-1.37,2.05-2.14.34-.4.93-.44,1.33-.11.4.34.45.93.11,1.33-.7.83-1.44,1.6-2.2,2.31-.18.17-.41.25-.64.25Zm5.1-6.39c-.17,0-.33-.04-.48-.14-.45-.27-.59-.85-.32-1.29.5-.84.99-1.72,1.44-2.63.23-.47.79-.66,1.26-.43.47.23.66.8.43,1.26-.47.96-.98,1.89-1.51,2.77-.18.29-.49.46-.81.46Z"/>
            <path class="cls-31" d="m60.31,537.9c-.52,0-.94-.42-.94-.93,0-.52.41-.95.93-.95,1.88-.02,3.03-.08,3.04-.08.5-.03.96.37.99.89s-.37.96-.89.99c-.05,0-1.2.06-3.12.08h0Zm-5.14-.07h-.03c-.98-.03-2.02-.08-3.1-.15-.52-.03-.92-.48-.88-1,.03-.52.48-.92,1-.88,1.07.07,2.09.11,3.05.15.52.02.93.45.91.97-.02.51-.44.91-.94.91Zm-8.2-.58s-.07,0-.1,0c-1.02-.11-2.05-.24-3.09-.39-.52-.08-.87-.55-.8-1.07.08-.51.55-.87,1.07-.8,1.02.15,2.03.28,3.02.39.52.06.89.52.83,1.04-.05.48-.46.84-.94.84Zm-8.11-1.3c-.07,0-.14,0-.2-.02-1.06-.23-2.08-.49-3.04-.75-.5-.14-.79-.66-.66-1.16.14-.5.66-.79,1.16-.66.93.26,1.92.5,2.94.73.51.11.83.61.72,1.12-.1.44-.49.74-.92.74Zm-7.85-2.4c-.12,0-.24-.02-.36-.07-1.02-.43-1.99-.89-2.87-1.37-.46-.25-.62-.82-.37-1.28.25-.46.82-.62,1.28-.37.82.45,1.73.88,2.69,1.28.48.2.71.75.51,1.23-.15.36-.5.58-.87.58Zm-6.92-4.33c-.24,0-.47-.09-.66-.27-.27-.27-.53-.54-.78-.82-.34-.39-.31-.99.08-1.33.39-.34.99-.31,1.33.08.22.25.44.48.68.71.37.36.38.96.02,1.33-.18.19-.43.28-.68.28Z"/>
            <path class="cls-31" d="m21.74,522.33c-.06,0-.13,0-.19-.02-.05-.01-1.31-.27-3.11-1.05-.48-.21-.7-.76-.49-1.24s.76-.7,1.24-.49c1.6.69,2.73.93,2.74.93.51.11.84.6.73,1.11-.09.45-.48.75-.92.75Zm-7.36-3.56c-.2,0-.4-.06-.57-.19-.86-.65-1.68-1.36-2.42-2.12-.36-.37-.36-.97.01-1.33.37-.36.97-.36,1.33.01.68.69,1.42,1.34,2.21,1.93.42.31.5.9.19,1.32-.19.25-.47.38-.75.38Zm-5.39-6.12c-.33,0-.65-.17-.82-.48-.52-.92-.98-1.9-1.37-2.91-.19-.49.06-1.03.54-1.22.49-.19,1.03.06,1.22.55.35.92.77,1.81,1.25,2.65.26.45.1,1.03-.36,1.29-.15.08-.31.12-.46.12Z"/>
          </g>
          <g>
            <path class="cls-44" d="m196.05,335.2c-1.4-1.85-5.51-7.3-7.59-9.41-7.52-7.65-15.34-5.88-23.05-11.75-.21,1.42-.45,2.83-.49,4.27-.05,1.85.03,3.68-.17,5.5,1.83,1.4,1.83,2.1,1.75,3.17-.05.76-1.78.84-4.23.55-.09,0-.19-.02-.28-.03-4.65-.58-11.72-2.37-15.3-3.4-5.59-1.61-10.15-6.27-14.85-5.1-4.93,1.22-2.33,4.4.76,7.41,3.09,3.01,13.69,10.05,17.6,10.46-1.24-.13-3.96.85-7.36.02-4.1-1-8.84-4.18-11.35-6.02-2.21-1.62-4.51-2.73-7.22-3.18-4.3-.72-5.18,3.86-3.9,6.05.51.88,3.65,3.34,3.65,3.34,0,0-2.89.33-2.19,3.94.37,1.91,5.17,6.68,7.18,8.02-3.28,1.97-1.31,4.73,2.01,8.01,6.01,5.95,13.82,6.78,21.83,8.25,8.01,1.47,17.72,1.69,26.72-.45,3.86-.92,17.52-6.05,18.13-9.2,1.45-7.54,3-14.32-1.64-20.44Z"/>
            <g>
              <path class="cls-23" d="m137.63,330.3c.19-.22,1.15.3,2.66,1.09,1.51.8,3.61,1.82,6.03,2.78,4.83,1.9,9.02,2.87,8.93,3.46-.06.52-4.55.43-9.67-1.57-2.55-1-4.7-2.31-6.08-3.47-1.39-1.15-2.04-2.08-1.87-2.28Z"/>
              <path class="cls-23" d="m122.82,336.12c.2-.21,1.53.76,3.67,2.25,2.14,1.49,5.13,3.46,8.69,5.11,3.55,1.69,6.99,2.65,9.51,3.24,2.53.57,4.15.83,4.14,1.14,0,.25-1.67.5-4.36.27-2.68-.25-6.4-1.04-10.14-2.82-3.75-1.75-6.77-4.01-8.73-5.83-1.97-1.83-2.95-3.18-2.77-3.37Z"/>
              <path class="cls-23" d="m127.55,347.79c.24-.18,1.07.61,2.49,1.67,1.42,1.07,3.48,2.36,5.97,3.41,4.99,2.09,9.54,2.53,9.49,3.15-.01.26-1.18.48-3.07.39-1.88-.09-4.5-.55-7.21-1.68-2.7-1.14-4.88-2.78-6.15-4.22-1.29-1.45-1.73-2.58-1.52-2.73Z"/>
            </g>
          </g>
          <g>
            <path class="cls-44" d="m.39,292.35c-.4-2.26-.71-4.65.25-6.82,1-2.26,3.27-4.02,4.12-6.32.68-1.84.43-3.95,1.64-5.58,1.33-1.79,4-2.41,6.42-2.63,9.86-.87,19.97,2.86,25.95,9.56,1.09,1.22,2.08,2.65,1.93,4.21-.16,1.56-2.01,3.07-3.68,2.55.74,1.63,1.5,3.36,1.14,5.11-.36,1.75-2.31,3.41-4.28,2.99,1.44,1.25,1.79,3.35.82,4.95s-3.18,2.58-5.21,2.31c2.37.64,2.15,3.94.15,5.28-2.01,1.33-4.75,1.25-7.24,1.11s-3.63.21-5.64,1.54c-3.29,2.18,2.14,9.64-3.7,8.77-1.34-1.79-2.7-3.54-4.26-5.19-.91-.97-1.91-1.89-2.68-2.96-.91-1.25-1.46-2.68-1.94-4.09-.78-2.27-1.46-4.57-2.06-6.88-.68-2.62-1.26-5.25-1.73-7.91Z"/>
            <path class="cls-23" d="m9.58,303.83c3.21-1.6,6.81-2.38,10.41-2.52,3.6-.11,7.25.4,10.56,1.79-3.53-.55-7.02-.83-10.52-.7-3.5.11-6.96.64-10.45,1.42Z"/>
            <path class="cls-23" d="m6.02,292.92c4.77-.84,9.62-1.29,14.5-.94,2.45.21,4.85.68,7.19,1.36,2.34.67,4.63,1.57,6.72,2.79-2.26-.86-4.59-1.47-6.92-1.99-2.34-.5-4.7-.9-7.07-1.08-4.76-.34-9.57-.08-14.42-.15Z"/>
            <path class="cls-23" d="m8.44,281.22c2.59-.25,5.14-.67,7.73-.98,2.58-.29,5.21-.53,7.86-.31l.99.1c.34.06.7.11,1.03.22.67.18,1.29.44,1.89.72,1.21.56,2.33,1.25,3.43,1.95,2.19,1.43,4.22,3.06,6.27,4.66-2.26-1.3-4.43-2.73-6.68-4-1.12-.64-2.26-1.23-3.42-1.73-.58-.25-1.17-.46-1.76-.61-.3-.09-.59-.1-.88-.16l-.95-.08c-2.54-.14-5.11,0-7.7.17-2.58.15-5.21.29-7.81.06Z"/>
          </g>
        </g>
      </g>
    </g>
  </g>
</svg>