<?xml version="1.0" encoding="UTF-8"?>
<svg id="Layer_2" data-name="Layer 2" xmlns="http://www.w3.org/2000/svg" viewBox="0 0 55.77 34.2">
  <defs>
    <style>
      .cls-1 {
        fill: #ffbf00;
      }

      .cls-2 {
        fill: none;
        stroke: #313131;
        stroke-miterlimit: 10;
        stroke-width: 1.57px;
      }

      .cls-3 {
        fill: #ff9c00;
      }
    </style>
  </defs>
  <g id="arrows">
    <g>
      <g>
        <path class="cls-1" d="m53.85,14.89L34.63,1.29c-1.79-1.27-4.28.01-4.28,2.21v5.75H3.5c-1.5,0-2.71,1.21-2.71,2.71v10.28c0,1.5,1.21,2.71,2.71,2.71h26.86v5.75c0,2.2,2.48,3.48,4.28,2.21l19.21-13.6c1.53-1.08,1.53-3.34,0-4.42Z"/>
        <path class="cls-3" d="m.79,17.05v5.19c0,1.5,1.21,2.71,2.71,2.71h26.86v5.75c0,2.2,2.48,3.48,4.28,2.21l19.21-13.6c.78-.55,1.15-1.41,1.14-2.26H.79Z"/>
      </g>
      <path class="cls-2" d="m54.41,18.77c.12-.15.23-.31.31-.47,0,0,0-.02.01-.03.54-1.14.25-2.58-.88-3.38L34.63,1.29c-1.79-1.27-4.28.01-4.28,2.21v5.75H3.5c-1.5,0-2.71,1.21-2.71,2.71v10.28c0,.56.17,1.08.46,1.52.49.72,1.31,1.19,2.25,1.19h26.86v5.75c0,1.79,1.64,2.97,3.22,2.67.36-.07.72-.22,1.06-.46l19.21-13.6c.19-.14.36-.29.51-.46.02-.02.03-.05.05-.08Z"/>
    </g>
  </g>
</svg>