<?xml version="1.0" encoding="UTF-8"?>
<svg id="Layer_2" data-name="Layer 2" xmlns="http://www.w3.org/2000/svg" viewBox="0 0 414.41 150.54">
  <defs>
    <style>
      .cls-1 {
        fill: #92c83e;
      }

      .cls-2 {
        fill: #f6f7d1;
      }
    </style>
  </defs>
  <g id="Layer_13" data-name="Layer 13">
    <g>
      <path class="cls-2" d="m4.99,49.21C8.94,16.3,16.36.25,47.03.25c156.35-.73,156.33.48,312.69-.25,30.66,0,46.03,16.39,49.45,49.38,3.13,30.23.92,19.65,4.06,49.88,3.42,32.98,2.56,47.6-45.82,50.8-161.07,1.39-156.08-.66-317.16-.66-43.95,0-53.38-17.15-49.43-50.06,4.2-30.74.57-20.07,4.18-50.12Z"/>
      <path class="cls-1" d="m359.74,8.35c31.1.02,39.11,22.51,41.12,41.88,1.63,15.77,2.56,35.43,4.06,49.88,1.86,17.93,3.48,23.16-3.03,30.88-6.77,8.02-16.31,9.44-34.7,10.7-.06,0-.12,0-.18,0-37.51.32-68.94.48-96.09.48-32.94,0-56.82-.22-84.47-.47-34.65-.32-68.79-.67-136.19-.67-16.24,0-26.32.9-33.37-7.04-9.23-10.41-9.2-21.75-7.77-33.68,1.92-14.03,2.23-33.88,4.18-50.12C17.21,17.52,23.99,8.6,47.03,8.6c35.1-.16,65.58-.24,93.15-.24,24.47,0,44.15.06,63.19.12h.5c19.01.06,38.66.12,62.76.12,27.43,0,57.88-.08,93.09-.24h.02Zm7.12,127.35c16.66-1.15,23.35-1.98,29.02-8.7,5.39-6.38,4.74-10.06,3.06-26.26-1.45-13.99-2.37-33.64-4.06-49.89-1.8-17.36-8.76-36.48-35.14-36.5-35.21.16-65.67.24-93.1.24-24.1,0-43.76-.06-62.77-.12h-.5c-19.03-.06-38.71-.12-63.17-.12-27.57,0-58.04.08-93.14.24-14.75,0-23.09-2.84-27.79,36.31-1.99,16.6-2.31,36.49-4.18,50.17-1.28,10.66-.94,19.17,6.81,27.91,5.86,6.6,13.91,6.03,28.37,6.03,67.43,0,101.59.36,136.14.67,27.74.25,51.6.47,84.52.47,27.12,0,58.5-.16,95.95-.48Z"/>
    </g>
  </g>
</svg>