<?xml version="1.0" encoding="UTF-8"?>
<svg id="Layer_2" data-name="Layer 2" xmlns="http://www.w3.org/2000/svg" xmlns:xlink="http://www.w3.org/1999/xlink" viewBox="0 0 91.5 73.54">
  <defs>
    <style>
      .cls-1 {
        fill: #303030;
      }

      .cls-2 {
        fill: #cfdee9;
      }

      .cls-3 {
        filter: url(#drop-shadow-1);
      }

      .cls-4 {
        fill: #f6645a;
      }

      .cls-5 {
        fill: #6093d9;
      }

      .cls-6 {
        fill: #6295d5;
      }

      .cls-7 {
        fill: #5d91d8;
      }

      .cls-8 {
        fill: #5b8ccf;
      }

      .cls-9 {
        fill: #f36362;
      }

      .cls-10 {
        fill: #cddde6;
      }

      .cls-11 {
        fill: #fa6c63;
      }
    </style>
    <filter id="drop-shadow-1" filterUnits="userSpaceOnUse">
      <feOffset dx="-3.08" dy="3.08"/>
      <feGaussianBlur result="blur" stdDeviation="7.7"/>
      <feFlood flood-color="#000" flood-opacity=".35"/>
      <feComposite in2="blur" operator="in"/>
      <feComposite in="SourceGraphic"/>
    </filter>
  </defs>
  <g id="Simulation">
    <g class="cls-3">
      <path class="cls-1" d="m61.42,20.19c4.02-.95,8.46-.65,12.1,1.41,3.59,2,6.1,5.63,7.08,9.58,1.18,4.58-.29,9.53-3.01,13.3-4.66,6.03-13.98,7.47-20.23,3.09-6.82-4.06-9.05-13.87-4.89-20.56,2.07-3.2,5.23-5.83,8.95-6.82Zm.41.96c-2.73.69-5.17,2.31-7.03,4.4-4.68,5.16-4.57,13.87.33,18.83,3.62,4.1,9.73,5.81,14.92,4.07,5.85-1.91,9.83-7.87,9.93-13.93-.05-5.21-3.24-10.31-8.01-12.47-3.12-1.54-6.8-1.76-10.15-.9Z"/>
      <path class="cls-1" d="m63.93,24.85c2.27-1.01,5.1.58,5.21,3.11.43,3.07-3.84,5.11-6.02,2.93-2.05-1.58-1.74-5.18.81-6.04Zm.08,1.18c-1.37.76-1.48,2.77-.43,3.83,1.28,1.52,4.33.78,4.51-1.28.34-2.1-2.35-3.87-4.08-2.55Z"/>
      <path class="cls-1" d="m63.98,38.52c2.67-1.63,6.06,1.36,5.12,4.22-.81,2.81-5.08,3.12-6.51.68-1.22-1.64-.44-4.11,1.39-4.91Zm.04,1.19c-1.94,1.2-.59,4.2,1.43,4.33,1.76.31,3.19-1.74,2.52-3.32-.56-1.57-2.7-2.11-3.95-1.01Z"/>
      <path class="cls-1" d="m42.46,3.36c1.22-2.12,3.66-3.25,6.06-3.26,4.82-.16,9.65.02,14.48-.1,0,3.08-.03,6.16-.02,9.23-4.49.06-8.98.03-13.48-.04-.03,1.87-.07,3.75-.09,5.63,4.62-.04,9.23,0,13.85-.02,2.95.01,5.93-.14,8.83.52,5.11,1.2,9.58,4.78,11.95,9.47,1.16,2.19,1.75,4.63,2.2,7.06,1.58,8.99,3.08,18,4.74,26.98,1.06,3.34.41,7.1-1.58,9.97-2.66,3.65-7.58,5.47-11.98,4.48-3.52-.55-6.05-3.29-8.37-5.75-3.38-3.73-6.93-7.3-10.27-11.06-.59-.55-1.11-1.45-2.04-1.3-7.66.03-15.32,0-22.98.02-3.54,3.94-7.15,7.81-10.75,11.69-2.49,2.52-4.93,5.54-8.61,6.25-5.48,1.49-11.88-1.54-13.79-6.98-1.17-2.94-.48-6.13.15-9.11,1.35-7.28,2.54-14.59,3.89-21.87.72-3.71,1.08-7.6,3.05-10.92,2.81-5.35,8.49-9.1,14.57-9.27,6.28-.13,12.57-.01,18.86-.04.26-3.84-.83-8.1,1.32-11.58Zm1.09,3.35c-.21,2.77-.13,5.56-.22,8.33,1.3-.04,2.61-.05,3.92-.11.17-2.52-.84-5.57.84-7.71,4.19-.53,8.51.11,12.75-.2,0-1.51.02-3.01.08-4.51-4.15-.17-8.3-.13-12.44-.11-2.38-.03-4.73,1.89-4.93,4.31ZM9.08,26.58c-1.19,2.71-1.54,5.67-2.08,8.55-1.31,7.6-2.66,15.18-4.06,22.77-.49,2.45-1.09,5.11-.04,7.51,1.08,2.94,3.8,5.11,6.88,5.63l.09.09c1.65.14,3.36.19,4.93-.45,2.88-1.05,4.75-3.6,6.85-5.69,3.65-4.02,7.47-7.88,10.91-12.07,7.68-.24,15.36.05,23.04-.08,1.05.04,2.16-.12,3.19.22,3.82,4.23,7.83,8.3,11.7,12.49,2.3,2.33,4.56,5.29,8.06,5.66,5.39.9,11.03-3.81,10.58-9.37-1.45-8.03-2.82-16.09-4.25-24.13-.82-4.53-1.27-9.33-3.82-13.3-2.66-4.43-7.72-7.22-12.88-7.19-14.92-.07-29.83-.15-44.75-.02-6.11-.13-11.91,3.83-14.36,9.36Z"/>
      <path class="cls-6" d="m47.27,9c-.08.37-.13.74-.15,1.13,0-.44.05-.81.15-1.13Z"/>
      <path class="cls-6" d="m50.74,7.02c-.29.01-.59.03-.88.04.51-.07.88-.04.88-.04Z"/>
      <path class="cls-10" d="m89.14,61.85c-1.45-8.03-2.82-16.09-4.25-24.13-.82-4.53-1.27-9.33-3.82-13.3-2.66-4.43-7.72-7.22-12.88-7.19-14.92-.07-29.83-.15-44.75-.02-6.11-.13-11.91,3.83-14.36,9.36-1.19,2.71-1.54,5.67-2.08,8.55-1.31,7.6-2.66,15.18-4.06,22.77-.49,2.45-1.09,5.11-.04,7.51,1.08,2.94,3.8,5.11,6.88,5.63l.09.09c1.65.14,3.36.19,4.93-.45,2.88-1.05,4.75-3.6,6.85-5.69,3.65-4.02,7.47-7.88,10.91-12.07,7.68-.24,15.36.05,23.04-.08,1.05.04,2.16-.12,3.19.22,3.82,4.23,7.83,8.3,11.7,12.49,2.3,2.33,4.56,5.29,8.06,5.66,5.39.9,11.03-3.81,10.58-9.37Zm-62.34-11.7c-8.77.81-16.95-7.44-16.2-16.18.29-7.28,6.42-13.65,13.66-14.32,7.83-.83,15.53,5.45,16.29,13.29,1.18,8.23-5.46,16.55-13.74,17.21Zm30.56-2.58c-6.82-4.06-9.05-13.87-4.89-20.56,2.07-3.2,5.23-5.83,8.95-6.82,4.02-.95,8.46-.65,12.1,1.41,3.59,2,6.1,5.63,7.08,9.58,1.18,4.58-.29,9.53-3.01,13.3-4.66,6.03-13.98,7.47-20.23,3.09Z"/>
      <path class="cls-1" d="m24.24,19.65c7.83-.83,15.53,5.45,16.29,13.29,1.18,8.23-5.46,16.55-13.74,17.21-8.77.81-16.95-7.44-16.2-16.18.29-7.28,6.42-13.65,13.66-14.32Zm-1.74,1.47c-6.91,1.46-11.8,8.65-10.84,15.6.82,4.72,3.9,9.14,8.34,11.1,5.93,2.86,13.68.4,17.16-5.11,2.59-3.76,3.04-8.78,1.48-13.03-2.36-6.24-9.61-10.27-16.14-8.55Z"/>
      <path class="cls-7" d="m22.5,21.12c6.53-1.71,13.78,2.31,16.14,8.55,1.56,4.25,1.11,9.27-1.48,13.03-3.48,5.51-11.23,7.97-17.16,5.11-4.44-1.95-7.52-6.38-8.34-11.1-.96-6.95,3.93-14.14,10.84-15.6Zm.83,4.62c-1.76,1.57-.91,4.13-.73,6.14-1.88-.33-4.19-1.09-5.77.43-1.93,1.54-1.36,4.81.71,5.95,1.58,1.12,3.48.05,5.12-.32-.28,1.73-1.15,3.65-.22,5.34,1.16,2.45,5.21,2.3,6.35-.11,1.01-1.64-.02-3.53-.41-5.18,2.06-.07,4.24,1.17,6.18.02,2.22-1.15,2.11-4.66.04-5.91-1.7-1.28-3.87-.56-5.73-.15.18-1.75.99-3.77-.14-5.35-1.09-1.78-3.86-2.41-5.41-.86Z"/>
      <path class="cls-5" d="m61.83,21.15c3.35-.86,7.02-.64,10.15.9,4.77,2.16,7.96,7.26,8.01,12.47-.1,6.06-4.09,12.02-9.93,13.93-5.2,1.75-11.3.04-14.92-4.07-4.9-4.97-5-13.68-.33-18.83,1.86-2.09,4.3-3.71,7.03-4.4Zm2.1,3.69c-2.55.86-2.86,4.46-.81,6.04,2.18,2.18,6.45.14,6.02-2.93-.1-2.53-2.94-4.12-5.21-3.11Zm-7.11,6.61c-1.89.71-2.68,3.09-1.91,4.89.69,1.97,3.21,2.71,5.05,1.99,2.49-.88,2.98-4.77.92-6.35-1.07-1.02-2.75-1.01-4.06-.53Zm14.87.12c-2.53.85-3.23,4.43-1.18,6.16,1.99,2.24,6.01.2,5.82-2.64.17-2.37-2.39-4.4-4.64-3.52Zm-7.71,6.94c-1.82.8-2.61,3.27-1.39,4.91,1.43,2.44,5.69,2.13,6.51-.68.94-2.87-2.45-5.86-5.12-4.22Z"/>
      <path class="cls-1" d="m23.33,25.74c1.55-1.54,4.32-.92,5.41.86,1.13,1.58.32,3.6.14,5.35,1.86-.41,4.03-1.14,5.73.15,2.07,1.24,2.18,4.75-.04,5.91-1.94,1.16-4.12-.09-6.18-.02.39,1.65,1.42,3.54.41,5.18-1.14,2.41-5.2,2.56-6.35.11-.92-1.69-.06-3.61.22-5.34-1.64.38-3.54,1.44-5.12.32-2.07-1.15-2.64-4.41-.71-5.95,1.58-1.52,3.89-.76,5.77-.43-.19-2.01-1.04-4.57.73-6.14Zm.83.75c-1.7,1.63-.35,4.14-.5,6.16-.39.07-1.17.21-1.56.28-1.57-.28-3.5-.91-4.79.4-1.63,1.39-.26,4.23,1.7,4.37,1.14-.03,2.21-.47,3.3-.77.65.19,1.15.69,1.41,1.32-.32,1.67-1.28,3.67.11,5.12,1.39,1.65,4.25.33,4.29-1.7-.26-1.27-.72-2.49-.79-3.79.51-.45,1.14-.75,1.79-.98,1.39.16,2.73.61,4.14.62,1.83-.37,2.52-2.91,1.23-4.22-1.06-1.29-2.87-.73-4.25-.51-.88-.1-1.77-.13-2.65-.2.13-1.69.73-3.41.33-5.09-.45-1.56-2.61-2.24-3.76-1Z"/>
      <path class="cls-2" d="m33.27,37.52c-1.41-.02-2.76-.46-4.14-.62-.65.22-1.28.52-1.79.98.07,1.3.52,2.53.79,3.79-.04,2.03-2.9,3.35-4.29,1.7-1.39-1.45-.43-3.45-.11-5.12-.26-.62-.75-1.13-1.41-1.32-1.09.3-2.16.74-3.3.77-1.96-.14-3.33-2.99-1.7-4.37,1.29-1.31,3.23-.68,4.79-.4.39-.07,1.17-.21,1.56-.28.14-2.02-1.2-4.53.5-6.16,1.15-1.23,3.31-.56,3.76,1,.39,1.68-.2,3.4-.33,5.09.88.08,1.77.1,2.65.2,1.39-.22,3.19-.79,4.25.51,1.29,1.31.6,3.85-1.23,4.22Z"/>
      <path class="cls-4" d="m64,26.03c1.74-1.32,4.43.45,4.08,2.55-.18,2.06-3.23,2.81-4.51,1.28-1.06-1.06-.94-3.07.43-3.83Z"/>
      <path class="cls-1" d="m56.82,31.46c1.31-.48,2.99-.49,4.06.53,2.06,1.58,1.57,5.47-.92,6.35-1.83.72-4.36-.02-5.05-1.99-.77-1.8.02-4.18,1.91-4.89Zm.11,1.13c-1.8,1.01-1.68,4.14.35,4.81,1.61.7,3.64-.51,3.63-2.31.29-2.04-2.28-3.65-3.98-2.5Z"/>
      <path class="cls-1" d="m71.69,31.58c2.25-.88,4.82,1.15,4.64,3.52.19,2.84-3.84,4.88-5.82,2.64-2.05-1.74-1.35-5.31,1.18-6.16Zm-.13,1.35c-1.28.89-1.57,2.91-.33,3.97,1.53,1.72,4.55-.28,3.97-2.35-.24-1.58-2.33-2.52-3.63-1.62Z"/>
      <path class="cls-8" d="m56.93,32.59c1.7-1.15,4.27.46,3.98,2.5,0,1.8-2.02,3.01-3.63,2.31-2.03-.67-2.14-3.8-.35-4.81Z"/>
      <path class="cls-9" d="m71.56,32.93c1.31-.9,3.39.04,3.63,1.62.58,2.07-2.44,4.07-3.97,2.35-1.23-1.06-.95-3.08.33-3.97Z"/>
      <path class="cls-11" d="m64.03,39.71c1.26-1.1,3.39-.56,3.95,1.01.67,1.59-.76,3.63-2.52,3.32-2.02-.13-3.37-3.13-1.43-4.33Z"/>
      <path class="cls-6" d="m60.92,2.51c-.05,1.5-.08,3-.08,4.51-3.35.25-6.76-.1-10.11,0,0,0-.38-.03-.88.04-.01,0-.03,0-.04,0-.87.13-2.11.56-2.54,1.93-.1.32-.15.69-.15,1.13-.09,1.58.23,3.29.13,4.8-1.31.06-2.62.08-3.92.11.09-2.78.01-5.56.22-8.33.2-2.42,2.55-4.33,4.93-4.31,4.14-.02,8.29-.06,12.44.11Z"/>
    </g>
  </g>
</svg>