<?xml version="1.0" encoding="UTF-8"?>
<svg id="Layer_2" data-name="Layer 2" xmlns="http://www.w3.org/2000/svg" xmlns:xlink="http://www.w3.org/1999/xlink" viewBox="0 0 76.15 60.86">
  <defs>
    <style>
      .cls-1, .cls-2 {
        fill: #80cef4;
      }

      .cls-1, .cls-3 {
        stroke: #231f20;
        stroke-miterlimit: 10;
        stroke-width: 1.12px;
      }

      .cls-4 {
        filter: url(#drop-shadow-1);
      }

      .cls-5 {
        fill: #a11b17;
      }

      .cls-6 {
        fill: #dff1fc;
      }

      .cls-7, .cls-3 {
        fill: #b4e0f9;
      }

      .cls-8 {
        fill: #881710;
      }

      .cls-9 {
        fill: #bd1111;
      }

      .cls-10 {
        fill: #d92a15;
      }

      .cls-11 {
        fill: #231f20;
      }
    </style>
    <filter id="drop-shadow-1" filterUnits="userSpaceOnUse">
      <feOffset dx="-3.08" dy="3.08"/>
      <feGaussianBlur result="blur" stdDeviation="7.7"/>
      <feFlood flood-color="#000" flood-opacity=".35"/>
      <feComposite in2="blur" operator="in"/>
      <feComposite in="SourceGraphic"/>
    </filter>
  </defs>
  <g id="Introduction">
    <g class="cls-4">
      <g>
        <path class="cls-6" d="m.56,60.3V7.56l1.37-1.96h2.01c.31,0,.56-.25.56-.56v-1.45c1.07-.56,5.22-2.52,11.38-2.99.4-.03.81-.04,1.24-.04,6.6,0,15.6,3.5,19.17,5,.07.03.14.04.22.04h3.16c.07,0,.15-.02.22-.04,3.56-1.5,12.57-5,19.17-5,.45,0,.85.02,1.24.04,5.19.39,8.91,1.82,10.67,2.64.31.14.54.26.71.35v1.45c0,.31.25.56.56.56h2.01l1.37,1.96v52.74H.56Z"/>
        <path class="cls-11" d="m59.04,0l.04,1.12c.4,0,.79.02,1.15.04,5.1.39,8.75,1.79,10.47,2.59.14.07.27.13.38.18v1.11c0,.62.5,1.12,1.12,1.12h1.72l1.11,1.57v52.01H1.12V7.74l1.11-1.57h1.72c.62,0,1.12-.5,1.12-1.12v-1.11c1.38-.68,5.27-2.35,10.86-2.78.38-.03.78-.04,1.19-.04,6.5,0,15.42,3.47,18.95,4.96.14.06.29.09.43.09h3.16c.15,0,.3-.03.43-.09,3.53-1.49,12.45-4.96,18.95-4.96V0M59.04,0c-6.7,0-15.77,3.52-19.39,5.05h-3.16C32.89,3.52,23.81,0,17.11,0c-.44,0-.86.01-1.28.05C8.43.61,3.94,3.26,3.94,3.26v1.78H1.64l-1.64,2.34v53.48h76.15V7.39l-1.64-2.34h-2.3v-1.78s-.36-.21-1.03-.52c-1.73-.8-5.54-2.29-10.86-2.69-.4-.03-.81-.05-1.23-.05-.02,0-.03,0-.05,0h0Z"/>
      </g>
      <g>
        <path class="cls-5" d="m.56,60.3V7.56l1.37-1.96h1.45v46.85c0,.15.06.29.16.39,1.64,1.67,2.34,3.5,2.34,3.52.08.22.29.36.52.36h63.33c.23,0,.44-.15.52-.36,0-.02.7-1.85,2.34-3.52.1-.1.16-.24.16-.39V5.61h1.45l1.37,1.96v52.74H.56Z"/>
        <path class="cls-11" d="m73.93,6.16l1.11,1.57v52.01H1.12V7.74l1.11-1.57h.6v46.29c0,.29.12.57.32.78,1.55,1.58,2.21,3.3,2.22,3.32.16.44.58.73,1.05.73h63.33c.47,0,.88-.29,1.05-.73,0-.02.66-1.74,2.21-3.31.02-.02.05-.05.07-.07.06-.07.1-.14.14-.21.08-.16.12-.34.12-.52V6.16h.6m.58-1.12h-2.3v47.41c-1.75,1.78-2.47,3.72-2.47,3.72H6.41s-.71-1.93-2.47-3.72c0,0,0,0,0,0h0S3.94,5.05,3.94,5.05H1.64l-1.64,2.34v53.48h76.15V7.39l-1.64-2.34h0Zm-2.31,47.4s.01,0,.01,0c0,0,0,0-.01,0h0Z"/>
      </g>
      <path class="cls-10" d="m39.65,5.05h-3.16c1,.42,1.58.69,1.58.69,0,0,.58-.27,1.58-.69Z"/>
      <g>
        <path class="cls-8" d="m38.63,60.3v-1.22h35.87c.31,0,.56-.25.56-.56V6.81l.52.75v52.74h-36.96Z"/>
        <path class="cls-11" d="m75.03,59.51v.23h-35.84v-.1h35.32c.19,0,.37-.05.52-.13m-.52-54.46v53.48h-36.43v2.34h38.07V7.39l-1.64-2.34h0Z"/>
      </g>
      <path class="cls-9" d="m39.65,5.05h-1.58v.69s.58-.27,1.58-.69Z"/>
      <g>
        <path class="cls-10" d="m2.2,57.96V5.61h1.18v46.85c0,.15.06.29.16.39,1.64,1.67,2.34,3.5,2.34,3.52.08.22.29.36.52.36h31.11v1.24H2.2Z"/>
        <path class="cls-11" d="m2.82,6.16v46.29h0c0,.31.12.58.32.79,1.55,1.58,2.21,3.3,2.21,3.32.16.44.58.73,1.05.73h30.55v.12H2.76V6.16h.07m1.12-1.12H1.64v53.48h36.43v-2.35H6.41s-.71-1.93-2.47-3.72V5.05h0Zm0,47.41h0,0Zm0,0h0s0,0,0,0h0Zm0,0h0,0Z"/>
      </g>
      <path class="cls-7" d="m34.54,9.74C23.89,3.65,11.53,5.63,8.87,6.16v1.62c1.52-.32,14.92-2.82,25.67,3.81v-1.85Z"/>
      <path class="cls-7" d="m34.54,15.14c-10.65-6.09-23.01-4.11-25.67-3.59v1.62c1.52-.32,14.92-2.82,25.67,3.81v-1.85Z"/>
      <path class="cls-7" d="m34.54,20.55c-10.65-6.09-23.01-4.11-25.67-3.59v1.62c1.52-.32,14.92-2.82,25.67,3.81v-1.85Z"/>
      <path class="cls-7" d="m34.54,25.95c-10.65-6.09-23.01-4.11-25.67-3.59v1.62c1.52-.32,14.92-2.82,25.67,3.81v-1.85Z"/>
      <path class="cls-7" d="m34.54,31.35c-10.65-6.09-23.01-4.11-25.67-3.59v1.62c1.52-.32,14.92-2.82,25.67,3.81v-1.85Z"/>
      <path class="cls-7" d="m34.54,36.75c-10.65-6.09-23.01-4.11-25.67-3.59v1.62c1.52-.32,14.92-2.82,25.67,3.81v-1.85Z"/>
      <path class="cls-7" d="m34.54,42.15c-10.65-6.09-23.01-4.11-25.67-3.59v1.62c1.52-.32,14.92-2.82,25.67,3.81v-1.85Z"/>
      <path class="cls-7" d="m34.54,47.55c-10.65-6.09-23.01-4.11-25.67-3.59v1.62c1.52-.32,14.92-2.82,25.67,3.81v-1.85Z"/>
      <path class="cls-3" d="m3.94,52.45s0,0,0,0c1.75,1.78,2.47,3.72,2.47,3.72h31.67v-1.24h0s-13.17-5.54-22.46-5.65c-6.8-.08-11.67,3.17-11.68,3.17Z"/>
      <g>
        <path class="cls-6" d="m38.63,55.61V6.1c2-.89,12.83-5.54,20.4-5.54.42,0,.84.01,1.24.04,6.16.47,10.3,2.43,11.38,2.99v48.63c-1.28,1.35-1.99,2.74-2.28,3.38h-30.74Z"/>
        <path class="cls-11" d="m59.04,1.12c.41,0,.82.01,1.19.04,5.59.42,9.48,2.1,10.86,2.78v48.07c-1.05,1.15-1.72,2.32-2.08,3.04h-29.82V6.46c2.63-1.15,12.73-5.34,19.85-5.34M59.04,0C50.49,0,38.07,5.74,38.07,5.74v49.19h0v1.24h31.67s.71-1.93,2.47-3.72V3.26S67.72.61,60.32.05C59.9.02,59.47,0,59.04,0h0Z"/>
      </g>
      <path class="cls-2" d="m41.61,9.74c10.65-6.09,23.01-4.11,25.67-3.59v1.62c-1.52-.32-14.92-2.82-25.67,3.81v-1.85Z"/>
      <path class="cls-2" d="m41.61,15.14c10.65-6.09,23.01-4.11,25.67-3.59v1.62c-1.52-.32-14.92-2.82-25.67,3.81v-1.85Z"/>
      <path class="cls-2" d="m41.61,20.55c10.65-6.09,23.01-4.11,25.67-3.59v1.62c-1.52-.32-14.92-2.82-25.67,3.81v-1.85Z"/>
      <path class="cls-2" d="m41.61,25.95c10.65-6.09,23.01-4.11,25.67-3.59v1.62c-1.52-.32-14.92-2.82-25.67,3.81v-1.85Z"/>
      <path class="cls-2" d="m41.61,31.35c10.65-6.09,23.01-4.11,25.67-3.59v1.62c-1.52-.32-14.92-2.82-25.67,3.81v-1.85Z"/>
      <path class="cls-2" d="m41.61,36.75c10.65-6.09,23.01-4.11,25.67-3.59v1.62c-1.52-.32-14.92-2.82-25.67,3.81v-1.85Z"/>
      <path class="cls-2" d="m41.61,42.15c10.65-6.09,23.01-4.11,25.67-3.59v1.62c-1.52-.32-14.92-2.82-25.67,3.81v-1.85Z"/>
      <path class="cls-2" d="m41.61,47.55c10.65-6.09,23.01-4.11,25.67-3.59v1.62c-1.52-.32-14.92-2.82-25.67,3.81v-1.85Z"/>
      <path class="cls-1" d="m38.07,54.93h0s0,0,0,0v1.24h31.67s.71-1.93,2.47-3.72c0,0-4.87-3.25-11.68-3.17-9.29.11-22.46,5.65-22.46,5.65Z"/>
    </g>
  </g>
</svg>